<?xml version="1.0" standalone="no"?>
<!DOCTYPE svg PUBLIC "-//W3C//DTD SVG 1.1//EN" "http://www.w3.org/Graphics/SVG/1.1/DTD/svg11.dtd" >
<svg>
<metadata>
Created by FontForge 20090914 at Thu Aug 29 03:59:23 2019
 By www-data
Generated by Fontographer 4.1.5
</metadata>
<defs>
<font id="CaturritaVU-Regular" horiz-adv-x="768" >
  <font-face 
    font-family="Caturrita VU"
    font-weight="400"
    font-stretch="normal"
    units-per-em="1000"
    panose-1="0 0 4 0 0 0 0 0 0 0"
    ascent="727"
    descent="-273"
    x-height="539.998"
    cap-height="749"
    bbox="-48.999 -303.003 1032 1234"
    underline-thickness="50"
    underline-position="-50"
    unicode-range="U+000D-U+2122"
  />
<missing-glyph horiz-adv-x="500" 
d="M63 0v800h375v-800h-375zM125 63h250v675h-250v-675z" />
    <glyph glyph-name=".notdef" horiz-adv-x="500" 
d="M63 0v800h375v-800h-375zM125 63h250v675h-250v-675z" />
    <glyph glyph-name="NULL" horiz-adv-x="0" 
 />
    <glyph glyph-name="NULL" horiz-adv-x="0" 
 />
    <glyph glyph-name="nonmarkingreturn" unicode="&#xd;" horiz-adv-x="276" 
 />
    <glyph glyph-name="space" unicode=" " horiz-adv-x="228" 
 />
    <glyph glyph-name="exclam" unicode="!" horiz-adv-x="184" 
d="M48 718c12.667 18 32.667 27 60 27c39.333 0 59 -28.667 59 -86c0 -34.667 -10 -86 -30 -154s-30 -119.333 -30 -154c0 -50 12 -93 36 -129c-9.33301 -14 -22 -21 -38 -21c-10.667 0 -19.667 6.66699 -27 20s-11 33.333 -11 60c0 12.667 0.666992 29.334 2 50.001
s3.33301 46 6 76s4.66699 56.833 6 80.5s2 45.167 2 64.5c0 69.333 -11.333 124.666 -34 165.999h-1zM106 116c15.333 0 27.332 -5.33301 35.999 -16c9.33301 -11.333 14 -25.333 14 -42c0 -16 -5 -29.333 -15 -40s-23.667 -16 -41 -16c-15.333 0 -28 5 -38 15
s-15 22.333 -15 37c0 17.333 5.66699 32.333 17 45c10.667 12 24.334 18 41.001 18z" />
    <glyph glyph-name="quotedbl" unicode="&#x22;" horiz-adv-x="409" 
d="M127 558c-35.333 -9.33301 -60.334 -7.33203 -75.001 6.00098c-15.333 13.333 -23 30 -23 50s6 36.667 18 50s27.667 20 47 20c20 0 35.667 -5.33301 47 -16c12 -11.333 18 -27.333 18 -48c0 -36.667 -14.667 -78.667 -44 -126c-28.667 -46.667 -54.667 -70 -78 -70
c-21.333 0 -32 9 -32 27c34 5.33301 62.667 19.666 86 42.999c24.667 24.667 37.334 46 38.001 64h-2zM322.999 558.001c-35.333 -9.33301 -60.334 -7.33203 -75.001 6.00098c-15.333 13.333 -23 30 -23 50s6 36.667 18 50s27.667 20 47 20c20 0 35.667 -5.33301 47 -16
c12 -11.333 18 -27.333 18 -48c0 -36.667 -14.667 -78.667 -44 -126c-28.667 -46.667 -54.667 -70 -78 -70c-21.333 0 -32 9 -32 27c34 5.33301 62.667 19.666 86 42.999c24.667 24.667 37.334 46 38.001 64h-2z" />
    <glyph glyph-name="onequarter" unicode="#" horiz-adv-x="736" 
d="M670 447c20.667 0 31 -7.66797 31 -23.001c0 -10 -4 -19 -12 -27c-9.33301 1.33301 -27 2.33301 -53 3s-60.333 1 -103 1l-33.5 -92c-9 -25.333 -15.5 -45.666 -19.5 -60.999c20 0.666992 45.667 1 77 1h113c20.667 0 31 -7.66699 31 -23c0 -10 -4 -19 -12 -27
c-10.667 1.33301 -29.667 2.33301 -57 3s-63.333 1 -108 1h-57c-8.66699 -38.667 -13 -76.334 -13 -113.001c0 -36 12.333 -63.333 37 -82c-8 -16 -25.333 -24 -52 -24c-16.667 0 -30.667 5.66699 -42 17c-10.667 10.667 -16 28.334 -16 53.001c0 44 9 93.667 27 149
l-158 -2c-8 -35.333 -12 -71.666 -12 -108.999c0 -34.667 12.667 -62.667 38 -84c-9.33301 -16 -26.333 -24 -51 -24c-16 0 -30.333 5.66699 -43 17c-12 10.667 -18 28.667 -18 54c0 40 8.66699 89 26 147c-19.333 -0.666992 -38.333 -1 -57 -1h-54
c-20.667 0 -31 7.66699 -31 23c0 8.66699 3.66699 16.667 11 24c15.333 -0.666992 32.5 -1.16699 51.5 -1.5s39.833 -0.5 62.5 -0.5h34l8 23c4 11.333 9.66699 26.333 17 45c13.333 36 23.333 64.667 30 86c-31.333 -0.666992 -62 -1 -92 -1h-90
c-20.667 0 -31 7.66699 -31 23c0 8.66699 3.66699 16.667 11 24c15.333 -0.666992 32.5 -1.16699 51.5 -1.5s39.833 -0.5 62.5 -0.5h30h37h34c7.33301 32.667 11 62.667 11 90c0 34 -9.66699 61.667 -29 83c12 13.333 28.667 20 50 20c17.333 0 31 -5 41 -15
s15 -24.667 15 -44c0 -34.667 -9.33301 -78.667 -28 -132h77h81c3.33301 15.333 5.83301 30.166 7.5 44.499s2.5 28.166 2.5 41.499c0 32.667 -9.66699 60.667 -29 84c13.333 13.333 30.333 20 51 20c17.333 0 31 -5.33301 41 -16c10 -11.333 15 -26.333 15 -45
c0 -33.333 -9.33301 -76.666 -28 -129.999h121zM261 243.999c15.333 0 36.332 0.166992 62.999 0.5s59.334 0.833008 98.001 1.5l37.5 103l17.5 50h-77h-84c-31.333 -83.333 -49.333 -134.333 -54 -153z" />
    <glyph glyph-name="dollar" unicode="$" horiz-adv-x="628" 
d="M315 -94c-14 0 -23.002 4.66699 -27.002 14c-4 8.66699 -6 28.667 -6 60v16c-74.667 2.66699 -133 20.667 -175 54c-42 32.667 -63 69.667 -63 111c0 30.667 6.66699 53.667 20 69c12.667 14.667 28.334 22 47.001 22c20.667 0 37.667 -6.66699 51 -20
c-8.66699 -25.333 -13 -48.666 -13 -69.999c0 -39.333 12 -72.333 36 -99s57 -42 99 -46v89c0 19.333 0.166992 40.166 0.5 62.499s0.833008 46.5 1.5 72.5s1 49.167 1 69.5v52.5c-72 31.333 -120.333 56.333 -145 75c-49.333 36 -74 80.333 -74 133c0 48 18.333 88 55 120
c36.667 31.333 87.667 50.666 153 57.999c-4 45.333 -9.33301 72.666 -16 81.999c13.333 11.333 26.333 17 39 17c16.667 0 27.334 -5.33301 32.001 -16c4.66699 -11.333 7.66699 -38.333 9 -81c65.333 -3.33301 117.666 -19.666 156.999 -48.999c40 -30 60 -65.333 60 -106
c0 -20.667 -6 -36 -18 -46s-25 -15 -39 -15c-17.333 0 -32.666 5.66699 -45.999 17c1.33301 56 -7 98.333 -25 127s-47.667 45.667 -89 51v-59c0 -24 -0.333008 -52.333 -1 -85s-1 -59.5 -1 -80.5v-46.5v-15c76.667 -35.333 127 -61.666 151 -78.999
c62 -43.333 93 -96.333 93 -159c0 -56.667 -21.667 -103.667 -65 -141s-99.333 -59.333 -168 -66c2.66699 -43.333 5.66699 -69.333 9 -78c-13.333 -10.667 -27 -16 -41 -16zM466.998 174c0 38.667 -11.334 70.333 -34.001 95c-23.333 25.333 -55.666 48.333 -96.999 69
c2 -140 5 -246 9 -318c34.667 8.66699 63.667 26.667 87 54s35 61 35 101v-1zM283.997 464.999c-1.33301 104 -4.33301 189.999 -9 257.999c-30.667 -6 -55 -20 -73 -42s-27 -50.667 -27 -86c0 -28 9.33301 -51.667 28 -71s45.667 -38.666 81 -57.999v-1z" />
    <glyph glyph-name="percent" unicode="%" horiz-adv-x="657" 
d="M162 339c-46 1.33301 -83.334 14.667 -112.001 40c-28.667 26 -43 63.333 -43 112s14.667 88.667 44 120c28.667 30.667 68.334 46 119.001 46c46 0 83.667 -13 113 -39s44 -63.333 44 -112c0 -49.333 -15 -89.333 -45 -120s-70.333 -46 -121 -46zM166.999 362.001
c26.667 0 47.667 11.998 63 35.998c15.333 24.667 23 57.334 23 98.001c0 41.333 -8 75 -24 101s-37.667 39 -65 39c-26.667 0 -47.667 -12.667 -63 -38c-14.667 -24.667 -22 -56.667 -22 -96s7.33301 -72.666 22 -99.999c14.667 -28 37 -42 67 -42zM485.999 4.99902
c-45.333 1.33301 -82.333 14.667 -111 40c-29.333 26 -44 63.333 -44 112c0 49.333 15 89 45 119s70.333 45 121 45c44.667 0 81.667 -13 111 -39c28.667 -26 43 -63.333 43 -112s-14.667 -88.667 -44 -120c-28.667 -30.667 -68.667 -46 -120 -46zM489.999 23
c26.667 0 48 12 64 36s24 56.667 24 98c0 40 -7.66699 73.667 -23 101s-36.333 41 -63 41s-48 -12 -64 -36s-24 -56.333 -24 -97c0 -39.333 7 -72.333 21 -99c14 -27.333 36 -41 66 -41zM170.999 72c0 30 9 62.6641 27 97.9971c18 34.667 40 68.667 66 102l78 99
c25.333 32.667 47.333 67.334 66 104.001c18 36 27 69.667 27 101c0 32.667 -9.66699 59.667 -29 81c11.333 13.333 27.333 20 48 20c18.667 0 33.667 -5.33301 45 -16c12 -11.333 18 -26.333 18 -45c0 -24 -9.33301 -52.333 -28 -85c-18 -32 -41 -65.333 -69 -100
l-40.5 -51.5l-40.5 -51.5c-27.333 -35.333 -50.333 -72.666 -69 -111.999s-28 -76.666 -28 -111.999c0 -36.667 12.667 -63.667 38 -81c-10 -16.667 -27.333 -25 -52 -25c-18.667 0 -34 6 -46 18s-18 29.667 -18 53z" />
    <glyph glyph-name="ampersand" unicode="&#x26;" horiz-adv-x="861" 
d="M459 521c4.66699 14.667 6.99805 31.667 6.99805 51c0 35.333 -10.667 63.666 -32 84.999c-20.667 20.667 -47.667 31 -81 31c-38.667 0 -69 -14 -91 -42s-33 -68.667 -33 -122c0 -78.667 24 -163 72 -253c48 -89.333 106 -160.666 174 -213.999
c37.333 27.333 67 59.333 89 96s33 71.667 33 105c0 48 -16.667 86 -50 114c10 20 27.333 30 52 30c18.667 0 34.667 -8 48 -24c13.333 -16.667 20 -39 20 -67c0 -44 -15 -92 -45 -144s-71 -95 -123 -129c50.667 -34.667 99.667 -52 147 -52c26 0 48.667 4.33301 68 13
c20 9.33301 35.667 21 47 35c12 14.667 20.667 28.667 26 42c6 14 10 27.667 12 41c8 3.33301 14.333 5 19 5c10 0 18.333 -3.33301 25 -10s10 -16 10 -28c0 -31.333 -20.333 -58.333 -61 -81c-41.333 -23.333 -89.666 -35 -144.999 -35c-59.333 0 -121 17 -185 51
c-54 -26.667 -111.333 -40 -172 -40c-73.333 0 -134.333 18 -183 54s-73 82.333 -73 139c0 38 12.333 73.333 37 106c25.333 33.333 60.666 59.333 105.999 78c-16 50 -24 98 -24 144c0 68.667 19 120.667 57 156c38.667 35.333 89.334 53 152.001 53
c55.333 0 100 -13 134 -39s51 -56.667 51 -92c0 -20 -5.33301 -35 -16 -45c-11.333 -10 -24.666 -15 -39.999 -15c-10 0 -20 2.33301 -30 7zM311.998 2c42.667 0 84 9.99902 124 29.999c-54.667 33.333 -105 77 -151 131c-44.667 52.667 -78.667 110.334 -102 173.001
c-44 -39.333 -66 -87.333 -66 -144c0 -52.667 18.667 -97.667 56 -135c36.667 -36.667 82.667 -55 138 -55h1z" />
    <glyph glyph-name="quotesingle" unicode="'" horiz-adv-x="211" 
d="M127 617c-35.333 -9.33301 -60.334 -7.33203 -75.001 6.00098c-15.333 13.333 -23 30 -23 50s6 36.667 18 50s27.667 20 47 20c20 0 35.667 -5.33301 47 -16c12 -11.333 18 -27.333 18 -48c0 -36.667 -14.667 -78.667 -44 -126c-28.667 -46.667 -54.667 -70 -78 -70
c-21.333 0 -32 9 -32 27c34 5.33301 62.667 19.666 86 42.999c24.667 24.667 37.334 46 38.001 64h-2z" />
    <glyph glyph-name="parenleft" unicode="(" horiz-adv-x="318" 
d="M43 239c0 60 8.33301 118.999 25 176.999c17.333 60.667 37.666 111.334 60.999 152.001c12 21.333 24.167 41.333 36.5 60s24.833 36.667 37.5 54c24 33.333 46 58.666 66 75.999c19.333 17.333 31.333 26 36 26s7 -1.66699 7 -5
c-47.333 -49.333 -87.333 -120.333 -120 -213c-32.667 -92 -49 -200 -49 -324c0 -235.333 56.667 -414.666 170 -537.999c0 -3.33301 -2.33301 -5 -7 -5s-16.667 8.66699 -36 26c-20 17.333 -42 42.666 -66 75.999c-12.667 17.333 -25 35.333 -37 54s-24 38.667 -36 60
c-23.333 40.667 -43.666 91.334 -60.999 152.001c-16.667 58 -25 117 -25 177z" />
    <glyph glyph-name="parenright" unicode=")" horiz-adv-x="318" 
d="M271 245c0 -60 -8.33301 -119.003 -25 -177.003c-17.333 -59.333 -37.666 -109.666 -60.999 -150.999c-12 -21.333 -24 -41.333 -36 -60s-24.333 -36.667 -37 -54c-24 -33.333 -46 -58.666 -66 -75.999c-18.667 -16.667 -30.667 -25 -36 -25c-4.66699 0 -7 1.66699 -7 5
c113.333 123.333 170 302.666 170 537.999c0 124 -16.333 232 -49 324c-33.333 92.667 -73.333 163.667 -120 213c0 3.33301 2.33301 5 7 5c5.33301 0 17.333 -8.33301 36 -25c20 -17.333 42 -42.666 66 -75.999c12.667 -17.333 25.167 -35.333 37.5 -54
s24.5 -38.667 36.5 -60c23.333 -41.333 43.666 -91.666 60.999 -150.999c16.667 -58 25 -117 25 -177z" />
    <glyph glyph-name="asterisk" unicode="*" horiz-adv-x="448" 
d="M406 643c0 -25.333 -8.33203 -44.334 -24.999 -57.001s-37.667 -19 -63 -19c-15.333 0 -31 2.66699 -47 8c-14.667 4.66699 -24.667 10.334 -30 17.001c33.333 1.33301 62 14.333 86 39c23.333 24.667 37.666 47.667 42.999 69
c11.333 -1.33301 20.333 -6.66602 27 -15.999c7.33301 -10.667 11 -23.334 11 -38.001zM305.001 431.999c-27.333 0 -48.333 12.333 -63 37s-22 50.667 -22 78c0 12.667 1.66699 21.667 5 27c10 -26.667 28 -47 54 -61s51.333 -21 76 -21
c3.33301 0 6.83301 0.166992 10.5 0.5s7.16699 0.833008 10.5 1.5c1.33301 -5.33301 2 -9.33301 2 -12c0 -12.667 -7.33301 -24 -22 -34c-15.333 -10 -31.333 -15 -48 -15zM96.001 470.999c0 25.333 12.333 49 37 71s46.667 33 66 33c5.33301 0 8.33301 -0.333008 9 -1
c-26 -20 -39 -53.667 -39 -101c0 -21.333 4.66699 -43.333 14 -66c-6 -4 -14 -6 -24 -6c-18 0 -33 7 -45 21s-18 31 -18 51v-2zM98.001 663.999c22 0 44.333 -8.33301 67 -25c22.667 -17.333 35.667 -33.333 39 -48c-14.667 8.66699 -32.667 13 -54 13
c-20 0 -40.333 -5 -61 -15c-22 -10.667 -39 -21 -51 -31c-11.333 8 -17 21 -17 39s6.33301 33.667 19 47c12.667 14 31.667 21 57 21zM257.001 693.999c0 -18 -3.66699 -36.335 -11 -55.002c-6.66699 -17.333 -14.667 -29.666 -24 -36.999c0.666992 2 1 6.66699 1 14
c0 30.667 -10 57.667 -30 81s-39.667 39 -59 47c4 20 19.667 30 47 30c25.333 0 44.333 -7.33301 57 -22c13.333 -15.333 20 -34.666 20 -57.999h-1z" />
    <glyph glyph-name="plus" unicode="+" horiz-adv-x="567" 
d="M536 242c-38 3.33301 -75.001 6.16699 -111.001 8.5s-72 4.16602 -108 5.49902c0 -84.667 8.33301 -165.667 25 -243c-15.333 -12.667 -33.333 -19 -54 -19c-28 0 -42 36.667 -42 110c0 20.667 1.16699 43.667 3.5 69s5.83301 53.333 10.5 84
c-17.333 -0.666992 -34 -1.16699 -50 -1.5s-31.667 -1.16602 -47 -2.49902c-30.667 -2 -54.334 -4 -71.001 -6c-17.333 -2 -27.333 -3 -30 -3c-19.333 0 -29 8 -29 24c0 10.667 3.66699 19.667 11 27c2 0 8.66699 -1 20 -3c10.667 -2 22.667 -4 36 -6
c12.667 -2 33.667 -4 63 -6c28.667 -2 61.667 -3 99 -3c-1.33301 80.667 -9.66602 162.667 -24.999 246c13.333 12.667 31.333 19 54 19c40.667 0 49.667 -88 27 -264c16.667 0.666992 33.834 1.83398 51.501 3.50098s36.167 4.16699 55.5 7.5c38 6 68.667 9 92 9
c20.667 0 31 -7.66699 31 -23c0 -10.667 -3.66699 -20.334 -11 -29.001z" />
    <glyph glyph-name="comma" unicode="," horiz-adv-x="261" 
d="M186 -12c-35.333 -9.33301 -60.334 -7.33203 -75.001 6.00098c-15.333 13.333 -23 30 -23 50s6 36.667 18 50s27.667 20 47 20c20 0 35.667 -5.33301 47 -16c12 -11.333 18 -27.333 18 -48c0 -36.667 -14.667 -78.667 -44 -126c-28.667 -46.667 -54.667 -70 -78 -70
c-21.333 0 -32 9 -32 27c34 5.33301 62.667 19.666 86 42.999c24.667 24.667 37.334 46 38.001 64h-2z" />
    <glyph glyph-name="hyphen" unicode="-" horiz-adv-x="265" 
d="M233 240c-23.333 2 -53.334 3 -90.001 3h-33c-10.667 0 -21.667 -0.333008 -33 -1s-19.666 -1 -24.999 -1h-9c-23.333 0 -35 8 -35 24c0 10 4 20.667 12 32c7.33301 -0.666992 16.833 -1.16699 28.5 -1.5s25.167 -0.5 40.5 -0.5c4.66699 0 11 0.166992 19 0.5
s18 0.833008 30 1.5s24.5 1.16699 37.5 1.5s26.5 0.5 40.5 0.5c19.333 0 29 -8.66699 29 -26c0 -10.667 -3.66699 -20.667 -11 -30z" />
    <glyph glyph-name="period" unicode="." horiz-adv-x="235" 
d="M132 127c40 0 60 -18.999 60 -56.999c0 -22 -6 -40 -18 -54s-29.333 -21 -52 -21c-38.667 0 -58 19.333 -58 58c0 21.333 6.33301 38.666 19 51.999c12.667 14 29.667 21 51 21z" />
    <glyph glyph-name="slash" unicode="/" horiz-adv-x="356" 
d="M7 72c0 30 9 62.6631 27 97.9961c18 34.667 40 68.667 66 102l78 99c25.333 32.667 47.333 67.334 66 104.001c18 36 27 70 27 102c0 30.667 -9.66699 57.667 -29 81c12 13.333 28.333 20 49 20c18.667 0 33.667 -5.33301 45 -16c12 -11.333 18 -26.333 18 -45
c0 -24 -9.33301 -52.333 -28 -85c-19.333 -33.333 -42.333 -66.333 -69 -99l-81 -102c-27.333 -35.333 -50.333 -72.666 -69 -111.999s-28 -77 -28 -113c0 -35.333 12.667 -62.666 38 -81.999c-8.66699 -16.667 -26 -25 -52 -25c-19.333 0 -34.333 6 -45 18
c-11.333 12.667 -17 30.334 -17 53.001z" />
    <glyph glyph-name="zero" unicode="0" horiz-adv-x="675" 
d="M52 341c0 122.667 26.667 217.667 80 285s124.333 101 213 101c92.667 0 162.667 -31 210 -93c47.333 -62.667 71 -148 71 -256c0 -122.667 -27 -217 -81 -283s-125 -99 -213 -99c-92 0 -162 31 -210 93s-72 146.333 -72 253zM524 348c0 118.667 -16 207.666 -48 266.999
c-32 58.667 -76.667 88 -134 88c-56.667 0 -102 -28.333 -136 -85c-34 -57.333 -51 -138.666 -51 -243.999c0 -238 61.333 -357 184 -357c52.667 0 96.667 26.667 132 80s53 138 53 254v-3z" />
    <glyph glyph-name="one" unicode="1" horiz-adv-x="268" 
d="M178 395c0 -113.333 1 -196.333 3 -249c2 -53.333 7 -99.333 15 -138c-26 -10 -52 -15 -78 -15c-12 0 -20.333 3.33301 -25 10s-7 19.667 -7 39v587c-26 -26 -47.667 -39 -65 -39c-10 0 -15 7.66699 -15 23c24.667 10.667 49.667 25.667 75 45l34 26l26 21
c14.667 12 25.667 18 33 18c4.66699 0 7 -3 7 -9z" />
    <glyph glyph-name="two" unicode="2" horiz-adv-x="568" 
d="M496 144c8 0 14.998 -4.00195 20.998 -12.002s9 -19 9 -33c0 -31.333 -11 -59.333 -33 -84s-54 -37 -96 -37c-34 0 -76 10.667 -126 32s-86.333 32 -109 32c-36 0 -75.667 -18.667 -119 -56c-6 0 -11 3 -15 9s-6 11 -6 15c0 6 12.667 20 38 42l42 37.5l50 46.5l54 54
c18 18.667 36 38.334 54 59.001c36.667 42 67.334 90 92.001 144c25.333 56 38 110 38 162c0 50.667 -11 88 -33 112s-50.667 36 -86 36c-34 0 -62.333 -9 -85 -27s-34 -42 -34 -72c0 -16 5 -36 15 -60c-16 -17.333 -35.333 -26 -58 -26c-16.667 0 -30.667 5.66699 -42 17
c-10.667 10.667 -16 26.334 -16 47.001c0 31.333 12.333 58.333 37 81s54 39 88 49s69.333 15 106 15c141.333 0 212 -54 212 -162c0 -36.667 -8.33301 -74 -25 -112c-17.333 -39.333 -37.333 -74.333 -60 -105c-11.333 -15.333 -24 -31 -38 -47s-29.333 -32.667 -46 -50
l-46 -46c-14 -13.333 -27 -25 -39 -35l-37.5 -30.5l-39.5 -32.5c-28 -23.333 -43.667 -36 -47 -38c28.667 18 60.667 27 96 27c22 0 52 -5 90 -15s65.667 -15 83 -15c26.667 0 48.334 5.66699 65.001 17c16 10.667 30 31.667 42 63z" />
    <glyph glyph-name="three" unicode="3" horiz-adv-x="556" 
d="M454 598c0 -23.333 -6.33301 -45.335 -19 -66.002c-13.333 -21.333 -28.333 -39.333 -45 -54s-37 -29 -61 -43c-12 -7.33301 -23 -13.5 -33 -18.5s-18.667 -9.16699 -26 -12.5c-15.333 -7.33301 -31.333 -14.333 -48 -21c12 1.33301 22.5 2.33301 31.5 3s16.833 1 23.5 1
c64.667 0 118.667 -13.333 162 -40c44 -27.333 66 -68.333 66 -123c0 -68 -29 -124.333 -87 -169c-57.333 -44.667 -131.333 -67 -222 -67c-50 0 -92.667 10.667 -128 32s-53 45 -53 71c0 24.667 13.667 40.667 41 48c0.666992 -3.33301 1.16699 -6.83301 1.5 -10.5
s1.16602 -7.16699 2.49902 -10.5l5 -13c2 -5.33301 4.66699 -11.666 8 -18.999c6.66699 -13.333 15.334 -25.333 26.001 -36c10 -10 25 -19 45 -27s43.333 -12 70 -12c53.333 0 99.333 18.667 138 56c38 36.667 57 83.334 57 140.001c0 50 -16.333 88.333 -49 115
s-76 40 -130 40c-12 0 -30 -2 -54 -6c-6 0 -9 7.33301 -9 22c57.333 29.333 105 64 143 104s57 79.667 57 119c0 33.333 -9.66699 59 -29 77s-45.333 27 -78 27c-34 0 -62.333 -7.66699 -85 -23c-22 -15.333 -33 -36 -33 -62c0 -20.667 5.33301 -40.667 16 -60
c-14 -14.667 -31 -22 -51 -22c-16.667 0 -31 5 -43 15s-18 23.333 -18 40c0 34.667 21.667 65.667 65 93s95 41 155 41c57.333 0 104 -10 140 -30s54 -51.333 54 -94z" />
    <glyph glyph-name="four" unicode="4" horiz-adv-x="583" 
d="M17 212c2 5.33301 13.3291 17.333 33.9961 36c10.667 9.33301 21.667 20 33 32l36 39c24.667 28 49.667 61 75 99c24.667 38 45.667 84 63 138c17.333 55.333 26 111 26 167c34.667 0 58.667 -5 72 -15c12.667 -10 19 -26.333 19 -49
c0 -57.333 -30.333 -131.333 -91 -222c-61.333 -92 -121.666 -164 -180.999 -216c26 2 95.333 3 208 3c2.66699 72.667 10.667 121.667 24 147c12.667 24.667 33.667 37 63 37c28 0 46.667 -3.33301 56 -10c-34 0 -51 -57.667 -51 -173
c34.667 1.33301 59.334 3.66602 74.001 6.99902c17.333 4 33 11.333 47 22c8.66699 -4 13 -11.333 13 -22c0 -21.333 -30 -32 -90 -32h-43c4 -83.333 9 -147.333 15 -192c-21.333 -10 -48.333 -15 -81 -15c-10.667 0 -18 3 -22 9s-6 16.333 -6 31v109
c0 28 0.333008 47.667 1 59c-6 0 -15.167 0.166992 -27.5 0.5s-28.166 0.833008 -47.499 1.5s-36.166 1.16699 -50.499 1.5s-26.5 0.5 -36.5 0.5c-50 0 -88 -3.33301 -114 -10c-10 0.666992 -15 8.33398 -15 23.001z" />
    <glyph glyph-name="five" unicode="5" horiz-adv-x="569" 
d="M148 434c36 13.333 82.002 19.998 138.002 19.998c68.667 0 124.667 -16.333 168 -49c44 -33.333 66 -82.333 66 -147c0 -80.667 -31.667 -145.667 -95 -195c-62.667 -48.667 -136.334 -73 -221.001 -73c-54 0 -101 10 -141 30s-60 44 -60 72c0 10 3.33301 18.667 10 26
c7.33301 8.66699 16.333 14.334 27 17.001c11.333 -39.333 31.666 -69.333 60.999 -90c30.667 -21.333 68 -32 112 -32c60.667 0 110.667 22 150 66c39.333 44.667 59 98.334 59 161.001c0 58 -17 101.667 -51 131c-34.667 29.333 -80 44 -136 44c-46 0 -88 -8 -126 -24
c-2.66699 0 -5 2 -7 6c-1.33301 2 -2.16602 4 -2.49902 6s-0.833008 3.66699 -1.5 5l-1 6l53 307c144 0 255 12.667 333 38c12.667 -10.667 19 -24.667 19 -42c0 -12.667 -5 -24 -15 -34s-26.333 -15 -49 -15c-34.667 0 -81.334 3 -140.001 9
c-57.333 6 -92.333 10.667 -105 14z" />
    <glyph glyph-name="six" unicode="6" horiz-adv-x="588" 
d="M364 398c50.667 0 94.665 -16.001 131.998 -48.001s56 -76 56 -132c0 -70 -25.333 -124.333 -76 -163s-111 -58 -181 -58c-70.667 0 -129.667 23.667 -177 71c-46.667 46.667 -70 112.667 -70 198c0 67.333 13 129 39 185s57.667 100.667 95 134
c36.667 32.667 76.667 60.667 120 84c42.667 22.667 80.334 38.667 113.001 48c30.667 8.66699 56.334 13 77.001 13c15.333 0 23 -3.33301 23 -10c-36.667 -7.33301 -69.667 -16.666 -99 -27.999c-31.333 -12 -64.333 -30 -99 -54c-35.333 -24 -65.333 -52 -90 -84
c-25.333 -32 -46.333 -73 -63 -123c-16.667 -49.333 -25 -105 -25 -167c0 -72.667 14 -132 42 -178s67.667 -69 119 -69c48.667 0 87.667 16.667 117 50c28.667 32.667 43 75.667 43 129c0 52 -13.667 91 -41 117s-62.333 39 -105 39c-43.333 0 -85.333 -12 -126 -36
c-1.33301 0 -2 1 -2 3c0 8 7.66699 18 23 30c14.667 12 36.667 23 66 33c28.667 10 58.667 15 90 15z" />
    <glyph glyph-name="seven" unicode="7" horiz-adv-x="471" 
d="M391 667c-35.333 -14 -73.001 -21.001 -113.001 -21.001c-25.333 0 -61.333 4 -108 12c-47.333 8 -76.666 12 -87.999 12c-19.333 0 -34.333 -6 -45 -18c-11.333 -12 -17.333 -26.333 -18 -43c-9.33301 1.33301 -14 12.333 -14 33c0 22.667 7.66699 42.667 23 60
s38.333 26 69 26c9.33301 0 22.5 -1 39.5 -3s38.167 -4.66699 63.5 -8s47.166 -6 65.499 -8s33.5 -3 45.5 -3c38 0 70.333 5.66699 97 17c4.66699 0 8.66699 -2 12 -6c3.33301 -4.66699 5 -9 5 -13c0 -16 -12.667 -48.333 -38 -97l-84 -153
c-31.333 -54.667 -59.333 -119 -84 -193c-25.333 -76 -38 -145 -38 -207c0 -7.33301 0.5 -15.333 1.5 -24s2.16699 -17.667 3.5 -27c-13.333 -6 -26.333 -9 -39 -9c-15.333 0 -27.666 4.66699 -36.999 14c-8.66699 8.66699 -13 21.667 -13 39
c0 46.667 13.667 104.334 41 173.001c26.667 68 54.667 127 84 177l48 79.5l56 88.5l46.5 73l19.5 31z" />
    <glyph glyph-name="eight" unicode="8" horiz-adv-x="576" 
d="M204 351c-30.667 -16 -57.001 -39.3379 -79.001 -70.0049c-22 -31.333 -33 -66.333 -33 -105c0 -47.333 15.333 -86.333 46 -117c31.333 -31.333 74.333 -47 129 -47c52 0 92.667 14 122 42s44 64.333 44 109c0 38 -13 70.667 -39 98s-57.667 49 -95 65l-55.5 24.5
l-55.5 25.5c-37.333 17.333 -69 40.333 -95 69s-39 63.667 -39 105c0 52.667 21.667 95 65 127c42.667 32 97.334 48 164.001 48c62.667 0 111.667 -15 147 -45c34.667 -30 52 -65.333 52 -106c0 -49.333 -17 -87.333 -51 -114c-33.333 -26.667 -70.666 -40 -111.999 -40
c25.333 12.667 47.333 32.334 66 59.001c18 26 27 55.667 27 89c0 41.333 -12 74 -36 98s-57.333 36 -100 36c-39.333 0 -71.333 -11.333 -96 -34s-37 -53 -37 -91c0 -29.333 9.66699 -55.666 29 -78.999c18.667 -23.333 42.667 -41.333 72 -54l93 -42l93 -45
c29.333 -15.333 53.333 -36.666 72 -63.999c19.333 -28.667 29 -61 29 -97c0 -58.667 -25.333 -107 -76 -145c-51.333 -38 -116.333 -57 -195 -57c-74.667 0 -133.334 17.667 -176.001 53c-42 34.667 -63 77.334 -63 128.001c0 47.333 18 88 54 122
c36.667 34.667 80.667 54.334 132 59.001z" />
    <glyph glyph-name="nine" unicode="9" horiz-adv-x="588" 
d="M220 318c-51.333 0 -95.3301 15.998 -131.997 47.998s-55 76 -55 132c0 70.667 25.333 125.334 76 164.001c51.333 39.333 111.666 59 180.999 59c70.667 0 129.667 -23.667 177 -71c46.667 -46.667 70 -112.667 70 -198c0 -66.667 -13 -128 -39 -184
s-57.333 -100.333 -94 -133c-37.333 -33.333 -77.333 -61.333 -120 -84s-80.334 -38.667 -113.001 -48c-30.667 -8.66699 -56.334 -13 -77.001 -13c-15.333 0 -23 3.33301 -23 10c33.333 6.66699 66.333 16.334 99 29.001c30.667 12 63.667 30 99 54
c34.667 24 64.667 52 90 84c24.667 32 45.667 73 63 123c16.667 49.333 25 105 25 167c0 73.333 -14 133 -42 179s-67.333 69 -118 69c-48.667 0 -87.667 -16.667 -117 -50c-28.667 -32.667 -43 -75.667 -43 -129c0 -52 13.667 -91 41 -117c26.667 -26 61.667 -39 105 -39
c42.667 0 84.667 12 126 36c1.33301 0 2 -1 2 -3c0 -8 -7.33301 -18 -22 -30c-15.333 -12 -37.333 -23 -66 -33c-29.333 -10 -59.333 -15 -90 -15z" />
    <glyph glyph-name="colon" unicode=":" horiz-adv-x="235" 
d="M132 180c40 0 60 -18.999 60 -56.999c0 -22 -6 -40 -18 -54s-29.333 -21 -52 -21c-38.667 0 -58 19.333 -58 58c0 21.333 6.33301 38.666 19 51.999c12.667 14 29.667 21 51 21zM130 534.001c40 0 60 -18.999 60 -56.999c0 -22 -6 -40 -18 -54s-29.333 -21 -52 -21
c-38.667 0 -58 19.333 -58 58c0 21.333 6.33301 38.666 19 51.999c12.667 14 29.667 21 51 21z" />
    <glyph glyph-name="semicolon" unicode=";" horiz-adv-x="266" 
d="M142 534c40 0 60 -18.999 60 -56.999c0 -22 -6 -40 -18 -54s-29.333 -21 -52 -21c-38.667 0 -58 19.333 -58 58c0 21.333 6.33301 38.666 19 51.999c12.667 14 29.667 21 51 21zM189 74.001c-35.333 -9.33301 -60.334 -7.33203 -75.001 6.00098
c-15.333 13.333 -23 30 -23 50s6 36.667 18 50s27.667 20 47 20c20 0 35.667 -5.33301 47 -16c12 -11.333 18 -27.333 18 -48c0 -36.667 -14.667 -78.667 -44 -126c-28.667 -46.667 -54.667 -70 -78 -70c-21.333 0 -32 9 -32 27c34 5.33301 62.667 19.666 86 42.999
c24.667 24.667 37.334 46 38.001 64h-2z" />
    <glyph glyph-name="less" unicode="&#x3c;" horiz-adv-x="529" 
d="M82 310l324 -144l54.5 -23c13.667 -6 23.167 -10.667 28.5 -14c10 -6 15 -12.333 15 -19c0 -15.333 -8 -26.333 -24 -33c-18 6.66699 -91 39.667 -219 99c-128 58.667 -212 95.667 -252 111c0 18.667 2 32.667 6 42c4 8.66699 13 16 27 22
c3.33301 1.33301 11.166 4.83301 23.499 10.5l50.5 22.5l60 27l53 24l52.5 23.5l58.5 26.5c20.667 9.33301 39.334 17.333 56.001 24l45 18c26 10 42 15 48 15c13.333 0 20 -14.667 20 -44c-59.333 -19.333 -201.333 -81.333 -426 -186z" />
    <glyph glyph-name="equal" unicode="=" horiz-adv-x="688" 
d="M589 356c-23.333 2 -77 3 -161 3h-65.5c-23 0 -47.167 -0.333008 -72.5 -1s-48.833 -1 -70.5 -1h-58.5h-57c-21.333 0 -32 8.33301 -32 25c0 8.66699 4 18.667 12 30c15.333 -0.666992 33 -1.16699 53 -1.5s42.333 -0.5 67 -0.5c23.333 0 51.666 0.166992 84.999 0.5
s72 0.833008 116 1.5s79.333 1.16699 106 1.5s45.334 0.5 56.001 0.5c21.333 0 32 -8 32 -24c0 -9.33301 -4 -20.333 -12 -33zM589 167c-22 2 -75.667 3.00098 -161 3.00098h-65.5c-23 0 -47.167 -0.333008 -72.5 -1s-48.833 -1 -70.5 -1h-58.5h-57c-21.333 0 -32 8 -32 24
c0 8.66699 4 18.667 12 30c15.333 -0.666992 33 -1.16699 53 -1.5s42.333 -0.5 67 -0.5c23.333 0 52 0.166992 86 0.5s73 0.833008 117 1.5s79.667 1.16699 107 1.5s46.333 0.5 57 0.5c20 0 30 -8 30 -24c0 -10.667 -4 -21.334 -12 -32.001v-1z" />
    <glyph glyph-name="greater" unicode="&#x3e;" horiz-adv-x="529" 
d="M435 313c-225.333 104.667 -367.333 166.667 -426 186c0 29.333 6.66699 44 20 44c6 0 22 -5 48 -15l45 -18c16.667 -6.66699 35.334 -14.667 56.001 -24l58.5 -26l52.5 -23l53 -24l60 -27l50.5 -22.5c12.333 -5.66699 20.166 -9.16699 23.499 -10.5
c14 -6 23 -13.333 27 -22c4 -9.33301 6 -23.333 6 -42c-40 -15.333 -124 -52.333 -252 -111c-128 -59.333 -201 -92.333 -219 -99c-16 6.66699 -24 17.667 -24 33c0 6.66699 4.66699 12.667 14 18c4.66699 2.66699 14 7.16699 28 13.5l56 24.5l324 144z" />
    <glyph glyph-name="question" unicode="?" horiz-adv-x="512" 
d="M317 237c0 -16.667 -6 -30 -18 -40s-26.333 -15 -43 -15c-22.667 0 -42 8.66699 -58 26c-16 16.667 -24 41.334 -24 74.001c0 28 7.66699 53.667 23 77c14.667 22.667 32.667 42.667 54 60l32 25.5l33 25.5c22 17.333 40.667 39 56 65c15.333 26.667 23 56 23 88
c0 45.333 -11.333 79.333 -34 102c-23.333 23.333 -55.333 35 -96 35c-39.333 0 -70.666 -10.333 -93.999 -31c-24 -21.333 -36 -50.333 -36 -87c0 -26 7.33301 -50.333 22 -73c-14.667 -12.667 -31.667 -19 -51 -19c-18 0 -33 6.66699 -45 20c-12 12.667 -18 30.667 -18 54
c0 48 23.333 86 70 114s102 42 166 42c59.333 0 108.666 -13 147.999 -39c38.667 -26 58 -63.667 58 -113c0 -32.667 -7 -61.334 -21 -86.001c-14.667 -26 -32 -45.667 -52 -59c-10.667 -7.33301 -21.5 -14.333 -32.5 -21l-34.5 -21c-12 -7.33301 -23.5 -14 -34.5 -20
l-32.5 -17c-20.667 -10.667 -38 -24.667 -52 -42s-21 -36.333 -21 -57c0 -22.667 7 -41 21 -55s31.667 -21 53 -21c14.667 0 27.667 3 39 9zM254 123c18.667 0 33.667 -5.99805 45 -17.998c11.333 -12.667 17 -27.334 17 -44.001c0 -19.333 -6 -35.333 -18 -48
s-28 -19 -48 -19c-19.333 0 -34.333 6 -45 18c-10.667 11.333 -16 25.666 -16 42.999c0 18.667 6 34.667 18 48s27.667 20 47 20z" />
    <glyph glyph-name="onehalf" unicode="@" horiz-adv-x="831" 
d="M544 215c0 -22 2.66699 -38.999 8 -50.999c5.33301 -11.333 15.333 -17 30 -17c36.667 0 66.667 21 90 63c22.667 41.333 34 95 34 161c0 79.333 -25 143 -75 191s-118.667 72 -206 72c-54 0 -105 -16 -153 -48s-86 -73.333 -114 -124
c-28 -51.333 -42 -103.666 -42 -156.999c0 -104.667 21.667 -186.667 65 -246s106.333 -89 189 -89c69.333 0 112.666 38.667 129.999 116c24 -3.33301 36 -16.333 36 -39c0 -26.667 -16.333 -49.334 -49 -68.001c-33.333 -19.333 -76.333 -29 -129 -29
c-89.333 0 -163.333 30 -222 90c-59.333 60.667 -89 141.334 -89 242.001c0 70.667 19 135 57 193s87.667 102.667 149 134s126.333 47 195 47c92 0 170 -26 234 -78s96 -118.333 96 -199c0 -76.667 -21 -137 -63 -181s-88.667 -66 -140 -66c-30.667 0 -53 7 -67 21
c-14 13.333 -22.333 33.666 -25 60.999c-10 -19.333 -25.333 -37.333 -46 -54s-46.667 -25 -78 -25c-34.667 0 -63 13 -85 39s-33 65.667 -33 119c0 59.333 15 106.666 45 141.999c30 34.667 71.333 52 124 52c16.667 0 35.667 -3 57 -9c20.667 -6 34.334 -9 41.001 -9
c10 0 21.667 5 35 15c2.66699 0 4 -12.333 4 -37zM383 171.001c36.667 0 68.667 16.667 96 50v152c0 63.333 -25.667 95 -77 95c-33.333 0 -58.333 -14.333 -75 -43c-17.333 -29.333 -26 -68.333 -26 -117c0 -90.667 27.667 -136 83 -136z" />
    <glyph glyph-name="A" unicode="A" horiz-adv-x="647" 
d="M560 -6c-30.667 0 -58.001 19.332 -82.001 57.999s-48 96.667 -72 174h-309c-26 -67.333 -39 -110.666 -39 -129.999c0 -30.667 8 -59 24 -85c-13.333 -11.333 -28.333 -17 -45 -17c-25.333 0 -38 13.333 -38 40c0 25.333 13 69 39 131l41 94l44 95
c15.333 32 30 64.667 44 98s27.667 68 41 104c26 70.667 39 125.667 39 165c0 3.33301 -0.166992 6.5 -0.5 9.5s-0.833008 6.16699 -1.5 9.5c5.33301 4.66699 15 7 29 7c25.333 0 49 -16.667 71 -50c11.333 -16.667 22 -36.167 32 -58.5s19.667 -47.5 29 -75.5l28.5 -86
l29.5 -90c10 -30.667 21.5 -62.167 34.5 -94.5s27.167 -65.5 42.5 -99.5c30.667 -68 65.334 -124.667 104.001 -170c-22.667 -18.667 -50 -28 -82 -28zM264.999 656.999c-4 -26.667 -14.002 -61 -30.002 -103s-40 -100 -72 -174l-38 -89.5
c-9.33301 -22.333 -15.666 -37.166 -18.999 -44.499h294c-9.33301 26.667 -23.333 72.667 -42 138c-9.33301 32.667 -18.333 62.5 -27 89.5l-24 73.5c-15.333 45.333 -29.666 81.666 -42.999 108.999z" />
    <glyph glyph-name="B" unicode="B" horiz-adv-x="597" 
d="M188 390v-204v-155c28.667 -11.333 62 -17 100 -17c54.667 0 99.667 17 135 51s53 82.667 53 146c0 68.667 -22 115.667 -66 141c-44.667 25.333 -119 38 -223 38h1zM190 412c72.667 0 129.667 14.667 171 44s62 73.333 62 132c0 44.667 -12.667 79.667 -38 105
s-63.333 38 -114 38c-36 0 -63.333 -4 -82 -12v-159v-150zM76 34c8.66699 16.667 12.999 128.668 12.999 336.001c0 225.333 -8.33301 341.333 -25 348c10.667 7.33301 37.667 14.666 81 21.999c21.333 3.33301 43 5.83301 65 7.5s44 2.5 66 2.5
c76 0 135.667 -13.667 179 -41s65 -66.333 65 -117c0 -49.333 -17 -89.333 -51 -120c-34 -31.333 -82.333 -52.333 -145 -63c169.333 -10 254 -73 254 -189c0 -75.333 -28.333 -131.333 -85 -168c-57.333 -37.333 -128.666 -56 -213.999 -56c-20.667 0 -40.834 1 -60.501 3
s-39.167 4.66699 -58.5 8c-37.333 6.66699 -64.666 15.667 -81.999 27h-2z" />
    <glyph glyph-name="C" unicode="C" horiz-adv-x="659" 
d="M386 29c50.667 0 97.667 10.9971 141 32.9971s77 46.667 101 74c2 0 3 -2 3 -6s-3.66699 -11.333 -11 -22c-7.33301 -10 -18.333 -22 -33 -36c-14.667 -13.333 -32.334 -26.333 -53.001 -39c-20 -12 -44.333 -22 -73 -30c-29.333 -8 -59.333 -12 -90 -12
c-106.667 0 -188.334 31 -245.001 93c-57.333 62.667 -86 151.334 -86 266.001c0 65.333 9.66699 124.333 29 177c19.333 52 45 93.667 77 125c32.667 31.333 68.667 55 108 71c40 16 82 24 126 24c82.667 0 145.667 -16 189 -48s65 -67.667 65 -107
c0 -19.333 -5 -33.333 -15 -42c-9.33301 -8.66699 -21 -13 -35 -13c-19.333 0 -35.666 5.33301 -48.999 16c3.33301 16.667 5 31.334 5 44.001c0 38.667 -14 70 -42 94s-67.333 36 -118 36c-69.333 0 -126 -27.333 -170 -82c-44 -55.333 -66 -145.666 -66 -270.999
c0 -105.333 20.667 -188.333 62 -249c40.667 -60 102.334 -90 185.001 -90z" />
    <glyph glyph-name="D" unicode="D" horiz-adv-x="713" 
d="M75 39c8.66699 14.667 13.001 110.667 13.001 288c0 242 -8.33301 368 -25 378c20.667 10.667 54.667 20.667 102 30c23.333 4.66699 47.166 8 71.499 10s49.166 3 74.499 3c240.667 0 361 -122.333 361 -367c0 -128 -33 -224.333 -99 -289
c-65.333 -64.667 -155.666 -97 -270.999 -97c-48.667 0 -94 5 -136 15c-41.333 10 -71.333 20.667 -90 32zM184.001 39c6.66699 -6 21.668 -12.002 45.001 -18.002c22.667 -6 47.667 -9 75 -9c80 0 145 29 195 87s75 150 75 276c0 233.333 -92.333 350 -277 350
c-46.667 0 -83.334 -4.33301 -110.001 -13c0 -33.333 -0.166992 -81.666 -0.5 -144.999s-0.833008 -142.666 -1.5 -237.999c-1.33301 -189.333 -2.33301 -286 -3 -290h2z" />
    <glyph glyph-name="E" unicode="E" horiz-adv-x="539" 
d="M454 740c38.667 0 57.999 -15.333 57.999 -46c0 -14.667 -3.66699 -25.667 -11 -33c-53.333 40 -158.333 60 -315 60v-334c122.667 0 209.667 6 261 18c2.66699 -4.66699 4 -10.667 4 -18c0 -16.667 -12 -25 -36 -25h-18c-8.66699 0 -20.334 0.333008 -35.001 1
s-30 1.16699 -46 1.5s-33 0.833008 -51 1.5s-33.5 1.16699 -46.5 1.5s-23.5 0.5 -31.5 0.5v-352c154.667 0 263.334 20.333 326.001 61c7.33301 -7.33301 11 -18.333 11 -33c0 -13.333 -4.33301 -24.333 -13 -33s-22.667 -13 -42 -13l-289 -1
c-49.333 0 -82.666 3.33301 -99.999 10c3.33301 42 5.83301 91 7.5 147s2.5 119.333 2.5 190c0 250.667 -8.66699 378 -26 382c12 12 47.333 18 106 18z" />
    <glyph glyph-name="F" unicode="F" horiz-adv-x="530" 
d="M89 413c0 204 -8.66797 307.999 -26.001 311.999c12 12 46 18 102 18h291c39.333 0 59 -15.333 59 -46c0 -15.333 -3.33301 -26.666 -10 -33.999c-29.333 20.667 -68.333 35.667 -117 45c-24.667 4.66699 -53.5 8.16699 -86.5 10.5s-70.5 3.5 -112.5 3.5v-100v-91v-140
c122.667 0 209.667 6 261 18c2.66699 -4.66699 4 -10.667 4 -18c0 -16.667 -12 -25 -36 -25c-7.33301 0 -43 1 -107 3s-104.667 3 -122 3c0.666992 -196 8.33398 -316 23.001 -360c-22.667 -12.667 -50.667 -19 -84 -19c-16 0 -27 5 -33 15s-9 30 -9 60
c0 6 0.166992 20 0.5 42s0.833008 52.333 1.5 91s1.16699 75.667 1.5 111s0.5 69.333 0.5 102z" />
    <glyph glyph-name="G" unicode="G" horiz-adv-x="683" 
d="M143 374c0 -119.333 20.001 -208.334 60.001 -267.001s96 -88 168 -88c61.333 0 109.333 20.333 144 61c35.333 41.333 53 92.666 53 153.999c0 38.667 -8 63.667 -24 75c-16 10.667 -49.333 12.667 -100 6c-3.33301 2.66699 1.66699 7.66699 15 15
c35.333 17.333 75.666 27.333 120.999 30h12c24 0 40.667 -9 50 -27c9.33301 -18.667 14 -46.667 14 -84c0 -45.333 -9 -85.333 -27 -120c-18 -35.333 -42 -62.333 -72 -81c-30 -19.333 -61 -33.333 -93 -42c-30.667 -8.66699 -63.334 -13 -98.001 -13
c-104.667 0 -185 32.667 -241 98c-56 64.667 -84 151.334 -84 260.001c0 126.667 32 224.667 96 294c64 68.667 145.333 103 244 103c78.667 0 140.667 -16 186 -48c44.667 -32 67 -68 67 -108c0 -17.333 -4.33301 -30.333 -13 -39c-9.33301 -9.33301 -20.333 -14 -33 -14
c-23.333 0 -41.666 5.33301 -54.999 16c12.667 44.667 4.66699 84.667 -24 120c-29.333 35.333 -72.333 53 -129 53c-69.333 0 -126 -27.333 -170 -82c-44 -55.333 -66 -145.666 -66 -270.999z" />
    <glyph glyph-name="H" unicode="H" horiz-adv-x="716" 
d="M143 749c18.667 0 30.666 -4.99805 35.999 -14.998c5.33301 -10.667 8 -35.667 8 -75v-59c0 -21.333 -0.333008 -44.333 -1 -69s-1 -45.667 -1 -63v-42v-66h344c0 234 -8 355.667 -24 365c5.33301 6 16 11.667 32 17c17.333 5.33301 33 8 47 8c18.667 0 30.667 -5 36 -15
c5.33301 -10.667 8 -35.667 8 -75v-123v-110c0 -234 8 -371.333 24 -412c-19.333 -12.667 -47.666 -19 -84.999 -19c-14.667 0 -25 5 -31 15s-9 28.667 -9 56v33c0 17.333 0.333008 41 1 71s1 59 1 87v82h-344c2.66699 -183.333 10.667 -292.333 24 -327
c-20.667 -12.667 -48.667 -19 -84 -19c-16 0 -27 5.33301 -33 16s-9 29.667 -9 57c0 3.33301 0.166992 13.666 0.5 30.999s0.833008 41.666 1.5 72.999s1.16699 62.333 1.5 93s0.5 62 0.5 94c0 230.667 -7.66699 352.667 -23 366c5.33301 6 16 11.667 32 17
c17.333 5.33301 33 8 47 8z" />
    <glyph glyph-name="I" unicode="I" horiz-adv-x="273" 
d="M140 749c20 0 32.334 -5.33496 37.001 -16.002c4.66699 -10 7 -41 7 -93v-111v-102c0 -235.333 8 -373.333 24 -414c-20.667 -12.667 -48.667 -19 -84 -19c-16.667 0 -27.667 5.66699 -33 17c-4.66699 10 -7 29 -7 57v30c0 17.333 0.333008 42.333 1 75
s1 64.334 1 95.001v90c0 224.667 -7.33301 346.667 -22 366c5.33301 6.66699 15.666 12.334 30.999 17.001c17.333 5.33301 33 8 47 8h-2z" />
    <glyph glyph-name="J" unicode="J" horiz-adv-x="418" 
d="M354 642l0.000976562 -215.001v-189c0 -90 -16.667 -153.333 -50 -190c-33.333 -36 -80.333 -54 -141 -54c-48 0 -86.667 11.333 -116 34c-30 22.667 -45 51.667 -45 87c0 22.667 6 39.667 18 51c12 10.667 25.333 15.667 40 15
c15.333 -1.33301 28.333 -6.66602 39 -15.999c-4.66699 -22.667 -7.66699 -45.334 -9 -68.001c-1.33301 -22 4.66699 -41 18 -57c12.667 -16 31.667 -24 57 -24c20.667 0 37 5 49 15c11.333 9.33301 20.666 31 27.999 65c7.33301 34.667 11 82.334 11 143.001
c0 316.667 -7.66699 478.667 -23 486c14.667 16 41.667 24 81 24c12 0 20.667 -2 26 -6s9.33301 -13.333 12 -28c2.66699 -13.333 4 -37.333 4 -72z" />
    <glyph glyph-name="K" unicode="K" horiz-adv-x="679" 
d="M138 748c18.667 0 30.668 -6.00488 36.001 -18.0049c4.66699 -11.333 7 -42.666 7 -93.999v-200v-59c92 42 165 88.333 219 139c54.667 50.667 82 98.667 82 144c0 26.667 -8.66699 48.667 -26 66c10 14 25.333 21 46 21c14.667 0 26.667 -5 36 -15
c8.66699 -9.33301 13 -22.666 13 -39.999c0 -45.333 -27 -94.333 -81 -147c-53.333 -52.667 -122 -100.667 -206 -144c25.333 -3.33301 50 -18.333 74 -45c12 -13.333 23.5 -27.833 34.5 -43.5s21.167 -32.5 30.5 -50.5l29 -54l30 -54
c19.333 -35.333 42.333 -65.666 69 -90.999c25.333 -24.667 53 -37 83 -37c22 0 42 4.33301 60 13c0.666992 -0.666992 1 -2 1 -4c0 -5.33301 -5 -12.333 -15 -21c-9.33301 -8 -25 -16.333 -47 -25c-21.333 -8 -44.333 -12 -69 -12c-38 0 -72 12 -102 36
c-30.667 24.667 -55.334 54.667 -74.001 90l-27.5 54l-27.5 54c-18 36 -38 68 -60 96c-22.667 28.667 -46 45.334 -70 50.001c0.666992 -186 8.33398 -301 23.001 -345c-20.667 -12.667 -47.667 -19 -81 -19c-16.667 0 -28 5 -34 15s-9 29 -9 57
c0 4.66699 0.166992 14.5 0.5 29.5s0.833008 35.167 1.5 60.5s1.16699 55 1.5 89s0.5 72 0.5 114c0 234 -7.33301 356 -22 366c5.33301 6.66699 15.666 12.334 30.999 17.001c17.333 5.33301 33 8 47 8z" />
    <glyph glyph-name="L" unicode="L" horiz-adv-x="524" 
d="M181 17c156 0 264.667 20.3301 326 60.9971c8 -7.33301 12 -18.666 12 -33.999c0 -13.333 -4.33301 -24.333 -13 -33s-23 -13 -43 -13l-295 -1c-46.667 0 -78 3.33301 -94 10c3.33301 38.667 6 85.834 8 141.501s3 120.5 3 194.5c0 238.667 -7.66699 365.667 -23 381
c5.33301 6 16 11.667 32 17c17.333 5.33301 33.333 8 48 8c18.667 0 30.667 -5 36 -15c4.66699 -9.33301 7 -34.666 7 -75.999z" />
    <glyph glyph-name="M" unicode="M" horiz-adv-x="903" 
d="M843 17c-20.667 -12.667 -47.6699 -19.002 -81.0029 -19.002c-16 0 -27.333 4 -34 12c-6.66699 7.33301 -10 25 -10 53v138c0 128.667 -0.5 234 -1.5 316s-2.16699 141.667 -3.5 179c-23.333 -20 -52.333 -80 -87 -180c-35.333 -100 -69.333 -208 -102 -324l-37.5 -133
c-8.33301 -30 -13.166 -46.667 -14.499 -50c-10.667 -6.66699 -23.667 -10 -39 -10c-25.333 0 -49.666 20.667 -72.999 62c-22.667 40.667 -43.667 92.334 -63 155.001l-28.5 94.5l-28.5 96.5c-9.33301 32.667 -19.333 64 -30 94s-22 59 -34 87
c-23.333 55.333 -48 92.666 -74 111.999c2 -41.333 4 -88.333 6 -141c1.33301 -26.667 2.33301 -50.167 3 -70.5s1.33398 -37.833 2.00098 -52.5s1.33398 -30.334 2.00098 -47.001s1.66699 -34.667 3 -54s2.33301 -36.166 3 -50.499s1.33398 -26.5 2.00098 -36.5
c0.666992 -20 1.66699 -43 3 -69c0.666992 -26 1.66699 -46 3 -60l2 -22c0.666992 -7.33301 1.66699 -15 3 -23c2 -16 4 -29 6 -39l3.5 -14.5c1 -4.33301 2.16699 -8.83301 3.5 -13.5c-16 -7.33301 -30 -11 -42 -11c-14.667 0 -24.667 6.66699 -30 20
c-4.66699 12 -7 36 -7 72c0 8.66699 0.333008 25.334 1 50.001s1.66699 57.667 3 99s2.33301 77.833 3 109.5s1 58.834 1 81.501c0 196 -4 296.667 -12 302c4.66699 4.66699 15.334 8.66699 32.001 12c8 1.33301 15.667 2.5 23 3.5s14.333 1.5 21 1.5c34 0 64 -17 90 -51
s48 -79 66 -135c9.33301 -28 18.166 -56.167 26.499 -84.5s16.166 -57.5 23.499 -87.5c14.667 -59.333 31.667 -119.333 51 -180c18.667 -60.667 38.667 -107 60 -139l54 189c55.333 191.333 94.666 313.666 117.999 366.999c32.667 72.667 68.667 112.667 108 120
c3.33301 0.666992 8.33301 1 15 1c12.667 0 26.667 -2 42 -6c14.667 -4 24.667 -8 30 -12c-7.33301 -23.333 -11 -104.666 -11 -243.999c0 -233.333 8.66699 -390.333 26 -471z" />
    <glyph glyph-name="N" unicode="N" horiz-adv-x="731" 
d="M573 725c0.666992 4.66699 6.33105 9.66797 16.998 15.001s21.334 8 32.001 8c28.667 0 43 -19.667 43 -59c0 -192 -1.33301 -345 -4 -459s-6.66699 -189.333 -12 -226c-10.667 -7.33301 -25.667 -11 -45 -11c-32.667 0 -69.667 22.667 -111 68s-81 101 -119 167
l-56.5 99.5l-53.5 100.5l-50.5 95.5l-47.5 83.5c-30 52 -52.667 82 -68 90c15.333 -350.667 26.333 -556.334 33 -617.001c2 -15.333 4.16699 -29.333 6.5 -42s4.83301 -23.667 7.5 -33c-14 -6.66699 -28 -10 -42 -10s-23 6 -27 18s-6 33.333 -6 64c0 21.333 1 74 3 158
s3 160 3 228c0 17.333 -0.333008 39 -1 65s-1.66699 56.333 -3 91c-3.33301 68.667 -6.66602 105 -9.99902 109c14.667 12.667 41.334 19 80.001 19c27.333 0 55 -16.333 83 -49c28.667 -33.333 56.667 -76.666 84 -129.999l42.5 -83.5l43.5 -87.5
c28.667 -58.667 64.667 -121 108 -187s87.666 -120 132.999 -162c2 80.667 3 168.667 3 264c0 205.333 -21 343.666 -63 414.999z" />
    <glyph glyph-name="O" unicode="O" 
d="M379 728c-81.333 0 -141.001 -33 -179.001 -99s-57 -153.667 -57 -263c0 -108.667 21.667 -194.667 65 -258c42.667 -62.667 101.667 -94 177 -94c158.667 0 238 118.667 238 356c0 108 -20.333 194.667 -61 260c-41.333 66 -101.666 99 -180.999 99zM378.999 -7
c-104 0 -186.333 30.001 -247 90.001s-91 147.667 -91 263c0 116.667 30.667 212.667 92 288s143.333 113 246 113c106.667 0 190.667 -31 252 -93c61.333 -62.667 92 -151.334 92 -266.001c0 -118.667 -31 -214 -93 -286s-145.333 -108 -250 -108z" />
    <glyph glyph-name="P" unicode="P" horiz-adv-x="554" 
d="M182 721c-0.666992 -21.333 -1 -48.501 -1 -81.501v-117.5c0 -297.333 8 -467.333 24 -510c-20.667 -12.667 -48.334 -19 -83.001 -19c-15.333 0 -26 5.66699 -32 17c-6 10.667 -9 32.667 -9 66c0 6.66699 0.166992 20.667 0.5 42s0.833008 50.333 1.5 87
s1.16699 72.167 1.5 106.5s0.5 67.833 0.5 100.5c0 190 -7.66699 293.333 -23 310c11.333 7.33301 39.666 14.333 84.999 21c23.333 3.33301 46.333 6 69 8s45.667 3 69 3c177.333 0 266 -59.667 266 -179c0 -68 -26 -123 -78 -165s-114.667 -63 -188 -63
c-30 0 -45 3.33301 -45 10c60.667 0 111.334 18.667 152.001 56c40 36.667 60 87.334 60 152.001c0 63.333 -14.333 107.333 -43 132c-29.333 25.333 -70.666 38 -123.999 38s-86.333 -4.33301 -99 -13z" />
    <glyph glyph-name="Q" unicode="Q" 
d="M134 -132c0 22.667 9.99414 42.999 29.9941 60.999c20.667 18.667 43.334 32.334 68.001 41.001c12.667 4.66699 26 8.83398 40 12.501s28.667 7.16699 44 10.5c-87.333 10.667 -155.333 45.667 -204 105c-48.667 58.667 -73 139.667 -73 243
c0 116.667 30.667 212.667 92 288s143.333 113 246 113c106.667 0 190.667 -31 252 -93c61.333 -62.667 92 -151.334 92 -266.001c0 -119.333 -30.333 -214.333 -91 -285c-61.333 -71.333 -143.666 -107.333 -246.999 -108c-36 -4 -74.333 -14.333 -115 -31
c-42 -17.333 -63 -38.333 -63 -63c18 2 37.667 3 59 3c38.667 0 84.667 -6 138 -18c52.667 -12 88.334 -18 107.001 -18c33.333 0 59 10 77 30s28 44.333 30 73c16.667 -2.66699 30 -8.66699 40 -18s15 -20.333 15 -33c0 -22.667 -12.333 -43 -37 -61
c-25.333 -18 -58.666 -27 -99.999 -27c-38 0 -86.667 9.66699 -146 29s-109.666 29 -150.999 29c-14 0 -29.167 -1 -45.5 -3s-34.166 -4.66699 -53.499 -8zM374.994 721.999c-81.333 0 -141.001 -33 -179.001 -99s-57 -153.667 -57 -263c0 -108.667 21.667 -194.667 65 -258
c42.667 -62.667 101.667 -94 177 -94c158.667 0 238 118.667 238 356c0 108 -20.333 194.667 -61 260c-41.333 66 -101.666 99 -180.999 99z" />
    <glyph glyph-name="R" unicode="R" horiz-adv-x="699" 
d="M184 723c-0.666992 -21.333 -1.00195 -47.6709 -1.00195 -79.0039v-110c0 -304 8 -477 24 -519c-21.333 -12.667 -48.333 -19 -81 -19c-18 0 -30 5.66699 -36 17c-6 10.667 -9 33.667 -9 69c0 5.33301 0.166992 18.5 0.5 39.5s0.833008 49.5 1.5 85.5
s1.16699 71.167 1.5 105.5s0.5 67.833 0.5 100.5c0 62.667 -2 127.667 -6 195c-4 66.667 -9.66699 104.334 -17 113.001c11.333 8.66699 40 16.334 86 23.001c23.333 3.33301 46 6 68 8s43.667 3 65 3c180 0 270 -59.333 270 -178c0 -55.333 -17 -101.333 -51 -138
c-34 -37.333 -78.333 -62.333 -133 -75c16.667 -9.33301 33.334 -27.333 50.001 -54c16.667 -27.333 32.667 -56.333 48 -87c14.667 -31.333 30.667 -61.333 48 -90c16.667 -28.667 36 -53 58 -73s45.333 -30 70 -30c18 0 36 4.33301 54 13c0.666992 -0.666992 1 -2 1 -4
c0 -6 -5 -13.333 -15 -22c-10 -9.33301 -25.333 -17.333 -46 -24c-22 -7.33301 -44 -11 -66 -11c-32 0 -61 11 -87 33s-48 50 -66 84l-26.5 51.5l-24.5 51.5c-16 36 -33.333 68.333 -52 97c-19.333 30.667 -38.333 50.334 -57 59.001c-7.33301 1.33301 -11 3.33301 -11 6
c61.333 0 111.333 17.667 150 53c38 34.667 57 84.334 57 149.001c0 62.667 -15 106.667 -45 132c-29.333 24.667 -71.666 37 -126.999 37c-50 0 -81.333 -4.33301 -94 -13z" />
    <glyph glyph-name="S" unicode="S" horiz-adv-x="628" 
d="M469 172c0 29.333 -7.33887 55.3311 -22.0059 77.998c-15.333 23.333 -34.666 42.333 -57.999 57c-24.667 15.333 -51 29.333 -79 42l-86 39c-28 12.667 -54.333 26.667 -79 42c-23.333 14.667 -42.666 33.667 -57.999 57c-14.667 22.667 -22 49.334 -22 80.001
c0 53.333 22.667 96.666 68 129.999c44.667 32.667 106.667 49 186 49c69.333 0 126 -15 170 -45s66 -66.333 66 -109c0 -20.667 -6 -36 -18 -46s-25 -15 -39 -15c-17.333 0 -32.666 5.66699 -45.999 17c2 60.667 -8 105.667 -30 135c-22 28.667 -58.333 43 -109 43
c-42 0 -75.333 -12 -100 -36s-37 -56.333 -37 -97c0 -26.667 10 -51 30 -73s45 -40 75 -54l47 -22l50 -24l50 -25.5l47 -25.5c30 -17.333 55 -40.333 75 -69c20 -29.333 30 -62.333 30 -99c0 -62.667 -26.333 -113 -79 -151c-53.333 -38 -119.666 -57 -198.999 -57
c-80.667 0 -144 17 -190 51s-69 72.333 -69 115c0 30.667 6.66699 53.667 20 69c12.667 14.667 28.334 22 47.001 22c20.667 0 37.667 -6.66699 51 -20c-8.66699 -25.333 -13 -48.666 -13 -69.999c0 -43.333 14 -78.333 42 -105c28.667 -27.333 66.334 -41 113.001 -41
c44.667 0 83.667 14.667 117 44c32.667 28.667 49 67.334 49 116.001v-2z" />
    <glyph glyph-name="T" unicode="T" horiz-adv-x="506" 
d="M192 63c0 5.33301 0.166016 17.4971 0.499023 36.4971s0.833008 45.167 1.5 78.5s1.16699 64.833 1.5 94.5s0.5 58.167 0.5 85.5c0 210 -2 331.667 -6 365c-46.667 -0.666992 -83 -4.66699 -109 -12s-48.667 -22 -68 -44c-10 6.66699 -15 18 -15 34
c0 12.667 3.33301 23.334 10 32.001c7.33301 9.33301 16.666 14 27.999 14l78 -3c26.667 -1.33301 51.167 -2.33301 73.5 -3s42.833 -1 61.5 -1c36.667 0 81.667 1 135 3c52.667 2 81.334 3 86.001 3c20.667 0 31 -9.33301 31 -28c0 -21.333 -8.66699 -39.666 -26 -54.999
c-20.667 21.333 -42.667 36 -66 44c-25.333 8.66699 -62.666 13.334 -111.999 14.001v-84v-107v-104c1.33301 -219.333 9.33301 -357 24 -413c-20.667 -12.667 -48.667 -19 -84 -19c-14.667 0 -25 5 -31 15s-9 28.667 -9 56z" />
    <glyph glyph-name="U" unicode="U" horiz-adv-x="660" 
d="M193 634v-186v-169c0 -96.667 13 -165.334 39 -206.001c26 -41.333 71.667 -62 137 -62c64 0 112.667 24.667 146 74s50 119.333 50 210c0 37.333 -3 97 -9 179s-9 139.667 -9 173s3 58 9 74s17.333 24 34 24c9.33301 0 18 -2 26 -6
c-15.333 -40.667 -23 -111.667 -23 -213v-32.5c0 -13 0.333008 -28.167 1 -45.5s1 -32.833 1 -46.5v-34.5c0 -52.667 -2 -97 -6 -133c-4 -37.333 -11.333 -71.666 -22 -102.999c-11.333 -33.333 -26.333 -59.333 -45 -78c-19.333 -19.333 -44.333 -34.333 -75 -45
c-30 -10.667 -67.333 -16 -112 -16c-41.333 0 -76.333 5 -105 15c-29.333 10 -52.333 23.333 -69 40s-30 39 -40 67c-9.33301 26.667 -15.666 54.667 -18.999 84c-1.33301 14 -2.33301 29.5 -3 46.5s-1 35.833 -1 56.5c0 276.667 -11.667 417.667 -35 423
c5.33301 6 16 11.667 32 17c17.333 5.33301 34.666 8 51.999 8c21.333 0 35 -6.33301 41 -19c6 -13.333 9 -44.333 9 -93z" />
    <glyph glyph-name="V" unicode="V" horiz-adv-x="642" 
d="M383 4c-9.33301 -5.33301 -19.333 -7.99902 -30 -7.99902c-24.667 0 -48 18 -70 54s-42 83 -60 141l-28 89l-28 93c-19.333 62.667 -43.333 126.667 -72 192c-29.333 64.667 -60.333 116.667 -93 156c22.667 18.667 49.667 28 81 28c26 0 49 -13.333 69 -40
c19.333 -26 36.666 -64 51.999 -114s29.333 -101.333 42 -154s29.667 -114 51 -184c20.667 -68 43.667 -128.333 69 -181c8.66699 46 25.334 99.667 50.001 161c23.333 58.667 47.333 111 72 157c12 22.667 23.333 45.667 34 69s20.667 47 30 71
c18.667 47.333 28 86.666 28 117.999c0 30.667 -7.66699 57.667 -23 81c10 10 24.333 15 43 15c26 0 39 -12 39 -36c0 -24.667 -13.333 -68.667 -40 -132c-13.333 -32 -27.5 -64.167 -42.5 -96.5l-46.5 -98.5l-46.5 -100.5c-15 -33.667 -29.167 -68.167 -42.5 -103.5
c-26.667 -69.333 -40 -122 -40 -158c0 -2.66699 0.166992 -5.66699 0.5 -9s0.833008 -7 1.5 -11v1z" />
    <glyph glyph-name="W" unicode="W" horiz-adv-x="1036" 
d="M814 -5c-9.33301 -5.33301 -19.334 -8.00195 -30.001 -8.00195c-32.667 0 -62 30.667 -88 92c-25.333 59.333 -52.666 143.666 -81.999 252.999c-28.667 107.333 -54.667 187.666 -78 240.999c-8 -21.333 -32 -80.333 -72 -177l-52.5 -131.5
c-15 -39 -27.5 -73.5 -37.5 -103.5c-20 -60 -30 -107.333 -30 -142c0 -2.66699 0.166992 -5.66699 0.5 -9s0.833008 -7.33301 1.5 -12c-10.667 -5.33301 -20.334 -8 -29.001 -8c-24.667 0 -47 19 -67 57s-38 87 -54 147l-48 186c-16 64.667 -37 128.334 -63 191.001
c-26 63.333 -55 112 -87 146c16 18.667 43 28 81 28c27.333 0 49.333 -13.333 66 -40c17.333 -28 32 -66 44 -114c12 -50 23 -101.333 33 -154c5.33301 -27.333 11.5 -56.166 18.5 -86.499s15.167 -62.5 24.5 -96.5c18.667 -68 40.667 -128 66 -180
c9.33301 58.667 27.333 124.334 54 197.001l72 198c21.333 60 32 107.667 32 143c0 41.333 -14 77 -42 107l1 1c22 18 49.667 27 83 27c28 0 51 -13 69 -39c18.667 -26.667 34.334 -63.667 47.001 -111c13.333 -49.333 25.333 -99.666 36 -150.999
c5.33301 -26.667 12 -55.167 20 -85.5l27 -98.5c10 -35.333 21 -68.333 33 -99s24.667 -60 38 -88c6.66699 54.667 24.667 119.667 54 195l81 210c25.333 66 38 118.667 38 158c0 32.667 -7.66699 63.334 -23 92.001c10 10 24.333 15 43 15c25.333 0 38 -12.667 38 -38
c0 -32 -18 -93.333 -54 -184l-54 -138.5l-54 -141.5c-36 -96 -54 -167.333 -54 -214c0 -10.667 0.666992 -19.334 2 -26.001z" />
    <glyph glyph-name="X" unicode="X" horiz-adv-x="707" 
d="M700 30c-18 -24.667 -52.001 -36.9971 -102.001 -36.9971c-18 0 -36.333 6.33301 -55 19s-36 28 -52 46s-34 43 -54 75c-20.667 33.333 -37.334 62 -50.001 86l-51 99l-54 -75c-18.667 -26.667 -37.667 -55.334 -57 -86.001c-39.333 -61.333 -68.333 -104.333 -87 -129
c-19.333 -25.333 -37 -38 -53 -38c-26.667 0 -43.667 9.66699 -51 29c12 7.33301 25.333 16.666 40 27.999l21 18c6.66699 6 13 12 19 18l21 22l27 30c20 22.667 36 41.667 48 57l23.5 29l34.5 43c26.667 32.667 47.667 57.667 63 75l-27.5 53.5
c-7.66699 15 -14.167 27.167 -19.5 36.5l-45 81l-27 45.5c-8 13 -15.333 23.833 -22 32.5l-21 27c-7.33301 9.33301 -15.666 19.333 -24.999 30c-18.667 21.333 -35.667 36 -51 44c-16 8 -32 12 -48 12c-14.667 0 -28.667 -2.33301 -42 -7c-1.33301 1.33301 -2 2.33301 -2 3
c0 9.33301 16 20 48 32s63.333 18 94 18c18.667 0 38 -6 58 -18c20.667 -12.667 38.667 -27 54 -43c16 -17.333 34 -41.333 54 -72c20.667 -32.667 37.334 -60.334 50.001 -83.001l51 -96c70.667 87.333 106 160.666 106 219.999c0 28.667 -8.66699 51.667 -26 69
c12.667 16 34.667 24 66 24c36 0 54 -17 54 -51c0 -50 -63.667 -143.667 -191 -281l30 -57.5l22 -41.5c6 -11.333 13.167 -24.166 21.5 -38.499l29.5 -49.5c22 -37.333 41 -66.333 57 -87c15.333 -20 35 -41 59 -63s46.333 -37.667 67 -47z" />
    <glyph glyph-name="Y" unicode="Y" horiz-adv-x="623" 
d="M306 367c-4 7.33301 -8.49902 16.165 -13.499 26.498l-17.5 35.5l-17.5 34.5l-12.5 24.5c-7.33301 12.667 -16.333 29.667 -27 51l-27 48l-11 18c-4 6.66699 -8.66699 13.667 -14 21c-9.33301 14 -18.333 25.333 -27 34c-8 8 -17 16 -27 24
c-9.33301 7.33301 -18.666 12.666 -27.999 15.999c-10 3.33301 -19.667 5 -29 5c-16.667 0 -33 -2.33301 -49 -7c-2.66699 0.666992 -4 2.66699 -4 6c0 9.33301 16.667 19 50 29c32.667 10 62.667 15 90 15c11.333 0 21.333 -1.33301 30 -4
c10.667 -3.33301 20.667 -8.66602 30 -15.999c5.33301 -4 10.166 -7.83301 14.499 -11.5l12.5 -10.5c8 -7.33301 17 -18.333 27 -33c5.33301 -7.33301 10.166 -14.333 14.499 -21l11.5 -18l27 -48c10.667 -21.333 19.667 -38.333 27 -51l12.5 -24l18.5 -34l19 -34.5
c5.33301 -9.66699 9.66602 -18.167 12.999 -25.5c50 60 87 109.667 111 149c23.333 38.667 35 70.334 35 95.001c0 27.333 -6.33301 48.333 -19 63c10 12.667 25.667 19 47 19c32.667 0 49 -15 49 -45c0 -57.333 -73.333 -157.333 -220 -300c0 -194 8.33301 -322 25 -384
c-20.667 -12.667 -48.667 -19 -84 -19c-16.667 0 -28 6.33301 -34 19c-5.33301 12 -8.66602 39.333 -9.99902 82c0 6 0.166992 17.667 0.5 35s0.833008 41 1.5 71s1.16699 58.333 1.5 85s0.5 52.334 0.5 77.001z" />
    <glyph glyph-name="Z" unicode="Z" horiz-adv-x="587" 
d="M560 78c7.33301 -11.333 11.3311 -22.667 11.998 -34c0.666992 -12 -4 -23 -14 -33s-25.333 -15 -46 -15h-482c-12.667 0 -19 5.33301 -19 16c0 19.333 20.667 61.333 62 126l65.5 97.5l72.5 101.5l75.5 105.5c25 35.667 49.5 72.5 73.5 110.5
c48.667 76 78.334 132.667 89.001 170c-62.667 0 -116 -0.833008 -160 -2.5s-78.667 -4.16699 -104 -7.5c-51.333 -7.33301 -97.333 -24.333 -138 -51c-16 18 -19.333 36 -10 54c8.66699 18 28.334 27 59.001 27h442c20.667 0 31 -7.66699 31 -23
c0 -24 -30.333 -80.333 -91 -169l-204 -294c-75.333 -107.333 -124.333 -187.333 -147 -240c65.333 0 121.333 1 168 3s85 4.66699 115 8c58.667 6.66699 108.667 23.667 150 51v-1z" />
    <glyph glyph-name="bracketleft" unicode="[" horiz-adv-x="277" 
d="M35 786h48h87h42c0 -12 -29.333 -18 -88 -18v-1052c58.667 0 88 -6 88 -18h-177v1088z" />
    <glyph glyph-name="onesuperior" unicode="\" horiz-adv-x="358" 
d="M358 66c0 -22 -5.66699 -39.332 -17 -51.999c-11.333 -12 -26.333 -18 -45 -18c-26 0 -43.333 8.33301 -52 25c25.333 19.333 38 46.666 38 81.999c0 36 -9.33301 73.667 -28 113c-19.333 40.667 -42.333 78.334 -69 113.001l-81 102
c-27.333 32.667 -50.333 65.667 -69 99c-18.667 32.667 -28 61 -28 85c0 18.667 6 33.667 18 45c11.333 10.667 26.333 16 45 16c20.667 0 37 -6.66699 49 -20c-19.333 -23.333 -29 -50.333 -29 -81c0 -32 9 -66 27 -102c18.667 -36.667 40.667 -71.334 66 -104.001l78 -99
c26 -33.333 48 -67.333 66 -102c18 -35.333 27 -68 27 -98z" />
    <glyph glyph-name="bracketright" unicode="]" horiz-adv-x="277" 
d="M228 -303h-177c0 12 29.333 18 88 18v1052c-58.667 0 -88 6 -88 18h43h86h48v-1088z" />
    <glyph glyph-name="threesuperior" unicode="^" horiz-adv-x="367" 
d="M181 644c-79.333 -70 -127.334 -105 -144.001 -105c-9.33301 0 -15.333 3 -18 9c72.667 64.667 126.667 118.667 162 162c38.667 -47.333 93.667 -101.333 165 -162c-5.33301 -6 -11.666 -9 -18.999 -9c-17.333 0 -65.333 35 -144 105h-2z" />
    <glyph glyph-name="underscore" unicode="_" horiz-adv-x="527" 
d="M496 -11c-7.33301 1.33301 -18.833 2.16699 -34.5 2.5s-35.5 0.833008 -59.5 1.5c-48 0.666992 -96 0.666992 -144 0c-24 -0.666992 -47.833 -1.16699 -71.5 -1.5s-47.167 -0.833008 -70.5 -1.5s-41.333 -1 -54 -1h-21c-14.667 0 -23.667 5.66699 -27 17
c-2.66699 10.667 1 23.667 11 39c22 -0.666992 44 -1 66 -1h65c21.333 0 47 0.166992 77 0.5s64 0.833008 102 1.5s69.167 1 93.5 1h53.5c14.667 0 23.667 -6 27 -18c3.33301 -12.667 0 -25.667 -10 -39z" />
    <glyph glyph-name="_96" unicode="`" horiz-adv-x="300" 
d="M314 604c-2 -2.66699 -6.66699 -4 -14 -4c-30.667 0 -72 18 -124 54s-78 71 -78 105c0 13.333 3.66699 23 11 29c6.66699 6 15.667 9 27 9c12 0 22.667 -3.66699 32 -11c18 -85.333 66.333 -146.333 145 -183z" />
    <glyph glyph-name="a" unicode="a" horiz-adv-x="565" 
d="M542 65c1.33301 0 1.99902 -0.998047 1.99902 -2.99805c0 -10.667 -15 -23.334 -45 -38.001c-30.667 -15.333 -58.667 -23 -84 -23c-23.333 0 -38.666 8.66699 -45.999 26c-6.66699 16 -10 47 -10 93c-20.667 -36.667 -48.334 -66.667 -83.001 -90
c-33.333 -22.667 -69.666 -34 -108.999 -34c-38 0 -69 10 -93 30s-36 48.667 -36 86c0 99.333 106.667 158.666 320 177.999v115c0 45.333 -7 77 -21 95s-37.333 27 -70 27c-29.333 0 -54.333 -7 -75 -21s-31 -33.333 -31 -58c0 -24 7.33301 -44.667 22 -62
c-14.667 -16.667 -35.667 -25 -63 -25c-17.333 0 -31.333 5 -42 15c-11.333 10 -17 24.667 -17 44c0 28 12 52 36 72s52 34 84 42s66 12 102 12c58.667 0 102.667 -12 132 -36s44 -69.667 44 -137v-262c0 -24 2 -40 6 -48s12 -12 24 -12c16 0 33.667 4.33301 53 13v1z
M218.999 63.002c53.333 0 99.666 26.001 138.999 78.001v130c-69.333 -7.33301 -122.333 -22.333 -159 -45s-55 -51.667 -55 -87c0 -22.667 6.66699 -41.334 20 -56.001c12.667 -14 31.334 -21 56.001 -21z" />
    <glyph glyph-name="b" unicode="b" horiz-adv-x="632" 
d="M190 426c18.667 34.667 45.335 63.666 80.002 86.999c33.333 22.667 71.666 34 114.999 34c57.333 0 104 -21 140 -63s54 -103.333 54 -184c0 -98.667 -26 -174 -78 -226s-114.333 -78 -187 -78c-30 0 -62 5 -96 15s-55.667 15 -65 15c-18.667 0 -36 -8 -52 -24
c-3.33301 0 -5.33301 3 -6 9c-0.666992 3.33301 -1 9.33301 -1 18v35v600c0 32 -3 53 -9 63s-18.333 15 -37 15c-14.667 0 -29.334 -1.66699 -44.001 -5c-0.666992 0.666992 -1 1.66699 -1 3c0 6.66699 15.667 14.667 47 24c32 9.33301 62 14 90 14
c22.667 0 37.667 -6 45 -18c6.66699 -11.333 10 -36.666 10 -75.999v-135v-124zM189.001 155.999c0 -46.667 11.666 -81 34.999 -103c22.667 -22 52.334 -33 89.001 -33c50.667 0 90.667 22.667 120 68s44 108.333 44 189c0 141.333 -45 212 -135 212
c-27.333 0 -54.333 -7.33301 -81 -22s-50 -36.667 -70 -66z" />
    <glyph glyph-name="c" unicode="c" horiz-adv-x="523" 
d="M297 541c51.333 0 96.667 -11 136 -33c38.667 -22 58 -51.333 58 -88c0 -20.667 -5.33301 -35.334 -16 -44.001c-11.333 -9.33301 -23.333 -14 -36 -14c-17.333 0 -30.333 4.33301 -39 13c3.33301 18.667 5 32.667 5 42c0 35.333 -11 62 -33 80s-49 27 -81 27
c-43.333 0 -78 -21.667 -104 -65s-39 -102 -39 -176c0 -85.333 15 -149 45 -191s71 -63 123 -63c37.333 0 72 9 104 27s54.667 35.667 68 53c2 0 3 -1.33301 3 -4c0 -9.33301 -8 -22.333 -24 -39s-40.333 -33 -73 -49c-33.333 -16 -69.333 -24 -108 -24
c-30.667 0 -59 4 -85 12c-25.333 8 -50.333 21.667 -75 41c-24 18.667 -43 46.667 -57 84c-14 36.667 -21 81.334 -21 134.001c0 87.333 22.667 156.333 68 207c44.667 50 104.667 75 180 75z" />
    <glyph glyph-name="d" unicode="d" horiz-adv-x="628" 
d="M434 353c0 67.333 -10.334 112.333 -31.001 135c-21.333 23.333 -52.666 35 -93.999 35c-49.333 0 -88.333 -23 -117 -69c-28.667 -45.333 -43 -107.333 -43 -186c0 -144.667 45.333 -217 136 -217c60.667 0 111 29.333 151 88zM432.999 110
c-18.667 -34.667 -44.668 -63.999 -78.001 -87.999s-71.666 -36 -114.999 -36c-55.333 0 -101.333 20 -138 60c-36.667 39.333 -55 101.333 -55 186c0 88.667 22 161.667 66 219s108.667 86 194 86c52 0 94.667 -10.667 128 -32v156c0 30.667 -3 50.667 -9 60
s-17.333 14 -34 14c-20 0 -36 -1.66699 -48 -5c-0.666992 0.666992 -1 1.66699 -1 3c0 4 6.33301 9 19 15c12 5.33301 29.333 10.666 52 15.999c23.333 5.33301 45.333 8 66 8c22.667 0 37.667 -4.66699 45 -14c6.66699 -8.66699 10 -28.667 10 -60l-1 -588
c0 -25.333 2 -42.333 6 -51s12 -13 24 -13c14 0 32.333 4.66699 55 14c1.33301 -1.33301 2 -2.33301 2 -3c0 -9.33301 -16 -21.333 -48 -36c-32.667 -15.333 -60.667 -23 -84 -23s-38.333 8.33301 -45 25c-6.66699 16 -10 46 -10 90z" />
    <glyph glyph-name="e" unicode="e" horiz-adv-x="532" 
d="M149 309c-0.666992 -3.33301 -1 -7.33594 -1 -12.0029v-15c0 -42.667 5.66699 -82.667 17 -120c10.667 -35.333 29.334 -65.333 56.001 -90c26 -24 58.333 -36 97 -36c37.333 0 72.333 9.33301 105 28s56 36 70 52c1.33301 0 2 -1.33301 2 -4c0 -10 -8 -23.333 -24 -40
c-15.333 -16.667 -40.333 -33 -75 -49c-34 -16 -71.333 -24 -112 -24c-76.667 0 -134.334 24 -173.001 72c-39.333 48.667 -59 115.334 -59 200.001c0 80.667 21.667 147.334 65 200.001c42.667 52 104.667 78 186 78c63.333 0 111.333 -15.333 144 -46
c33.333 -31.333 50 -69.333 50 -114c0 -16 -2.33301 -29 -7 -39c-4.66699 -10.667 -10.667 -19 -18 -25c-6.66699 -5.33301 -16 -9.66602 -28 -12.999s-22.333 -5.33301 -31 -6c-4.66699 -0.666992 -10 -1 -16 -1h-20zM404 395.997c0 40.667 -9.33301 73.333 -28 98
c-19.333 25.333 -47.333 38 -84 38c-45.333 0 -80 -19.333 -104 -58c-24 -39.333 -37 -87.333 -39 -144h98h90c25.333 0 43.333 4.66699 54 14c10 8.66699 15 25.667 15 51z" />
    <glyph glyph-name="f" unicode="f" horiz-adv-x="361" 
d="M201 13c-23.333 -10 -51.334 -15.0039 -84.001 -15.0039c-15.333 0 -25 4 -29 12s-6 24.333 -6 49l1 324v128c-36.667 -2 -59.667 -6.33301 -69 -13c-4.66699 6.66699 -7 13.334 -7 20.001c0 11.333 11.667 17 35 17c8.66699 0 16.5 -0.166992 23.5 -0.5
s13.167 -0.833008 18.5 -1.5v69c0 60.667 14 105.667 42 135s70.333 44 127 44c51.333 0 90.333 -10.333 117 -31c27.333 -21.333 41 -47.666 41 -78.999c0 -19.333 -5 -34.333 -15 -45s-22.667 -16 -38 -16c-14.667 0 -26.667 3.66699 -36 11c4 16.667 6 33 6 49
c0 60 -24.667 90 -74 90c-25.333 0 -43.333 -10 -54 -30c-10.667 -19.333 -16 -54.333 -16 -105v-100c48 0.666992 88 6.33398 120 17.001c2.66699 -4.66699 4 -10.667 4 -18c0 -9.33301 -3 -15.333 -9 -18c-6.66699 -3.33301 -17 -5 -31 -5
c-4.66699 0 -11 0.166992 -19 0.5s-17.667 0.833008 -29 1.5l-26 1.5c-6 0.333008 -9.33301 0.5 -10 0.5c0 -159.333 1 -269.333 3 -330c1.33301 -30.667 3.33301 -59.667 6 -87s6.33398 -53.666 11.001 -78.999z" />
    <glyph glyph-name="g" unicode="g" horiz-adv-x="589" 
d="M127 199c-28.667 13.333 -50.333 33.3311 -65 59.998c-15.333 27.333 -23 58.333 -23 93c0 56.667 20.333 102.334 61 137.001c41.333 35.333 100.333 53 177 53c58.667 0 106.667 -11 144 -33v1c5.33301 18 16 33.667 32 47c16.667 13.333 36 20 58 20
c20 0 36 -5 48 -15s18 -22 18 -36c0 -20 -9.66699 -35.667 -29 -47c-5.33301 12.667 -13.333 23.667 -24 33c-10.667 8.66699 -23.667 13 -39 13c-16.667 0 -33 -8 -49 -24c41.333 -30 62 -73 62 -129c0 -59.333 -21 -106.333 -63 -141c-41.333 -34.667 -95 -52 -161 -52
c-33.333 0 -75.333 6 -126 18c-18.667 -20.667 -28 -36.667 -28 -48c0 -21.333 14 -36.333 42 -45c28 -9.33301 62 -15.333 102 -18c40 -3.33301 80 -8.33301 120 -15c40 -7.33301 74 -23.333 102 -48c28 -25.333 42 -60.333 42 -105c0 -66 -26.333 -117.333 -79 -154
s-118.667 -55 -198 -55c-70 0 -128.333 15.667 -175 47c-46 30.667 -69 69.667 -69 117c0 26.667 7.66699 48.334 23 65.001c14.667 16 32.667 24 54 24c16.667 0 29.667 -5 39 -15c-18 -21.333 -27 -46.333 -27 -75c0 -43.333 15 -78 45 -104s72.333 -39 127 -39
c50 0 92.667 13 128 39s53 62 53 108c0 34.667 -13.667 61.667 -41 81c-26.667 18.667 -59.667 31 -99 37s-78.333 11 -117 15c-39.333 4 -72.333 12 -99 24c-27.333 12 -41 30.667 -41 56c0 35.333 26.667 74 80 116zM268.001 519.998
c-37.333 0 -68.332 -14.334 -92.999 -43.001s-37 -67.667 -37 -117c0 -46 11.667 -85.333 35 -118c22.667 -32 52.667 -48 90 -48c38.667 0 70.667 15.667 96 47c24.667 30.667 37 70.334 37 119.001c0 44.667 -11.667 82.667 -35 114c-22.667 30.667 -53.334 46 -92.001 46
h-1z" />
    <glyph glyph-name="h" unicode="h" horiz-adv-x="628" 
d="M417 339c0 52 -5.66797 87.667 -17.001 107s-32.333 29 -63 29c-54.667 0 -102.667 -27.667 -144 -83c0 -116.667 1 -200 3 -250s7 -96 15 -138c-21.333 -10 -50.333 -15 -87 -15c-12 0 -20 4 -24 12s-6 22.667 -6 44v610c0 32.667 -3 54.667 -9 66
c-6 10.667 -17.333 16 -34 16c-18 0 -33.667 -1.66699 -47 -5c-0.666992 0.666992 -1 1.66699 -1 3c0 4.66699 6.66699 10 20 16c11.333 5.33301 29.333 10.666 54 15.999c21.333 4.66699 43.333 7 66 7c20.667 0 34.667 -6 42 -18c6.66699 -11.333 10 -33.666 10 -66.999
v-270c18 35.333 44 65 78 89s73.333 36 118 36c50 0 84 -14 102 -42s27 -71.333 27 -130v-249c0 -32 1.66699 -53.667 5 -65c2.66699 -10 10.334 -15 23.001 -15c20 0 42.333 4.66699 67 14c2 0 3 -1.33301 3 -4c0 -9.33301 -14 -21.333 -42 -36
c-27.333 -14.667 -55.333 -22 -84 -22c-26.667 0 -45 6.66699 -55 20c-10 12.667 -15 33.667 -15 63l-1 266z" />
    <glyph glyph-name="i" unicode="i" horiz-adv-x="277" 
d="M189 449c0 -130 1 -221 3 -273c1.33301 -26 3 -52.5 5 -79.5s4.66699 -54.833 8 -83.5c-23.333 -10 -50.333 -15 -81 -15c-15.333 0 -25 4 -29 12s-6 25 -6 51l3 365c0 34 -2.33301 55.667 -7 65c-5.33301 10 -16.666 15 -33.999 15s-32.666 -1.66699 -45.999 -5
c-0.666992 0.666992 -1 1.66699 -1 3c0 6.66699 15 14.667 45 24c31.333 9.33301 60.666 14 87.999 14c24.667 0 40 -6 46 -18c5.33301 -11.333 8.66602 -37.333 9.99902 -78zM132 739c38.667 0 58.001 -18.334 58.001 -55.001c0 -21.333 -5.66699 -38.666 -17 -51.999
c-10.667 -12.667 -27.334 -19 -50.001 -19c-19.333 0 -33.333 5 -42 15c-8.66699 9.33301 -13 23 -13 41c0 20 6 36.667 18 50s27.667 20 47 20h-1z" />
    <glyph glyph-name="j" unicode="j" horiz-adv-x="422" 
d="M348 455l-0.00195312 -244v-287c0 -80 -14 -136 -42 -168s-70.333 -48 -127 -48c-48.667 0 -85 10 -109 30s-36 43.667 -36 71c0 38.667 19.333 58 58 58c6.66699 0 15.667 -1.66699 27 -5c-2 -9.33301 -3 -23.333 -3 -42c0.666992 -27.333 6.66699 -49.333 18 -66
c10.667 -16.667 26.334 -25 47.001 -25c42.667 0 64.667 52 66 156c0 10.667 0.166992 39 0.5 85s0.833008 110.667 1.5 194l1.5 189.5c0.333008 43 0.5 66.833 0.5 71.5c0 32.667 -2.33301 53.667 -7 63c-5.33301 10 -16.333 15 -33 15c-18.667 0 -38 -2.66699 -58 -8
c-0.666992 0.666992 -1 1.66699 -1 3c0 8 16 17 48 27s63.333 15 94 15c24 0 39 -5 45 -15c6.66699 -10.667 10.334 -33.667 11.001 -69zM294.998 737c38 0 57 -19.333 57 -58c0 -21.333 -6 -38.333 -18 -51c-12 -13.333 -29 -20 -51 -20c-18.667 0 -33 5.66699 -43 17
c-10 10.667 -15 24.667 -15 42c0 20.667 6 37.667 18 51s29 20 51 20z" />
    <glyph glyph-name="k" unicode="k" horiz-adv-x="567" 
d="M202 696l-0.00292969 -211.001v-195c70 50 114 84.333 132 103c28.667 28.667 43.667 54.667 45 78c0 21.333 -8.33301 40.333 -25 57c16 14 34 21 54 21c14 0 25 -4.33301 33 -13c8 -9.33301 12 -21.333 12 -36c0 -44.667 -36.667 -91.667 -110 -141l-38.5 -23.5
l-63.5 -38.5c15.333 -5.33301 34.333 -20.666 57 -45.999l33.5 -40c11 -13.333 21.5 -27 31.5 -41c19.333 -27.333 42.333 -52.666 69 -75.999c25.333 -22.667 49.333 -34 72 -34c20.667 0 40.334 5.33301 59.001 16c1.33301 -1.33301 2 -3 2 -5
c0 -13.333 -11.333 -29.333 -34 -48s-50.667 -28 -84 -28c-21.333 0 -44.333 10 -69 30c-24.667 19.333 -46.667 42 -66 68l-29 39l-32 41c-21.333 27.333 -39 46.333 -53 57c2.66699 -101.333 8.66699 -175.333 18 -222c-21.333 -10 -50.333 -15 -87 -15
c-10.667 0 -18.667 3.66699 -24 11c-4.66699 6.66699 -7 19.667 -7 39v619c0 30.667 -3 51.667 -9 63c-6 10.667 -17.333 16 -34 16c-15.333 0 -31.333 -1.66699 -48 -5c-0.666992 0.666992 -1 1.66699 -1 3c0 4.66699 6.66699 10 20 16
c6.66699 3.33301 14.334 6.16602 23.001 8.49902s18.667 4.83301 30 7.5c20.667 4.66699 42.334 7 65.001 7c20.667 0 34.667 -6 42 -18c7.33301 -12.667 11 -35.667 11 -69z" />
    <glyph glyph-name="l" unicode="l" horiz-adv-x="319" 
d="M94 660c0 30.667 -3 51.667 -9 63c-6 10.667 -17.667 16 -35 16c-15.333 0 -30.333 -1.66699 -45 -5c-0.666992 0.666992 -1 1.66699 -1 3c0 6.66699 15.667 14.667 47 24c32 9.33301 62 14 90 14c23.333 0 38.333 -5.33301 45 -16s10 -33.667 10 -69v-588
c0 -24.667 2 -41 6 -49s13 -12 27 -12c26 0 52.333 7.66699 79 23c1.33301 -1.33301 2 -2.33301 2 -3c0 -10.667 -17.667 -24.667 -53 -42c-34 -16.667 -67 -25 -99 -25c-24.667 0 -41 7 -49 21s-12 39 -12 75z" />
    <glyph glyph-name="m" unicode="m" horiz-adv-x="894" 
d="M90 416c0 36 -2.33203 59 -6.99902 69c-5.33301 11.333 -16.333 17 -33 17c-14.667 0 -30.334 -1.66699 -47.001 -5c-0.666992 0.666992 -1 1.66699 -1 3c0 7.33301 14.333 15.333 43 24c30 9.33301 58.333 14 85 14c25.333 0 41 -6.66699 47 -20s9 -45.333 9 -96
c18.667 36.667 43.667 66 75 88c30.667 22 66.667 33 108 33c40 0 68.667 -10 86 -30c16.667 -20 26.667 -50.667 30 -92c42.667 82 104.667 123 186 123c46 0 77 -14 93 -42s24 -70 24 -126l1 -245c0 -38 1.66699 -62.667 5 -74c2.66699 -10 10.667 -15 24 -15
c16 0 38 4.66699 66 14c1.33301 0 2 -1 2 -3c0 -10 -14 -22.333 -42 -37c-27.333 -14.667 -55 -22 -83 -22s-47 7.66699 -57 23c-10 14.667 -15 40.667 -15 78v247c0 52 -4.33301 87.667 -13 107c-9.33301 20 -29.333 30 -60 30c-22 0 -44.333 -7 -67 -21
c-23.333 -14 -43.333 -33 -60 -57v-12v-12v-35c0 -15.333 0.333008 -34.333 1 -57s1 -42 1 -58v-38c0 -71.333 5.66699 -131.333 17 -180c-30 -10 -58 -15 -84 -15c-15.333 0 -25 4.33301 -29 13s-6 29.667 -6 63v279c0 48.667 -5 82.667 -15 102s-29 29 -57 29
c-47.333 0 -90 -26.667 -128 -80c0.666992 -169.333 3.66699 -277.333 9 -324c1.33301 -11.333 2.83301 -22.333 4.5 -33s3.5 -21.667 5.5 -33c-23.333 -10 -52 -15 -86 -15c-14.667 0 -24 4 -28 12s-6 24.667 -6 50c0 24.667 1 80 3 166s3 151.667 3 197z" />
    <glyph glyph-name="n" unicode="n" horiz-adv-x="620" 
d="M4 501c-0.666992 0.666992 -1 1.66602 -1 2.99902c0 7.33301 14.333 15.333 43 24c30 9.33301 58 14 84 14s42 -6.66699 48 -20s9 -46.333 9 -99c19.333 36.667 45.666 66.334 78.999 89.001c34.667 23.333 74.667 35 120 35c48.667 0 82 -14 100 -42s27 -71 27 -129
v-245c0 -34 1.66699 -57 5 -69c2.66699 -10.667 10.667 -16 24 -16c16 0 38 4.66699 66 14c2 0 3 -1.33301 3 -4c-1.33301 -9.33301 -15.666 -21.333 -42.999 -36s-55.333 -22 -84 -22c-27.333 0 -46 6.66699 -56 20c-10 12.667 -15 35.667 -15 69
c-0.666992 62 -1 114.333 -1 157v101c0 52 -5.66699 87.667 -17 107s-32 29 -62 29c-56.667 0 -104.667 -27.667 -144 -83c0 -116.667 1 -200 3 -250s7 -96 15 -138c-21.333 -10 -49.333 -15 -84 -15c-15.333 0 -25 4 -29 12s-6 24.667 -6 50c0 35.333 1 94 3 176
s3 145.667 3 191c0 33.333 -2.66699 55.333 -8 66c-5.33301 10 -17 15 -35 15c-13.333 0 -28.333 -1.66699 -45 -5z" />
    <glyph glyph-name="o" unicode="o" horiz-adv-x="598" 
d="M288 -7c-71.333 1.33301 -129.334 23.667 -174.001 67c-44.667 44 -67 112 -67 204c0 84.667 22.667 152.667 68 204s108.333 77 189 77c72.667 0 131.667 -22 177 -66c44.667 -44 67 -111.667 67 -203c0 -85.333 -22.333 -153.333 -67 -204
c-45.333 -51.333 -108.666 -77 -189.999 -77zM294.999 12.001c46 0 82.666 22.668 109.999 68.001s41 106 41 182c0 79.333 -14 143 -42 191s-64.333 72 -109 72c-45.333 0 -81.666 -22.667 -108.999 -68c-26.667 -44.667 -40 -105.334 -40 -182.001
c0 -78.667 14 -142 42 -190s64 -72 108 -72z" />
    <glyph glyph-name="p" unicode="p" horiz-adv-x="630" 
d="M193 185c0 -61.333 10.334 -104.667 31.001 -130c20.667 -26 51.667 -39 93 -39c52 0 92 22.667 120 68c28 44.667 42 106.667 42 186c0 144.667 -44.667 217 -134 217c-62.667 0 -113.334 -29.333 -152.001 -88v-214zM9.00098 499.999
c-0.666992 0.666992 -0.999023 1.66797 -0.999023 3.00098c0 6.66699 14.667 14.667 44 24c30 9.33301 59 14 87 14c25.333 0 41 -7 47 -21s9 -46.333 9 -97c18 34.667 43.333 63.667 76 87c32.667 24 71.667 36 117 36c57.333 0 104 -20 140 -60s54 -102 54 -186
c0 -92.667 -23 -166.334 -69 -221.001c-46 -55.333 -110.667 -83 -194 -83c-41.333 0 -81.333 10.333 -120 31c1.33301 -74 3.16602 -136 5.49902 -186s5.16602 -88.667 8.49902 -116c-26 -10.667 -54 -16 -84 -16c-16.667 0 -27 5 -31 15s-6 32.667 -6 68l5 609
c0 46.667 -2.33301 75.667 -7 87c-5.33301 12 -16.666 18 -33.999 18c-15.333 0 -31.333 -1.66699 -48 -5z" />
    <glyph glyph-name="q" unicode="q" horiz-adv-x="557" 
d="M434 389c0 47.333 -9 82 -27 104s-49.667 33 -95 33c-53.333 0 -94 -22.333 -122 -67c-28 -45.333 -42 -108.333 -42 -189c0 -68.667 12.667 -120.667 38 -156s58 -53 98 -53c30 0 58.667 7.66699 86 23c26.667 14.667 48.667 33.667 66 57zM533 -245
c0 -20 -2.33398 -32.667 -7.00098 -38c-5.33301 -6 -14.333 -9 -27 -9c-29.333 0 -56 5.33301 -80 16c10 66.667 15 197.667 15 393c-20 -36.667 -47 -66 -81 -88s-72 -33 -114 -33c-60.667 0 -108 22.333 -142 67s-51 106.667 -51 186c0 94 25 167 75 219s114 78 192 78
c31.333 0 64 -5 98 -15s56.667 -15 68 -15c18.667 0 34.334 5.33301 47.001 16c3.33301 0 5.33301 -3.33301 6 -10c0.666992 -3.33301 1 -9.5 1 -18.5v-35.5v-713z" />
    <glyph glyph-name="r" unicode="r" horiz-adv-x="408" 
d="M188 431c16 33.333 36.6689 61 62.002 83c24.667 22 51.667 33 81 33c21.333 0 38.333 -5.33301 51 -16c13.333 -11.333 20 -24.333 20 -39c0 -26 -12.333 -44.333 -37 -55c-19.333 31.333 -43.333 47 -72 47c-41.333 0 -76 -26.667 -104 -80
c0 -179.333 5 -310.333 15 -393c-23.333 -10 -50.333 -15 -81 -15c-14.667 0 -24 4 -28 12s-6 24.667 -6 50l3 365c0 33.333 -2.66699 55.333 -8 66c-5.33301 10 -17 15 -35 15c-16.667 0 -31.667 -1.66699 -45 -5c-0.666992 0.666992 -1 1.66699 -1 3
c0 6.66699 15 14.667 45 24c31.333 9.33301 60.666 14 87.999 14c24.667 0 40 -5.33301 46 -16c5.33301 -10.667 8.66602 -36 9.99902 -76z" />
    <glyph glyph-name="s" unicode="s" horiz-adv-x="480" 
d="M233 -11c-51.333 0 -95.3311 11.666 -131.998 34.999c-36 22.667 -54 53.667 -54 93c0 20.667 5.33301 36.334 16 47.001c11.333 11.333 23.666 17 36.999 17c16.667 0 30 -5.66699 40 -17c-7.33301 -18 -11 -36 -11 -54c0 -30 10 -54.333 30 -73
c19.333 -18.667 45.333 -28 78 -28c33.333 0 59.666 9.33301 78.999 28c20 18.667 30 44.667 30 78c0 26 -10 49 -30 69c-20.667 20.667 -44.667 37.334 -72 50.001l-42 20l-42 21c-28 14 -52 32 -72 54s-30 48.667 -30 80c0 45.333 18.667 79 56 101
c36.667 22 83.667 33 141 33c48.667 0 89 -10 121 -30s48 -44.333 48 -73c0 -18 -5 -32 -15 -42s-23 -15 -39 -15s-28.333 4.33301 -37 13c6.66699 17.333 10 34.333 10 51c0 24 -9 42.667 -27 56c-18.667 13.333 -42 20 -70 20s-51.333 -7.66699 -70 -23
c-18 -15.333 -27 -37.333 -27 -66c0 -26.667 10 -49.334 30 -68.001c20.667 -19.333 44.667 -35 72 -47l42.5 -18.5l43.5 -19.5c28.667 -12.667 53 -30.667 73 -54s30 -50.333 30 -81c0 -47.333 -20 -84.333 -60 -111c-39.333 -26.667 -89 -40 -149 -40z" />
    <glyph glyph-name="t" unicode="t" horiz-adv-x="337" 
d="M170 114c0 -30.667 1.66406 -50.333 4.99707 -59c2.66699 -8 11.334 -12 26.001 -12c36.667 0 69.334 7.33301 98.001 22c1.33301 0 2 -1.33301 2 -4c0 -11.333 -20.333 -25.333 -61 -42c-40 -16.667 -75 -25 -105 -25c-27.333 0 -45.333 7.33301 -54 22s-13 39 -13 73
v415c-24 0 -42.667 -1.66699 -56 -5c-2.66699 2.66699 -4 6 -4 10c0 4.66699 3 8 9 10l10.5 4c3.66699 1.33301 8.16699 2.66602 13.5 3.99902c8.66699 2.66699 19 8.33398 31 17.001c10.667 8 21.667 23.667 33 47c11.333 24.667 21 53.667 29 87
c10.667 0 18.667 -3.66699 24 -11c4.66699 -6.66699 8.66699 -21.334 12 -44.001c1.33301 -11.333 2.33301 -25.166 3 -41.499s1 -35.5 1 -57.5c17.333 0 38.666 2 63.999 6c24.667 4 41.667 8 51 12c2.66699 -5.33301 4 -11.333 4 -18c0 -15.333 -11.667 -23 -35 -23
c-3.33301 0 -8.33301 0.166992 -15 0.5s-14.667 0.833008 -24 1.5s-17.666 1.16699 -24.999 1.5s-13.666 0.5 -18.999 0.5z" />
    <glyph glyph-name="u" unicode="u" horiz-adv-x="609" 
d="M92 423c0 36.667 -2.33496 59.666 -7.00195 68.999c-5.33301 10 -17.333 15 -36 15c-15.333 0 -29.666 -1.66699 -42.999 -5c-0.666992 0.666992 -1 1.66699 -1 3c0 7.33301 14.333 15.333 43 24c30 9.33301 58 14 84 14c26.667 0 43.667 -6.66699 51 -20
c6.66699 -12.667 10 -43.334 10 -92.001l-3 -242c0 -47.333 5.66699 -80.666 17 -99.999c10.667 -18.667 31.667 -28 63 -28c24.667 0 49.667 7.66699 75 23c24.667 14.667 45.667 33.667 63 57c0 56.667 -0.333008 105.667 -1 147s-1.66699 75 -3 101s-3.5 51 -6.5 75
s-7.16699 46.667 -12.5 68c24 11.333 54 17 90 17c13.333 0 22.333 -3.33301 27 -10c5.33301 -7.33301 8 -20.333 8 -39c0 -38 -1 -101.333 -3 -190c-2 -89.333 -3 -151.666 -3 -186.999c0 -32 3 -54 9 -66s17 -18 33 -18c15.333 0 33 3.33301 53 10c0.666992 0 1 -1 1 -3
c0 -8 -15 -18 -45 -30s-60 -18 -90 -18c-23.333 0 -38.333 7.33301 -45 22c-6.66699 14 -10 46 -10 96c-19.333 -35.333 -45.333 -64.333 -78 -87s-70.667 -34 -114 -34c-49.333 0 -82.666 13.667 -99.999 41c-16.667 26.667 -25 69.667 -25 129z" />
    <glyph glyph-name="v" unicode="v" horiz-adv-x="543" 
d="M46 504c-15.333 0 -30.001 -2.33203 -44.001 -6.99902c-0.666992 0.666992 -1 1.66699 -1 3c0 4 4.66699 9 14 15c8 5.33301 22 10.666 42 15.999c18 4.66699 38.667 7 62 7c48 0 86 -31.667 114 -95c28.667 -64 65.334 -191.667 110.001 -383
c40 51.333 74.667 109.333 104 174c30 66 45 125.333 45 178c0 53.333 -17.333 89 -52 107c2.66699 6.66699 9.66699 12.667 21 18c12 5.33301 22.667 8 32 8c31.333 0 47 -24.333 47 -73c0 -55.333 -16 -121.333 -48 -198c-32 -77.333 -68 -143.333 -108 -198
s-72 -82 -96 -82c-6.66699 0 -12 2.66699 -16 8c-4 4.66699 -8 13.667 -12 27c-50 184 -89 309.667 -117 377c-28 68 -60 102 -96 102z" />
    <glyph glyph-name="w" unicode="w" horiz-adv-x="826" 
d="M351 499c5.33301 5.33301 14.6641 10.332 27.9971 14.999c14.667 5.33301 28.667 8 42 8c24.667 0 45 -9 61 -27c16.667 -18.667 36.334 -61.667 59.001 -129c23.333 -68.667 52.333 -172 87 -310c40.667 49.333 75.667 106 105 170s44 121 44 171c0 62 -19 101 -57 117
c4 7.33301 11.667 13.666 23 18.999c10 4.66699 20 7 30 7c32.667 0 49 -28 49 -84c0 -42 -10 -91 -30 -147c-20.667 -57.333 -44 -108.333 -70 -153c-13.333 -23.333 -26.833 -44.666 -40.5 -63.999s-27.5 -37 -41.5 -53c-28 -32 -50 -48 -66 -48c-6.66699 0 -12 2 -16 6
s-8 13.667 -12 29l-60 209c-28.667 -63.333 -62 -119.333 -100 -168c-39.333 -50 -69.333 -75 -90 -75c-13.333 0 -23.666 11.667 -30.999 35c-28 97.333 -51.5 175.833 -70.5 235.5s-33.167 101.5 -42.5 125.5c-29.333 70.667 -60.333 109.667 -93 117
c-3.33301 0.666992 -8.33301 1 -15 1c-14.667 0 -28.667 -2.33301 -42 -7c-0.666992 0 -1 1 -1 3c0 4.66699 5 10 15 16s24.667 11 44 15c18.667 4 39.334 6 62.001 6c18 0 32.667 -2.33301 44 -7c12 -5.33301 24 -16.333 36 -33c6 -8.66699 11.667 -17.5 17 -26.5
s10.333 -18.167 15 -27.5c9.33301 -19.333 20.333 -49.666 33 -90.999l19 -62.5l17 -59.5l19.5 -71.5l25.5 -98.5c24.667 26.667 49 60 73 100c12 20 22.667 39.333 32 58s17.333 36.667 24 54c-42 140 -83.333 217 -124 231z" />
    <glyph glyph-name="x" unicode="x" horiz-adv-x="614" 
d="M485 -5c-20.667 0 -40.335 6.00195 -59.002 18.002c-18.667 11.333 -38 30.333 -58 57c-20 26 -37 50 -51 72c-7.33301 11.333 -15.166 24.333 -23.499 39l-28.5 51c-97.333 -80 -146 -146.333 -146 -199c0 -23.333 10 -45.333 30 -66c-17.333 -16.667 -37 -25 -59 -25
c-14.667 0 -27 5 -37 15s-15 23 -15 39c0.666992 62.667 73.667 146.667 219 252l-5 10c-2 4 -4.66699 8.66699 -8 14l-39 72l-16 27.5l-21 34.5c-16 25.333 -29.333 43.666 -40 54.999c-11.333 12 -24.333 23 -39 33c-15.333 10 -29.666 15 -42.999 15
c-20 0 -35 -2.33301 -45 -7c-0.666992 0.666992 -1 1.66699 -1 3c-1.33301 5.33301 3.33398 11 14.001 17c10 6 24.667 11 44 15c18.667 4 39.667 6 63 6c18.667 0 37.667 -6 57 -18c18.667 -12 37.667 -31 57 -57c18 -24.667 34.333 -49 49 -73
c7.33301 -11.333 15.166 -24.5 23.499 -39.5l28.5 -50.5c39.333 29.333 68 58 86 86s27 53 27 75c0 24.667 -11.667 43.667 -35 57c12 15.333 28.667 23 50 23c14.667 0 27.667 -4.66699 39 -14c10.667 -8.66699 16 -22.334 16 -41.001
c-1.33301 -55.333 -59.666 -122.333 -174.999 -201c54 -95.333 90.333 -155.333 109 -180c32.667 -42 63.667 -63 93 -63c20 0 41.333 6.33301 64 19c0.666992 -0.666992 1 -2.66699 1 -6c1.33301 -11.333 -10.334 -25 -35.001 -41c-24 -16 -52.667 -24 -86 -24h-5z" />
    <glyph glyph-name="y" unicode="y" horiz-adv-x="595" 
d="M52 499c-0.666992 0.666992 -1 1.66699 -1 3c-0.666992 4.66699 4 10 14 16s24 11 42 15s37.667 6 59 6c32.667 0 60.667 -14 84 -42c24 -28.667 46.667 -75 68 -139c22 -65.333 50 -165.333 84 -300c44 60 78.667 121 104 183c26 62.667 39 119 39 169
c0 28 -5 51.667 -15 71c-10 18.667 -22.667 31.667 -38 39c9.33301 17.333 27.333 26 54 26c31.333 0 47 -23.667 47 -71c0 -60.667 -16.333 -130 -49 -208s-73.667 -151.333 -123 -220c-48.667 -68 -104 -125.333 -166 -172c-61.333 -46.667 -118.333 -70 -171 -70
c-28 0 -48.667 5.33301 -62 16c-14 10.667 -21 23.667 -21 39c0 9.33301 2.66699 18.333 8 27c5.33301 8 11 13.667 17 17c28.667 -28.667 63.667 -43 105 -43c60.667 0 127 38.333 199 115c-57.333 208.667 -101.333 349.667 -132 423c-30.667 72.667 -64.667 109 -102 109
c-16 0 -30.667 -2.33301 -44 -7v-2z" />
    <glyph glyph-name="z" unicode="z" horiz-adv-x="504" 
d="M428 128c7.33301 0 13.332 -4.33691 17.999 -13.0039s7 -20.667 7 -36c0 -24 -8 -45 -24 -63s-40.333 -27 -73 -27c-31.333 0 -68.333 4 -111 12c-43.333 8 -78.333 12 -105 12c-38.667 0 -75.667 -4.33301 -111 -13c-10 0.666992 -15 9.33398 -15 26.001
c0 28 12 60 36 96c24.667 37.333 53.667 73 87 107l51 51.5l51 51.5c33.333 33.333 62.333 67 87 101c24 32.667 36 61.334 36 86.001c-61.333 0 -111 -2 -149 -6c-38.667 -4 -67.667 -11.333 -87 -22c-20.667 -11.333 -34.667 -21.666 -42 -30.999
c-8 -10 -16 -25.333 -24 -46c-9.33301 1.33301 -14 10.333 -14 27c0 22.667 8.33301 44.667 25 66c16.667 22 35 33 55 33h278c17.333 0 29.666 -2.33301 36.999 -7c8 -5.33301 12 -15.333 12 -30c0 -26 -11.333 -57.333 -34 -94
c-23.333 -37.333 -50.666 -73.666 -81.999 -108.999l-48 -53l-49 -52c-33.333 -34 -61.333 -66 -84 -96c-22.667 -29.333 -34 -52.333 -34 -69l6 1c4.66699 0.666992 10.667 1.66699 18 3c3.33301 0.666992 6.5 1 9.5 1h9.5c15.333 0 38 -2 68 -6s53 -6 69 -6
c35.333 0 64.333 7.66699 87 23s37.334 42.333 44.001 81z" />
    <glyph glyph-name="braceleft" unicode="{" horiz-adv-x="344" 
d="M202 785c32 0 59.999 -3.66699 83.999 -11c23.333 -7.33301 35 -15.333 35 -24c0 -2 -0.333008 -3.33301 -1 -4c-18.667 7.33301 -39 11 -61 11c-20.667 0 -36.667 -8.66699 -48 -26s-19.333 -50.333 -24 -99c-2.66699 -24.667 -4.66699 -54.834 -6 -90.501
s-2 -77.5 -2 -125.5v-35c0 -10 -0.333008 -18.667 -1 -26c-1.33301 -14.667 -4.66602 -30 -9.99902 -46c-6 -16.667 -15 -29 -27 -37c-11.333 -7.33301 -28.333 -13.666 -51 -18.999c-23.333 -5.33301 -51 -8 -83 -8c41.333 9.33301 68 25 80 47s18 63 18 123
c0 142.667 6 240 18 292s38 78 78 78h1zM318.999 -268c0 -8.66699 -11.667 -16.668 -35 -24.001c-24 -7.33301 -51 -11 -81 -11c-42.667 0 -70 23.667 -82 71c-12 46.667 -18 138.334 -18 275.001c0 63.333 -6.33301 106.666 -19 129.999c-13.333 24 -39.333 41 -78 51
c14 0 27 -0.333008 39 -1s22.667 -1.66699 32 -3c18.667 -3.33301 34.667 -8.33301 48 -15c12.667 -7.33301 22.667 -14.333 30 -21c6.66699 -7.33301 11.667 -18.333 15 -33c2.66699 -15.333 4.66699 -28.333 6 -39c0.666992 -5.33301 1 -12.166 1 -20.499v-29.5
c0 -132.667 5.33301 -221.667 16 -267c10.667 -46.667 32.667 -70 66 -70c26.667 0 46.667 4 60 12c0.666992 -0.666992 1 -1.66699 1 -3z" />
    <glyph glyph-name="threequarters" unicode="|" horiz-adv-x="243" 
d="M118 815c16.667 0 27.666 -5.99902 32.999 -17.999c5.33301 -12.667 8 -42.334 8 -89.001v-58c0 -24 -0.333008 -53 -1 -87s-1 -62.333 -1 -85v-51c0 -245.333 7 -384 21 -416c-12.667 -10.667 -28.667 -16 -48 -16c-16.667 0 -27.667 5.66699 -33 17
c-4.66699 10 -7 34.667 -7 74c0 1.33301 0.166992 11.333 0.5 30l1.5 85c0.666992 38 1.16699 73.333 1.5 106s0.5 63.334 0.5 92.001c0 245.333 -9 378.666 -27 399.999c14.667 11.333 32.334 17 53.001 17z" />
    <glyph glyph-name="braceright" unicode="}" horiz-adv-x="344" 
d="M144 783c40 0 65.999 -26.0029 77.999 -78.0029s18 -149.333 18 -292c0 -60 6 -101 18 -123c12 -21.333 38.667 -36.666 80 -45.999c-32 0 -59.667 2.66699 -83 8c-21.333 4.66699 -38.333 11.334 -51 20.001c-12 8 -21 20.333 -27 37
c-5.33301 16 -8.66602 31.333 -9.99902 46c-0.666992 7.33301 -1 16 -1 26v35c0 48 -0.666992 89.833 -2 125.5s-3.33301 65.834 -6 90.501c-5.33301 48.667 -13.333 81.667 -24 99c-11.333 17.333 -27.333 26 -48 26c-22 0 -42.333 -3.66699 -61 -11
c-0.666992 0.666992 -1 2 -1 4c0 8.66699 11.667 16.667 35 24c24 7.33301 52 11 84 11zM24.999 -268.003c0 1.33301 0.333008 2.33301 1 3c12.667 -8 32.667 -12 60 -12c33.333 0 55.333 23.333 66 70c10.667 45.333 16 134.333 16 267v29.5
c0 8.33301 0.333008 15.166 1 20.499c0.666992 10.667 2.66699 23.667 6 39c2.66699 14.667 7.66699 25.667 15 33c6.66699 6.66699 16.667 13.667 30 21c12.667 6.66699 28.667 11.667 48 15c9.33301 1.33301 20 2.33301 32 3s25 1 39 1c-39.333 -10 -65.333 -27 -78 -51
c-12.667 -23.333 -19 -66.666 -19 -129.999c0 -136 -6 -227.333 -18 -274s-39.333 -70 -82 -70c-30 0 -57 3.66699 -81 11c-23.333 7.33301 -35 15.333 -35 24h-1z" />
    <glyph glyph-name="_126" unicode="~" horiz-adv-x="436" 
d="M384 707c4.66699 -0.666992 7 -7 7 -19c0 -18.667 -9 -38 -27 -58s-45 -30 -81 -30c-21.333 0 -48 7 -80 21s-56 21 -72 21c-43.333 0 -70 -14.333 -80 -43c-4.66699 2 -7 8 -7 18c0 22 9.66699 42.667 29 62s46.333 29 81 29c19.333 0 45 -7 77 -21s56 -21 72 -21
c44.667 0 71.667 14 81 42v-1z" />
    <glyph glyph-name="nonbreakingspace" unicode="&#xa0;" horiz-adv-x="276" 
 />
    <glyph glyph-name="eth" unicode="&#xa3;" horiz-adv-x="528" 
d="M477 0l-408.001 -0.000976562c65.333 78 98 157 98 237c0 27.333 -4.33301 58.333 -13 93h-96v52h82c-15.333 51.333 -23 96.333 -23 135c0 51.333 18.5 94.333 55.5 129s86.167 52 147.5 52c62.667 0 111.334 -11.667 146.001 -35l-23 -56c-32.667 18 -69 27 -109 27
c-87.333 0 -131 -47 -131 -141c0 -33.333 5.66699 -70.333 17 -111h136v-52h-126c6 -26 9 -56.333 9 -91c0 -29.333 -6.66699 -62.666 -20 -99.999c-10.667 -30 -21 -52 -31 -66h289v-73z" />
    <glyph glyph-name="_166" unicode="&#xa6;" horiz-adv-x="187" 
d="M99 568c0 -50.667 0.167969 -91.667 0.500977 -123s0.833008 -53.333 1.5 -66c0.666992 -25.333 3.66699 -47.333 9 -66c-11.333 -10 -28 -15 -50 -15c-14 0 -23 4.33301 -27 13s-6 26.667 -6 54c0 102 -1 170 -3 204c-2 35.333 -7.33301 65 -16 89
c11.333 10.667 28.666 16 51.999 16c16 0 26.667 -6 32 -18c5.33301 -12.667 8 -41.667 8 -87zM104.001 110c0 -57.333 0.166992 -103.166 0.5 -137.499s0.833008 -57.833 1.5 -70.5c0.666992 -25.333 3.66699 -44.333 9 -57c-12 -10 -29 -15 -51 -15c-14 0 -23 4 -27 12
s-6 25.667 -6 53c0 110 -1 181.667 -3 215c-2 34 -7.33301 61 -16 81c12.667 10.667 29.667 16 51 16c10.667 0 18.667 -1.66699 24 -5c4.66699 -2.66699 8.66699 -11.334 12 -26.001c3.33301 -15.333 5 -37.333 5 -66z" />
    <glyph glyph-name="Lslash" unicode="&#xa7;" horiz-adv-x="488" 
d="M227 -294c-51.333 0 -94.668 11.333 -130.001 34c-36 22.667 -54 53.667 -54 93c0 22 5.66699 38.667 17 50s24 17 38 17c14.667 0 27.667 -6 39 -18c-7.33301 -16 -11 -34 -11 -54c0 -29.333 9.66699 -53.666 29 -72.999c18.667 -18.667 44.334 -28.667 77.001 -30
c34 0 61.333 9.66699 82 29c20 18.667 30 43.667 30 75c0 26.667 -10 50 -30 70c-20.667 20.667 -45 37.334 -73 50.001l-43.5 20l-43.5 21c-28.667 14 -53 32 -73 54s-30 48 -30 78c0 38.667 14 69.667 42 93c28 22.667 65 36.667 111 42
c-45.333 20.667 -80.333 42.667 -105 66c-25.333 23.333 -38 52.333 -38 87c0 45.333 18.667 79 56 101c36.667 22 84.334 33 143.001 33c47.333 0 87.333 -9.66699 120 -29c32 -19.333 48 -44 48 -74c0 -18 -5 -32 -15 -42s-22.333 -15 -37 -15
c-16 0 -28.667 4.33301 -38 13c7.33301 18 11 35 11 51c0 24.667 -9 43.667 -27 57c-18.667 13.333 -42 20 -70 20c-29.333 0 -53 -8 -71 -24s-27 -37.333 -27 -64c0 -22.667 7 -43 21 -61s32 -32 54 -42l34.5 -16l36.5 -17l36.5 -18l34.5 -18
c22.667 -12 40.667 -28.333 54 -49c14 -21.333 21 -45.333 21 -72c0 -36 -12 -66 -36 -90c-24.667 -24.667 -56.667 -41.334 -96 -50.001c18.667 -9.33301 33.667 -17.333 45 -24c5.33301 -3.33301 11.166 -7.33301 17.499 -12s13.166 -10 20.499 -16
c14.667 -12.667 25.334 -26.667 32.001 -42c7.33301 -16.667 11 -34.334 11 -53.001c0 -47.333 -20.333 -84.333 -61 -111s-90.667 -40 -150 -40h-2zM351.998 117c0 27.333 -10 50.668 -30 70.001c-20 18.667 -47 36.667 -81 54c-30 -3.33301 -54 -13.333 -72 -30
c-18 -17.333 -27 -39 -27 -65c0 -28 11 -51 33 -69c21.333 -18 56 -37 104 -57c20 5.33301 37 16.666 51 33.999c14 18 21 39.333 21 64z" />
    <glyph glyph-name="_168" unicode="&#xa8;" horiz-adv-x="298" 
d="M77 719c31.333 0 47 -15 47 -45c0 -17.333 -5 -31.333 -15 -42s-24 -16 -42 -16c-30.667 0 -46 15.333 -46 46c0 16 5 29.667 15 41s23.333 17 40 17zM231 718c31.333 0 47 -15 47 -45c0 -17.333 -5 -31.333 -15 -42s-24 -16 -42 -16c-30.667 0 -46 15.333 -46 46
c0 16 5 29.667 15 41s23.333 17 40 17z" />
    <glyph glyph-name="Yacute" unicode="&#xa9;" horiz-adv-x="730" 
d="M373 222c17.333 0 35.667 4.00195 55 12.002c18 8 32.333 16 43 24l15 11c0 -5.33301 -5 -13 -15 -23s-26 -20 -48 -30s-45.333 -15 -70 -15c-42 0 -76.333 12.667 -103 38c-26 24.667 -39 64.667 -39 120c0 61.333 15 106 45 134s67.667 42 113 42
c33.333 0 61.333 -6.33301 84 -19c23.333 -13.333 35 -30.333 35 -51c0 -12.667 -4 -22.334 -12 -29.001c-8.66699 -7.33301 -18 -11 -28 -11c-11.333 -1.33301 -20.333 2 -27 10c0.666992 3.33301 1.16699 7 1.5 11s0.5 8.66699 0.5 14
c-1.33301 18.667 -7.33301 33.667 -18 45c-11.333 11.333 -26.333 17 -45 17c-54.667 0 -82 -50.333 -82 -151c0 -50.667 7 -87.334 21 -110.001c14 -23.333 38 -35 72 -35zM680.001 382.002c0 -89.333 -29.001 -165.332 -87.001 -227.999s-134.667 -94 -230 -94
c-90 0 -164.667 24.667 -224 74s-89 120 -89 212c0 89.333 29 165.666 87 228.999c58 62.667 135 94 231 94c88.667 0 163.334 -24.667 224.001 -74c60 -49.333 90 -120 90 -212zM120 372.003c0 -96 22.333 -168.667 67 -218c44.667 -50 105 -75 181 -75
c77.333 0 137 26 179 78s63 116.333 63 193c0 98 -22 172 -66 222s-104 75 -180 75c-76.667 0 -136.667 -25.667 -180 -77c-42.667 -50.667 -64 -116.667 -64 -198z" />
    <glyph glyph-name="twosuperior" unicode="&#xab;" horiz-adv-x="492" 
d="M109 260c96 -118 144 -190.667 144 -218c0 -10 -4 -18 -12 -24c-7.33301 6.66699 -26.333 27.667 -57 63l-45.5 51c-15 16.667 -30.167 32.667 -45.5 48l-44 43.5c-14 13.667 -27.667 26.167 -41 37.5c29.333 24 58 51 86 81l90 99c30.667 34.667 49.667 55.667 57 63
c8 -6 12 -14 12 -24c0 -12.667 -14.667 -40.667 -44 -84l-46.5 -65l-52.5 -68zM327 259c96 -118 143.999 -190.667 143.999 -218c0 -11.333 -4 -19.333 -12 -24c-7.33301 6.66699 -26.333 27.667 -57 63l-45.5 51c-15 16.667 -30.167 32.667 -45.5 48l-44 43.5
c-14 13.667 -27.667 26.167 -41 37.5l41 36.5c14 13 28 26.833 42 41.5l45 47.5l50 54.5c34.667 38.667 52.667 58.667 54 60c8 -6 12 -14 12 -24c0 -14 -14.333 -41.667 -43 -83c-29.333 -42.667 -62.666 -87 -99.999 -133v-1z" />
    <glyph glyph-name="scaron" unicode="&#xae;" horiz-adv-x="730" 
d="M679 385c0 -89.333 -28.999 -165.333 -86.999 -228s-134.667 -94 -230 -94c-90.667 0 -165.334 25 -224.001 75c-59.333 50 -89 120.667 -89 212c0 88.667 29 164.667 87 228s135 95 231 95c90 0 164.667 -24.667 224 -74s89 -120 89 -212zM118.001 379
c0 -96.667 22 -170 66 -220s104 -75 180 -75c78.667 0 139 26 181 78s63 117 63 195c0 96 -22 169 -66 219s-103.667 75 -179 75c-74.667 0 -134 -25 -178 -75s-66 -116 -66 -198zM376.001 360l6.00195 -2.99707c-10 -2.66699 -22.333 -4 -37 -4c-11.333 0 -17 2 -17 6
c20 4 36 13 48 27s18 33.667 18 59c0 43.333 -18.333 65 -55 65c-12.667 0 -22.334 -1 -29.001 -3c0 -78.667 0.666992 -142.667 2 -192s3.33301 -84.333 6 -105c-12.667 -8.66699 -29 -13 -49 -13c-9.33301 0 -15.333 1.33301 -18 4c-3.33301 3.33301 -5 9.66602 -5 18.999
v34.5c0 12.333 0.333008 26.166 1 41.499s1.16699 29.166 1.5 41.499s0.5 23.833 0.5 34.5v63c0 10.667 -0.166992 20.167 -0.5 28.5s-0.833008 15.833 -1.5 22.5c-1.33301 12.667 -3.33301 20.667 -6 24c4.66699 4 18.667 8 42 12c22.667 4 44 6 64 6
c76 0 114 -26.333 114 -79c0 -48.667 -25.667 -79 -77 -91c12.667 -8 24.667 -20.667 36 -38c5.33301 -8.66699 10 -16.834 14 -24.501s7.66699 -15.167 11 -22.5c6 -14.667 15 -26.334 27 -35.001c12 -9.33301 27.667 -11.333 47 -6c2.66699 -2.66699 1.66699 -7 -3 -13
c-4.66699 -5.33301 -13.334 -10.666 -26.001 -15.999c-11.333 -4.66699 -24.333 -7 -39 -7c-21.333 0 -38.333 11 -51 33c-12 20.667 -23.333 45.667 -34 75c-10 28.667 -21 47.334 -33 56.001h43z" />
    <glyph glyph-name="_176" unicode="&#xb0;" horiz-adv-x="270" 
d="M19 573c0 33.333 11.333 59.333 34 78s50.667 28 84 28c32.667 0 59.667 -9 81 -27s32 -44 32 -78c0 -33.333 -11.333 -59.333 -34 -78s-50.667 -28 -84 -28s-60.333 9 -81 27s-31 44.333 -31 79zM142 488c33.333 0 50 25 50 75c0 64.667 -20 97 -60 97
c-35.333 0 -53 -26.333 -53 -79c0 -26.667 5 -49 15 -67s26 -27 48 -27v1z" />
    <glyph glyph-name="_177" unicode="&#xb1;" horiz-adv-x="548" 
d="M514 394c-38 3.33301 -75.001 6.16699 -111.001 8.5s-72 4.16602 -108 5.49902c0 -84.667 8.33301 -165.667 25 -243c-15.333 -12.667 -33.333 -19 -54 -19c-28 0 -42 36.667 -42 110c0 20.667 1.16699 43.667 3.5 69s5.83301 53.333 10.5 84
c-17.333 -0.666992 -34 -1.16699 -50 -1.5s-31.667 -1.16602 -47 -2.49902c-30.667 -2 -54.334 -4 -71.001 -6c-17.333 -2 -27.333 -3 -30 -3c-19.333 0 -29 8 -29 24c0 10.667 3.66699 19.667 11 27c2 0 8.66699 -1 20 -3c10.667 -2 22.667 -4 36 -6
c12.667 -2 33.667 -4 63 -6c28.667 -2 61.667 -3 99 -3c-1.33301 80.667 -9.66602 162.667 -24.999 246c13.333 12.667 31.333 19 54 19c40.667 0 49.667 -88 27 -264c16.667 0.666992 33.834 1.83398 51.501 3.50098s36.167 4.16699 55.5 7.5c38 6 68.667 9 92 9
c20.667 0 31 -7.66699 31 -23c0 -10.667 -3.66699 -20.334 -11 -29.001zM515.999 49.001c-23.333 2 -75.334 3.00098 -156.001 3.00098h-64.5c-22.333 0 -46.166 -0.333008 -71.499 -1s-48.333 -1 -69 -1h-57h-56c-20 0 -30 7.33301 -30 22c0 9.33301 3.66699 17 11 23
c15.333 -0.666992 32.833 -1.16699 52.5 -1.5s41.5 -0.5 65.5 -0.5c23.333 0 51.5 0.166992 84.5 0.5s70.5 0.833008 112.5 1.5s76.167 1.16699 102.5 1.5s44.833 0.5 55.5 0.5c20.667 0 31 -7.66699 31 -23c0 -10.667 -3.33301 -18.334 -10 -23.001z" />
    <glyph glyph-name="_181" unicode="&#xb5;" horiz-adv-x="536" 
d="M440 416c0 -17.333 0.166992 -37.666 0.5 -60.999s0.833008 -50 1.5 -80s1.16699 -53.5 1.5 -70.5s0.5 -27.833 0.5 -32.5c0 -62 -9 -107.333 -27 -136s-52.333 -43 -103 -43c-81.333 0 -144.333 41 -189 123c0 -89.333 1.33301 -166.5 4 -231.5
s6.66699 -118.5 12 -160.5c-26 -10.667 -55 -16 -87 -16c-14.667 0 -23.667 5.66699 -27 17c-3.33301 10.667 -5.33301 36.667 -6 78c0 16 0.166992 49.333 0.5 100s0.833008 119 1.5 205s1.16699 161.5 1.5 226.5s0.5 120.5 0.5 166.5c0 17.333 2.66699 29.666 8 36.999
c4.66699 6.66699 13.334 10 26.001 10c38 0 67.667 -5.66699 89 -17c-9.33301 -44 -15.333 -90 -18 -138c-1.33301 -24 -2.33301 -57.167 -3 -99.5s-1 -93.833 -1 -154.5c40.667 -52.667 86.667 -79 138 -79c32 0 53 10 63 30s15 54.667 15 104v32.5
c0 16.333 -0.333008 38.5 -1 66.5s-1 53 -1 75v59c0 49.333 3.33301 80.666 10 93.999c6.66699 14 23 21 49 21c28 0 56 -4.33301 84 -13c29.333 -9.33301 44 -17.666 44 -24.999c0 -1.33301 -0.333008 -2.33301 -1 -3c-16.667 3.33301 -31.334 5 -44.001 5
c-18 0 -29.333 -5.33301 -34 -16c-4.66699 -10 -7 -34 -7 -72z" />
    <glyph glyph-name="_182" unicode="&#xb6;" horiz-adv-x="659" 
d="M268 594c68.667 0 124.831 0.833008 168.498 2.5s75.5 4.16699 95.5 7.5c40.667 7.33301 75.334 24.333 104.001 51c12 -14 18 -26.667 18 -38c0 -30 -42.333 -47 -127 -51v-208v-166c0 -236.667 7 -370.334 21 -401.001c-11.333 -10.667 -28.666 -16 -51.999 -16
c-15.333 0 -25.333 5 -30 15c-4.66699 9.33301 -7 29.333 -7 60c0 3.33301 0.166992 15.333 0.5 36l1.5 90c0.666992 39.333 1.16699 75.5 1.5 108.5s0.5 63.5 0.5 91.5c0 185.333 -4 314 -12 386c-0.666992 0 -10.167 -0.333008 -28.5 -1l-81.5 -3v-358
c0.666992 -234.667 7.66699 -371 21 -409c-11.333 -10.667 -28.333 -16 -51 -16c-15.333 0 -25.333 5 -30 15c-5.33301 10.667 -8 30.334 -8 59.001v361c-64 0 -111.667 17.667 -143 53s-47 83 -47 143c0 55.333 16 101 48 137s78.333 54 139 54z" />
    <glyph glyph-name="lslash" unicode="&#xb7;" horiz-adv-x="235" 
d="M132 338c40 0 60 -18.999 60 -56.999c0 -22 -6 -40 -18 -54s-29.333 -21 -52 -21c-38.667 0 -58 19.333 -58 58c0 21.333 6.33301 38.666 19 51.999c12.667 14 29.667 21 51 21z" />
    <glyph glyph-name="brokenbar" unicode="&#xbb;" horiz-adv-x="492" 
d="M371 266l-52.5 68l-46.5 65c-29.333 43.333 -44 71.333 -44 84c0 10 4 18 12 24l57 -63l90 -99c28 -30 56.667 -57 86 -81c-13.333 -11.333 -27 -23.833 -41 -37.5l-44 -43.5c-15.333 -15.333 -30.5 -31.333 -45.5 -48l-45.5 -51
c-31.333 -35.333 -50.333 -56.333 -57 -63c-8 6 -12 14 -12 24c0 27.333 48 100 144 218zM153 266c-19.333 23.333 -37.167 46.167 -53.5 68.5l-46.5 65.5c-28.667 41.333 -43 69 -43 83c0 10 4 18 12 24c0.666992 -1.33301 18.667 -21.333 54 -60l50 -54.5l45 -47.5
c14 -14.667 28 -28.5 42 -41.5l41 -36.5c-13.333 -11.333 -27 -23.833 -41 -37.5l-44 -43.5c-15.333 -15.333 -30.5 -31.333 -45.5 -48l-45.5 -51c-31.333 -35.333 -50.333 -56.333 -57 -63c-8 4.66699 -12 12.667 -12 24c0 27.333 48 100 144 218z" />
    <glyph glyph-name="Adieresis" unicode="&#xc0;" horiz-adv-x="701" 
d="M578 -6c-30.667 0 -58.001 19.332 -82.001 57.999s-48 96.667 -72 174h-309c-26 -67.333 -39 -110.666 -39 -129.999c0 -30.667 8 -59 24 -85c-13.333 -11.333 -28.333 -17 -45 -17c-25.333 0 -38 13.333 -38 40c0 25.333 13 69 39 131l41 94l44 95
c15.333 32 30 64.667 44 98s27.667 68 41 104c26 70.667 39 125.667 39 165c0 3.33301 -0.166992 6.5 -0.5 9.5s-0.833008 6.16699 -1.5 9.5c5.33301 4.66699 15 7 29 7c25.333 0 49 -16.667 71 -50c11.333 -16.667 22 -36.167 32 -58.5s19.667 -47.5 29 -75.5l28.5 -86
l29.5 -90c10 -30.667 21.5 -62.167 34.5 -94.5s27.167 -65.5 42.5 -99.5c30.667 -68 65.334 -124.667 104.001 -170c-22.667 -18.667 -50 -28 -82 -28zM282.999 656.999c-4 -26.667 -14.002 -61 -30.002 -103s-40 -100 -72 -174l-38 -89.5
c-9.33301 -22.333 -15.666 -37.166 -18.999 -44.499h294c-9.33301 26.667 -23.333 72.667 -42 138c-9.33301 32.667 -18.333 62.5 -27 89.5l-24 73.5c-15.333 45.333 -29.666 81.666 -42.999 108.999zM345.997 803.999c-2 -2.66699 -6.66699 -4 -14 -4
c-30.667 0 -72 18 -124 54s-78 71 -78 105c0 13.333 3.66699 23 11 29c6.66699 6 15.667 9 27 9c12 0 22.667 -3.66699 32 -11c18 -85.333 66.333 -146.333 145 -183z" />
    <glyph glyph-name="Eacute" unicode="&#xc1;" horiz-adv-x="647" 
d="M560 -6c-30.667 0 -58.001 19.332 -82.001 57.999s-48 96.667 -72 174h-309c-26 -67.333 -39 -110.666 -39 -129.999c0 -30.667 8 -59 24 -85c-13.333 -11.333 -28.333 -17 -45 -17c-25.333 0 -38 13.333 -38 40c0 25.333 13 69 39 131l41 94l44 95
c15.333 32 30 64.667 44 98s27.667 68 41 104c26 70.667 39 125.667 39 165c0 3.33301 -0.166992 6.5 -0.5 9.5s-0.833008 6.16699 -1.5 9.5c5.33301 4.66699 15 7 29 7c25.333 0 49 -16.667 71 -50c11.333 -16.667 22 -36.167 32 -58.5s19.667 -47.5 29 -75.5l28.5 -86
l29.5 -90c10 -30.667 21.5 -62.167 34.5 -94.5s27.167 -65.5 42.5 -99.5c30.667 -68 65.334 -124.667 104.001 -170c-22.667 -18.667 -50 -28 -82 -28zM264.999 656.999c-4 -26.667 -14.002 -61 -30.002 -103s-40 -100 -72 -174l-38 -89.5
c-9.33301 -22.333 -15.666 -37.166 -18.999 -44.499h294c-9.33301 26.667 -23.333 72.667 -42 138c-9.33301 32.667 -18.333 62.5 -27 89.5l-24 73.5c-15.333 45.333 -29.666 81.666 -42.999 108.999zM245.997 800.999c78.667 36.667 127 97.667 145 183
c9.33301 7.33301 20 11 32 11c10.667 0 19.667 -3 27 -9s11 -15.667 11 -29c0 -34 -26 -69 -78 -105s-93.333 -54 -124 -54c-7.33301 0 -12 1.33301 -14 4z" />
    <glyph glyph-name="cent" unicode="&#xc2;" horiz-adv-x="647" 
d="M560 -6c-30.667 0 -58.001 19.332 -82.001 57.999s-48 96.667 -72 174h-309c-26 -67.333 -39 -110.666 -39 -129.999c0 -30.667 8 -59 24 -85c-13.333 -11.333 -28.333 -17 -45 -17c-25.333 0 -38 13.333 -38 40c0 25.333 13 69 39 131l41 94l44 95
c15.333 32 30 64.667 44 98s27.667 68 41 104c26 70.667 39 125.667 39 165c0 3.33301 -0.166992 6.5 -0.5 9.5s-0.833008 6.16699 -1.5 9.5c5.33301 4.66699 15 7 29 7c25.333 0 49 -16.667 71 -50c11.333 -16.667 22 -36.167 32 -58.5s19.667 -47.5 29 -75.5l28.5 -86
l29.5 -90c10 -30.667 21.5 -62.167 34.5 -94.5s27.167 -65.5 42.5 -99.5c30.667 -68 65.334 -124.667 104.001 -170c-22.667 -18.667 -50 -28 -82 -28zM264.999 656.999c-4 -26.667 -14.002 -61 -30.002 -103s-40 -100 -72 -174l-38 -89.5
c-9.33301 -22.333 -15.666 -37.166 -18.999 -44.499h294c-9.33301 26.667 -23.333 72.667 -42 138c-9.33301 32.667 -18.333 62.5 -27 89.5l-24 73.5c-15.333 45.333 -29.666 81.666 -42.999 108.999zM283.997 901.999c-79.333 -70 -127.334 -105 -144.001 -105
c-9.33301 0 -15.333 3 -18 9c72.667 64.667 126.667 118.667 162 162c38.667 -47.333 93.667 -101.333 165 -162c-5.33301 -6 -11.666 -9 -18.999 -9c-17.333 0 -65.333 35 -144 105h-2z" />
    <glyph glyph-name="Ccedilla" unicode="&#xc3;" horiz-adv-x="647" 
d="M560 1c-30.667 0 -58.001 19.332 -82.001 57.999s-48 96.667 -72 174h-309c-26 -67.333 -39 -110.666 -39 -129.999c0 -30.667 8 -59 24 -85c-13.333 -11.333 -28.333 -17 -45 -17c-25.333 0 -38 13.333 -38 40c0 25.333 13 69 39 131l41 94l44 95
c15.333 32 30 64.667 44 98s27.667 68 41 104c26 70.667 39 125.667 39 165c0 3.33301 -0.166992 6.5 -0.5 9.5s-0.833008 6.16699 -1.5 9.5c5.33301 4.66699 15 7 29 7c25.333 0 49 -16.667 71 -50c11.333 -16.667 22 -36.167 32 -58.5s19.667 -47.5 29 -75.5l28.5 -86
l29.5 -90c10 -30.667 21.5 -62.167 34.5 -94.5s27.167 -65.5 42.5 -99.5c30.667 -68 65.334 -124.667 104.001 -170c-22.667 -18.667 -50 -28 -82 -28zM264.999 663.999c-4 -26.667 -14.002 -61 -30.002 -103s-40 -100 -72 -174l-38 -89.5
c-9.33301 -22.333 -15.666 -37.166 -18.999 -44.499h294c-9.33301 26.667 -23.333 72.667 -42 138c-9.33301 32.667 -18.333 62.5 -27 89.5l-24 73.5c-15.333 45.333 -29.666 81.666 -42.999 108.999zM471.997 901.999c4.66699 -0.666992 7 -7 7 -19
c0 -18.667 -9 -38 -27 -58s-45 -30 -81 -30c-21.333 0 -48 7 -80 21s-56 21 -72 21c-43.333 0 -70 -14.333 -80 -43c-4.66699 2 -7 8 -7 18c0 22 9.66699 42.667 29 62s46.333 29 81 29c19.333 0 45 -7 77 -21s56 -21 72 -21c44.667 0 71.667 14 81 42v-1z" />
    <glyph glyph-name="_196" unicode="&#xc4;" horiz-adv-x="647" 
d="M560 -6c-30.667 0 -58.001 19.332 -82.001 57.999s-48 96.667 -72 174h-309c-26 -67.333 -39 -110.666 -39 -129.999c0 -30.667 8 -59 24 -85c-13.333 -11.333 -28.333 -17 -45 -17c-25.333 0 -38 13.333 -38 40c0 25.333 13 69 39 131l41 94l44 95
c15.333 32 30 64.667 44 98s27.667 68 41 104c26 70.667 39 125.667 39 165c0 3.33301 -0.166992 6.5 -0.5 9.5s-0.833008 6.16699 -1.5 9.5c5.33301 4.66699 15 7 29 7c25.333 0 49 -16.667 71 -50c11.333 -16.667 22 -36.167 32 -58.5s19.667 -47.5 29 -75.5l28.5 -86
l29.5 -90c10 -30.667 21.5 -62.167 34.5 -94.5s27.167 -65.5 42.5 -99.5c30.667 -68 65.334 -124.667 104.001 -170c-22.667 -18.667 -50 -28 -82 -28zM264.999 656.999c-4 -26.667 -14.002 -61 -30.002 -103s-40 -100 -72 -174l-38 -89.5
c-9.33301 -22.333 -15.666 -37.166 -18.999 -44.499h294c-9.33301 26.667 -23.333 72.667 -42 138c-9.33301 32.667 -18.333 62.5 -27 89.5l-24 73.5c-15.333 45.333 -29.666 81.666 -42.999 108.999zM216.997 898.999c31.333 0 47 -15 47 -45c0 -17.333 -5 -31.333 -15 -42
s-24 -16 -42 -16c-30.667 0 -46 15.333 -46 46c0 16 5 29.667 15 41s23.333 17 40 17zM370.997 897.999c31.333 0 47 -15 47 -45c0 -17.333 -5 -31.333 -15 -42s-24 -16 -42 -16c-30.667 0 -46 15.333 -46 46c0 16 5 29.667 15 41s23.333 17 40 17z" />
    <glyph glyph-name="aacute" unicode="&#xc8;" horiz-adv-x="539" 
d="M454 740c38.667 0 57.999 -15.333 57.999 -46c0 -14.667 -3.66699 -25.667 -11 -33c-53.333 40 -158.333 60 -315 60v-334c122.667 0 209.667 6 261 18c2.66699 -4.66699 4 -10.667 4 -18c0 -16.667 -12 -25 -36 -25h-18c-8.66699 0 -20.334 0.333008 -35.001 1
s-30 1.16699 -46 1.5s-33 0.833008 -51 1.5s-33.5 1.16699 -46.5 1.5s-23.5 0.5 -31.5 0.5v-352c154.667 0 263.334 20.333 326.001 61c7.33301 -7.33301 11 -18.333 11 -33c0 -13.333 -4.33301 -24.333 -13 -33s-22.667 -13 -42 -13l-289 -1
c-49.333 0 -82.666 3.33301 -99.999 10c3.33301 42 5.83301 91 7.5 147s2.5 119.333 2.5 190c0 250.667 -8.66699 378 -26 382c12 12 47.333 18 106 18zM361.999 798c-2 -2.66699 -6.66699 -4 -14 -4c-30.667 0 -72 18 -124 54s-78 71 -78 105c0 13.333 3.66699 23 11 29
c6.66699 6 15.667 9 27 9c12 0 22.667 -3.66699 32 -11c18 -85.333 66.333 -146.333 145 -183z" />
    <glyph glyph-name="endash" unicode="&#xc9;" horiz-adv-x="539" 
d="M454 740c38.667 0 57.999 -15.333 57.999 -46c0 -14.667 -3.66699 -25.667 -11 -33c-53.333 40 -158.333 60 -315 60v-334c122.667 0 209.667 6 261 18c2.66699 -4.66699 4 -10.667 4 -18c0 -16.667 -12 -25 -36 -25h-18c-8.66699 0 -20.334 0.333008 -35.001 1
s-30 1.16699 -46 1.5s-33 0.833008 -51 1.5s-33.5 1.16699 -46.5 1.5s-23.5 0.5 -31.5 0.5v-352c154.667 0 263.334 20.333 326.001 61c7.33301 -7.33301 11 -18.333 11 -33c0 -13.333 -4.33301 -24.333 -13 -33s-22.667 -13 -42 -13l-289 -1
c-49.333 0 -82.666 3.33301 -99.999 10c3.33301 42 5.83301 91 7.5 147s2.5 119.333 2.5 190c0 250.667 -8.66699 378 -26 382c12 12 47.333 18 106 18zM233.999 798c78.667 36.667 127 97.667 145 183c9.33301 7.33301 20 11 32 11c10.667 0 19.667 -3 27 -9
s11 -15.667 11 -29c0 -34 -26 -69 -78 -105s-93.333 -54 -124 -54c-7.33301 0 -12 1.33301 -14 4z" />
    <glyph glyph-name="sterling" unicode="&#xca;" horiz-adv-x="539" 
d="M454 740c38.667 0 57.999 -15.333 57.999 -46c0 -14.667 -3.66699 -25.667 -11 -33c-53.333 40 -158.333 60 -315 60v-334c122.667 0 209.667 6 261 18c2.66699 -4.66699 4 -10.667 4 -18c0 -16.667 -12 -25 -36 -25h-18c-8.66699 0 -20.334 0.333008 -35.001 1
s-30 1.16699 -46 1.5s-33 0.833008 -51 1.5s-33.5 1.16699 -46.5 1.5s-23.5 0.5 -31.5 0.5v-352c154.667 0 263.334 20.333 326.001 61c7.33301 -7.33301 11 -18.333 11 -33c0 -13.333 -4.33301 -24.333 -13 -33s-22.667 -13 -42 -13l-289 -1
c-49.333 0 -82.666 3.33301 -99.999 10c3.33301 42 5.83301 91 7.5 147s2.5 119.333 2.5 190c0 250.667 -8.66699 378 -26 382c12 12 47.333 18 106 18zM285.999 898c-79.333 -70 -127.334 -105 -144.001 -105c-9.33301 0 -15.333 3 -18 9
c72.667 64.667 126.667 118.667 162 162c38.667 -47.333 93.667 -101.333 165 -162c-5.33301 -6 -11.666 -9 -18.999 -9c-17.333 0 -65.333 35 -144 105h-2z" />
    <glyph glyph-name="_203" unicode="&#xcb;" horiz-adv-x="539" 
d="M454 740c38.667 0 57.999 -15.333 57.999 -46c0 -14.667 -3.66699 -25.667 -11 -33c-53.333 40 -158.333 60 -315 60v-334c122.667 0 209.667 6 261 18c2.66699 -4.66699 4 -10.667 4 -18c0 -16.667 -12 -25 -36 -25h-18c-8.66699 0 -20.334 0.333008 -35.001 1
s-30 1.16699 -46 1.5s-33 0.833008 -51 1.5s-33.5 1.16699 -46.5 1.5s-23.5 0.5 -31.5 0.5v-352c154.667 0 263.334 20.333 326.001 61c7.33301 -7.33301 11 -18.333 11 -33c0 -13.333 -4.33301 -24.333 -13 -33s-22.667 -13 -42 -13l-289 -1
c-49.333 0 -82.666 3.33301 -99.999 10c3.33301 42 5.83301 91 7.5 147s2.5 119.333 2.5 190c0 250.667 -8.66699 378 -26 382c12 12 47.333 18 106 18zM369.999 902c31.333 0 47 -15 47 -45c0 -17.333 -5 -31.333 -15 -42s-24 -16 -42 -16c-30.667 0 -46 15.333 -46 46
c0 16 5 29.667 15 41s23.333 17 40 17zM217.999 901c31.333 0 47 -15 47 -45c0 -17.333 -5 -31.333 -15 -42s-24 -16 -42 -16c-30.667 0 -46 15.333 -46 46c0 16 5 29.667 15 41s23.333 17 40 17z" />
    <glyph glyph-name="ccedilla" unicode="&#xcc;" horiz-adv-x="273" 
d="M142 749c20 0 32.334 -5.33496 37.001 -16.002c4.66699 -10 7 -41 7 -93v-111v-102c0 -235.333 8 -373.333 24 -414c-20.667 -12.667 -48.667 -19 -84 -19c-16.667 0 -27.667 5.66699 -33 17c-4.66699 10 -7 29 -7 57v30c0 17.333 0.333008 42.333 1 75
s1 64.334 1 95.001v90c0 224.667 -7.33301 346.667 -22 366c5.33301 6.66699 15.666 12.334 30.999 17.001c17.333 5.33301 33 8 47 8h-2zM183.001 802.998c-2 -2.66699 -6.66699 -4 -14 -4c-30.667 0 -72 18 -124 54s-78 71 -78 105c0 13.333 3.66699 23 11 29
c6.66699 6 15.667 9 27 9c12 0 22.667 -3.66699 32 -11c18 -85.333 66.333 -146.333 145 -183z" />
    <glyph glyph-name="ecircumflex" unicode="&#xcd;" horiz-adv-x="270" 
d="M140 749c20 0 32.334 -5.33496 37.001 -16.002c4.66699 -10 7 -41 7 -93v-111v-102c0 -235.333 8 -373.333 24 -414c-20.667 -12.667 -48.667 -19 -84 -19c-16.667 0 -27.667 5.66699 -33 17c-4.66699 10 -7 29 -7 57v30c0 17.333 0.333008 42.333 1 75
s1 64.334 1 95.001v90c0 224.667 -7.33301 346.667 -22 366c5.33301 6.66699 15.666 12.334 30.999 17.001c17.333 5.33301 33 8 47 8h-2zM84.001 801.998c78.667 36.667 127 97.667 145 183c9.33301 7.33301 20 11 32 11c10.667 0 19.667 -3 27 -9s11 -15.667 11 -29
c0 -34 -26 -69 -78 -105s-93.333 -54 -124 -54c-7.33301 0 -12 1.33301 -14 4z" />
    <glyph glyph-name="_206" unicode="&#xce;" horiz-adv-x="455" 
d="M231 749c20 0 32.334 -5.33496 37.001 -16.002c4.66699 -10 7 -41 7 -93v-111v-102c0 -235.333 8 -373.333 24 -414c-20.667 -12.667 -48.667 -19 -84 -19c-16.667 0 -27.667 5.66699 -33 17c-4.66699 10 -7 29 -7 57v30c0 17.333 0.333008 42.333 1 75
s1 64.334 1 95.001v90c0 224.667 -7.33301 346.667 -22 366c5.33301 6.66699 15.666 12.334 30.999 17.001c17.333 5.33301 33 8 47 8h-2zM217.001 900.998c-79.333 -70 -127.334 -105 -144.001 -105c-9.33301 0 -15.333 3 -18 9c72.667 64.667 126.667 118.667 162 162
c38.667 -47.333 93.667 -101.333 165 -162c-5.33301 -6 -11.666 -9 -18.999 -9c-17.333 0 -65.333 35 -144 105h-2z" />
    <glyph glyph-name="iacute" unicode="&#xd2;" 
d="M379 728c-81.333 0 -141.001 -33 -179.001 -99s-57 -153.667 -57 -263c0 -108.667 21.667 -194.667 65 -258c42.667 -62.667 101.667 -94 177 -94c158.667 0 238 118.667 238 356c0 108 -20.333 194.667 -61 260c-41.333 66 -101.666 99 -180.999 99zM378.999 -7
c-104 0 -186.333 30.001 -247 90.001s-91 147.667 -91 263c0 116.667 30.667 212.667 92 288s143.333 113 246 113c106.667 0 190.667 -31 252 -93c61.333 -62.667 92 -151.334 92 -266.001c0 -118.667 -31 -214 -93 -286s-145.333 -108 -250 -108zM448.999 800.001
c-2 -2.66699 -6.66699 -4 -14 -4c-30.667 0 -72 18 -124 54s-78 71 -78 105c0 13.333 3.66699 23 11 29c6.66699 6 15.667 9 27 9c12 0 22.667 -3.66699 32 -11c18 -85.333 66.333 -146.333 145 -183z" />
    <glyph glyph-name="idieresis" unicode="&#xd3;" 
d="M379 728c-81.333 0 -141.001 -33 -179.001 -99s-57 -153.667 -57 -263c0 -108.667 21.667 -194.667 65 -258c42.667 -62.667 101.667 -94 177 -94c158.667 0 238 118.667 238 356c0 108 -20.333 194.667 -61 260c-41.333 66 -101.666 99 -180.999 99zM378.999 -7
c-104 0 -186.333 30.001 -247 90.001s-91 147.667 -91 263c0 116.667 30.667 212.667 92 288s143.333 113 246 113c106.667 0 190.667 -31 252 -93c61.333 -62.667 92 -151.334 92 -266.001c0 -118.667 -31 -214 -93 -286s-145.333 -108 -250 -108zM343.999 796.001
c78.667 36.667 127 97.667 145 183c9.33301 7.33301 20 11 32 11c10.667 0 19.667 -3 27 -9s11 -15.667 11 -29c0 -34 -26 -69 -78 -105s-93.333 -54 -124 -54c-7.33301 0 -12 1.33301 -14 4z" />
    <glyph glyph-name="section" unicode="&#xd4;" 
d="M379 728c-81.333 0 -141.001 -33 -179.001 -99s-57 -153.667 -57 -263c0 -108.667 21.667 -194.667 65 -258c42.667 -62.667 101.667 -94 177 -94c158.667 0 238 118.667 238 356c0 108 -20.333 194.667 -61 260c-41.333 66 -101.666 99 -180.999 99zM378.999 -7
c-104 0 -186.333 30.001 -247 90.001s-91 147.667 -91 263c0 116.667 30.667 212.667 92 288s143.333 113 246 113c106.667 0 190.667 -31 252 -93c61.333 -62.667 92 -151.334 92 -266.001c0 -118.667 -31 -214 -93 -286s-145.333 -108 -250 -108zM387.999 900.001
c-79.333 -70 -127.334 -105 -144.001 -105c-9.33301 0 -15.333 3 -18 9c72.667 64.667 126.667 118.667 162 162c38.667 -47.333 93.667 -101.333 165 -162c-5.33301 -6 -11.666 -9 -18.999 -9c-17.333 0 -65.333 35 -144 105h-2z" />
    <glyph glyph-name="icircumflex" unicode="&#xd5;" 
d="M379 728c-81.333 0 -141.001 -33 -179.001 -99s-57 -153.667 -57 -263c0 -108.667 21.667 -194.667 65 -258c42.667 -62.667 101.667 -94 177 -94c158.667 0 238 118.667 238 356c0 108 -20.333 194.667 -61 260c-41.333 66 -101.666 99 -180.999 99zM378.999 -7
c-104 0 -186.333 30.001 -247 90.001s-91 147.667 -91 263c0 116.667 30.667 212.667 92 288s143.333 113 246 113c106.667 0 190.667 -31 252 -93c61.333 -62.667 92 -151.334 92 -266.001c0 -118.667 -31 -214 -93 -286s-145.333 -108 -250 -108zM560.999 902.001
c4.66699 -0.666992 7 -7 7 -19c0 -18.667 -9 -38 -27 -58s-45 -30 -81 -30c-21.333 0 -48 7 -80 21s-56 21 -72 21c-43.333 0 -70 -14.333 -80 -43c-4.66699 2 -7 8 -7 18c0 22 9.66699 42.667 29 62s46.333 29 81 29c19.333 0 45 -7 77 -21s56 -21 72 -21
c44.667 0 71.667 14 81 42v-1z" />
    <glyph glyph-name="_214" unicode="&#xd6;" 
d="M379 728c-81.333 0 -141.001 -33 -179.001 -99s-57 -153.667 -57 -263c0 -108.667 21.667 -194.667 65 -258c42.667 -62.667 101.667 -94 177 -94c158.667 0 238 118.667 238 356c0 108 -20.333 194.667 -61 260c-41.333 66 -101.666 99 -180.999 99zM378.999 -7
c-104 0 -186.333 30.001 -247 90.001s-91 147.667 -91 263c0 116.667 30.667 212.667 92 288s143.333 113 246 113c106.667 0 190.667 -31 252 -93c61.333 -62.667 92 -151.334 92 -266.001c0 -118.667 -31 -214 -93 -286s-145.333 -108 -250 -108zM304.999 903.001
c31.333 0 47 -15 47 -45c0 -17.333 -5 -31.333 -15 -42s-24 -16 -42 -16c-30.667 0 -46 15.333 -46 46c0 16 5 29.667 15 41s23.333 17 40 17zM458.999 902.001c31.333 0 47 -15 47 -45c0 -17.333 -5 -31.333 -15 -42s-24 -16 -42 -16c-30.667 0 -46 15.333 -46 46
c0 16 5 29.667 15 41s23.333 17 40 17z" />
    <glyph glyph-name="_215" unicode="&#xd7;" horiz-adv-x="507" 
d="M100 487c6.66699 0 13.667 -1 21 -3c6.66699 -2 13.667 -5 21 -9c3.33301 -2 6.5 -4 9.5 -6s6.16699 -4 9.5 -6c5.33301 -3.33301 11.666 -9.33301 18.999 -18l18 -21l19 -25c4 -5.33301 7.5 -10.333 10.5 -15s5.83301 -8.66699 8.5 -12
c4.66699 -7.33301 11.667 -17.333 21 -30c8.66699 -13.333 15.667 -23.333 21 -30l156 152c8.66699 8.66699 16.667 13 24 13c6 0 11 -3 15 -9s6 -13 6 -21c-10.667 -6.66699 -30.667 -23.667 -60 -51l-118 -113c62 -86 125 -145 189 -177c-14 -25.333 -35 -38 -63 -38
c-12.667 0 -26 4 -40 12c-13.333 7.33301 -28.666 20.333 -45.999 39c-8.66699 9.33301 -16.5 18.166 -23.5 26.499l-19.5 23.5l-21 27l-28 36l-33 -33l-36 -37l-33.5 -34.5l-25.5 -25.5l-25 -25c-8.66699 -7.33301 -16.667 -11 -24 -11c-6 0 -11 3 -15 9s-6 12.333 -6 19
c28 22.667 87 78.667 177 168c-25.333 34 -46.333 61 -63 81c-17.333 20 -37.333 40 -60 60c-24 20.667 -45.333 33.334 -64 38.001c0 8.66699 6.66699 17.667 20 27s29 14 47 14z" />
    <glyph glyph-name="ugrave" unicode="&#xd9;" horiz-adv-x="660" 
d="M193 634v-186v-169c0 -96.667 13 -165.334 39 -206.001c26 -41.333 71.667 -62 137 -62c64 0 112.667 24.667 146 74s50 119.333 50 210c0 37.333 -3 97 -9 179s-9 139.667 -9 173s3 58 9 74s17.333 24 34 24c9.33301 0 18 -2 26 -6
c-15.333 -40.667 -23 -111.667 -23 -213v-32.5c0 -13 0.333008 -28.167 1 -45.5s1 -32.833 1 -46.5v-34.5c0 -52.667 -2 -97 -6 -133c-4 -37.333 -11.333 -71.666 -22 -102.999c-11.333 -33.333 -26.333 -59.333 -45 -78c-19.333 -19.333 -44.333 -34.333 -75 -45
c-30 -10.667 -67.333 -16 -112 -16c-41.333 0 -76.333 5 -105 15c-29.333 10 -52.333 23.333 -69 40s-30 39 -40 67c-9.33301 26.667 -15.666 54.667 -18.999 84c-1.33301 14 -2.33301 29.5 -3 46.5s-1 35.833 -1 56.5c0 276.667 -11.667 417.667 -35 423
c5.33301 6 16 11.667 32 17c17.333 5.33301 34.666 8 51.999 8c21.333 0 35 -6.33301 41 -19c6 -13.333 9 -44.333 9 -93zM436 799c-2 -2.66699 -6.66699 -4 -14 -4c-30.667 0 -72 18 -124 54s-78 71 -78 105c0 13.333 3.66699 23 11 29c6.66699 6 15.667 9 27 9
c12 0 22.667 -3.66699 32 -11c18 -85.333 66.333 -146.333 145 -183z" />
    <glyph glyph-name="at" unicode="&#xda;" horiz-adv-x="660" 
d="M193 634v-186v-169c0 -96.667 13 -165.334 39 -206.001c26 -41.333 71.667 -62 137 -62c64 0 112.667 24.667 146 74s50 119.333 50 210c0 37.333 -3 97 -9 179s-9 139.667 -9 173s3 58 9 74s17.333 24 34 24c9.33301 0 18 -2 26 -6
c-15.333 -40.667 -23 -111.667 -23 -213v-32.5c0 -13 0.333008 -28.167 1 -45.5s1 -32.833 1 -46.5v-34.5c0 -52.667 -2 -97 -6 -133c-4 -37.333 -11.333 -71.666 -22 -102.999c-11.333 -33.333 -26.333 -59.333 -45 -78c-19.333 -19.333 -44.333 -34.333 -75 -45
c-30 -10.667 -67.333 -16 -112 -16c-41.333 0 -76.333 5 -105 15c-29.333 10 -52.333 23.333 -69 40s-30 39 -40 67c-9.33301 26.667 -15.666 54.667 -18.999 84c-1.33301 14 -2.33301 29.5 -3 46.5s-1 35.833 -1 56.5c0 276.667 -11.667 417.667 -35 423
c5.33301 6 16 11.667 32 17c17.333 5.33301 34.666 8 51.999 8c21.333 0 35 -6.33301 41 -19c6 -13.333 9 -44.333 9 -93zM314 797c78.667 36.667 127 97.667 145 183c9.33301 7.33301 20 11 32 11c10.667 0 19.667 -3 27 -9s11 -15.667 11 -29c0 -34 -26 -69 -78 -105
s-93.333 -54 -124 -54c-7.33301 0 -12 1.33301 -14 4z" />
    <glyph glyph-name="_220" unicode="&#xdc;" horiz-adv-x="660" 
d="M193 634v-186v-169c0 -96.667 13 -165.334 39 -206.001c26 -41.333 71.667 -62 137 -62c64 0 112.667 24.667 146 74s50 119.333 50 210c0 37.333 -3 97 -9 179s-9 139.667 -9 173s3 58 9 74s17.333 24 34 24c9.33301 0 18 -2 26 -6
c-15.333 -40.667 -23 -111.667 -23 -213v-32.5c0 -13 0.333008 -28.167 1 -45.5s1 -32.833 1 -46.5v-34.5c0 -52.667 -2 -97 -6 -133c-4 -37.333 -11.333 -71.666 -22 -102.999c-11.333 -33.333 -26.333 -59.333 -45 -78c-19.333 -19.333 -44.333 -34.333 -75 -45
c-30 -10.667 -67.333 -16 -112 -16c-41.333 0 -76.333 5 -105 15c-29.333 10 -52.333 23.333 -69 40s-30 39 -40 67c-9.33301 26.667 -15.666 54.667 -18.999 84c-1.33301 14 -2.33301 29.5 -3 46.5s-1 35.833 -1 56.5c0 276.667 -11.667 417.667 -35 423
c5.33301 6 16 11.667 32 17c17.333 5.33301 34.666 8 51.999 8c21.333 0 35 -6.33301 41 -19c6 -13.333 9 -44.333 9 -93zM289 902c31.333 0 47 -15 47 -45c0 -17.333 -5 -31.333 -15 -42s-24 -16 -42 -16c-30.667 0 -46 15.333 -46 46c0 16 5 29.667 15 41s23.333 17 40 17
zM444 901c31.333 0 47 -15 47 -45c0 -17.333 -5 -31.333 -15 -42s-24 -16 -42 -16c-30.667 0 -46 15.333 -46 46c0 16 5 29.667 15 41s23.333 17 40 17z" />
    <glyph glyph-name="greaterequal" unicode="&#xdd;" horiz-adv-x="628" 
d="M306 367c-4 7.33301 -8.49902 16.165 -13.499 26.498l-17.5 35.5l-17.5 34.5l-12.5 24.5c-7.33301 12.667 -16.333 29.667 -27 51l-27 48l-11 18c-4 6.66699 -8.66699 13.667 -14 21c-9.33301 14 -18.333 25.333 -27 34c-8 8 -17 16 -27 24
c-9.33301 7.33301 -18.666 12.666 -27.999 15.999c-10 3.33301 -19.667 5 -29 5c-16.667 0 -33 -2.33301 -49 -7c-2.66699 0.666992 -4 2.66699 -4 6c0 9.33301 16.667 19 50 29c32.667 10 62.667 15 90 15c11.333 0 21.333 -1.33301 30 -4
c10.667 -3.33301 20.667 -8.66602 30 -15.999c5.33301 -4 10.166 -7.83301 14.499 -11.5l12.5 -10.5c8 -7.33301 17 -18.333 27 -33c5.33301 -7.33301 10.166 -14.333 14.499 -21l11.5 -18l27 -48c10.667 -21.333 19.667 -38.333 27 -51l12.5 -24l18.5 -34l19 -34.5
c5.33301 -9.66699 9.66602 -18.167 12.999 -25.5c50 60 87 109.667 111 149c23.333 38.667 35 70.334 35 95.001c0 27.333 -6.33301 48.333 -19 63c10 12.667 25.667 19 47 19c32.667 0 49 -15 49 -45c0 -57.333 -73.333 -157.333 -220 -300c0 -194 8.33301 -322 25 -384
c-20.667 -12.667 -48.667 -19 -84 -19c-16.667 0 -28 6.33301 -34 19c-5.33301 12 -8.66602 39.333 -9.99902 82c0 6 0.166992 17.667 0.5 35s0.833008 41 1.5 71s1.16699 58.333 1.5 85s0.5 52.334 0.5 77.001zM338.001 802.999c78.667 36.667 127 97.667 145 183
c9.33301 7.33301 20 11 32 11c10.667 0 19.667 -3 27 -9s11 -15.667 11 -29c0 -34 -26 -69 -78 -105s-93.333 -54 -124 -54c-7.33301 0 -12 1.33301 -14 4z" />
    <glyph glyph-name="mu" unicode="&#xe0;" horiz-adv-x="565" 
d="M542 65c1.33301 0 1.99902 -0.998047 1.99902 -2.99805c0 -10.667 -15 -23.334 -45 -38.001c-30.667 -15.333 -58.667 -23 -84 -23c-23.333 0 -38.666 8.66699 -45.999 26c-6.66699 16 -10 47 -10 93c-20.667 -36.667 -48.334 -66.667 -83.001 -90
c-33.333 -22.667 -69.666 -34 -108.999 -34c-38 0 -69 10 -93 30s-36 48.667 -36 86c0 99.333 106.667 158.666 320 177.999v115c0 45.333 -7 77 -21 95s-37.333 27 -70 27c-29.333 0 -54.333 -7 -75 -21s-31 -33.333 -31 -58c0 -24 7.33301 -44.667 22 -62
c-14.667 -16.667 -35.667 -25 -63 -25c-17.333 0 -31.333 5 -42 15c-11.333 10 -17 24.667 -17 44c0 28 12 52 36 72s52 34 84 42s66 12 102 12c58.667 0 102.667 -12 132 -36s44 -69.667 44 -137v-262c0 -24 2 -40 6 -48s12 -12 24 -12c16 0 33.667 4.33301 53 13v1z
M218.999 63.002c53.333 0 99.666 26.001 138.999 78.001v130c-69.333 -7.33301 -122.333 -22.333 -159 -45s-55 -51.667 -55 -87c0 -22.667 6.66699 -41.334 20 -56.001c12.667 -14 31.334 -21 56.001 -21zM340.999 593.003c-2 -2.66699 -6.66699 -4 -14 -4
c-30.667 0 -72 18 -124 54s-78 71 -78 105c0 13.333 3.66699 23 11 29c6.66699 6 15.667 9 27 9c12 0 22.667 -3.66699 32 -11c18 -85.333 66.333 -146.333 145 -183z" />
    <glyph glyph-name="product" unicode="&#xe1;" horiz-adv-x="565" 
d="M542 65c1.33301 0 1.99902 -0.998047 1.99902 -2.99805c0 -10.667 -15 -23.334 -45 -38.001c-30.667 -15.333 -58.667 -23 -84 -23c-23.333 0 -38.666 8.66699 -45.999 26c-6.66699 16 -10 47 -10 93c-20.667 -36.667 -48.334 -66.667 -83.001 -90
c-33.333 -22.667 -69.666 -34 -108.999 -34c-38 0 -69 10 -93 30s-36 48.667 -36 86c0 99.333 106.667 158.666 320 177.999v115c0 45.333 -7 77 -21 95s-37.333 27 -70 27c-29.333 0 -54.333 -7 -75 -21s-31 -33.333 -31 -58c0 -24 7.33301 -44.667 22 -62
c-14.667 -16.667 -35.667 -25 -63 -25c-17.333 0 -31.333 5 -42 15c-11.333 10 -17 24.667 -17 44c0 28 12 52 36 72s52 34 84 42s66 12 102 12c58.667 0 102.667 -12 132 -36s44 -69.667 44 -137v-262c0 -24 2 -40 6 -48s12 -12 24 -12c16 0 33.667 4.33301 53 13v1z
M218.999 63.002c53.333 0 99.666 26.001 138.999 78.001v130c-69.333 -7.33301 -122.333 -22.333 -159 -45s-55 -51.667 -55 -87c0 -22.667 6.66699 -41.334 20 -56.001c12.667 -14 31.334 -21 56.001 -21zM226.999 591.003c78.667 36.667 127 97.667 145 183
c9.33301 7.33301 20 11 32 11c10.667 0 19.667 -3 27 -9s11 -15.667 11 -29c0 -34 -26 -69 -78 -105s-93.333 -54 -124 -54c-7.33301 0 -12 1.33301 -14 4z" />
    <glyph glyph-name="copyright" unicode="&#xe2;" horiz-adv-x="565" 
d="M542 65c1.33301 0 1.99902 -0.998047 1.99902 -2.99805c0 -10.667 -15 -23.334 -45 -38.001c-30.667 -15.333 -58.667 -23 -84 -23c-23.333 0 -38.666 8.66699 -45.999 26c-6.66699 16 -10 47 -10 93c-20.667 -36.667 -48.334 -66.667 -83.001 -90
c-33.333 -22.667 -69.666 -34 -108.999 -34c-38 0 -69 10 -93 30s-36 48.667 -36 86c0 99.333 106.667 158.666 320 177.999v115c0 45.333 -7 77 -21 95s-37.333 27 -70 27c-29.333 0 -54.333 -7 -75 -21s-31 -33.333 -31 -58c0 -24 7.33301 -44.667 22 -62
c-14.667 -16.667 -35.667 -25 -63 -25c-17.333 0 -31.333 5 -42 15c-11.333 10 -17 24.667 -17 44c0 28 12 52 36 72s52 34 84 42s66 12 102 12c58.667 0 102.667 -12 132 -36s44 -69.667 44 -137v-262c0 -24 2 -40 6 -48s12 -12 24 -12c16 0 33.667 4.33301 53 13v1z
M218.999 63.002c53.333 0 99.666 26.001 138.999 78.001v130c-69.333 -7.33301 -122.333 -22.333 -159 -45s-55 -51.667 -55 -87c0 -22.667 6.66699 -41.334 20 -56.001c12.667 -14 31.334 -21 56.001 -21zM267.999 693.003c-79.333 -70 -127.334 -105 -144.001 -105
c-9.33301 0 -15.333 3 -18 9c72.667 64.667 126.667 118.667 162 162c38.667 -47.333 93.667 -101.333 165 -162c-5.33301 -6 -11.666 -9 -18.999 -9c-17.333 0 -65.333 35 -144 105h-2z" />
    <glyph glyph-name="summation" unicode="&#xe3;" horiz-adv-x="565" 
d="M542 65c1.33301 0 1.99902 -0.998047 1.99902 -2.99805c0 -10.667 -15 -23.334 -45 -38.001c-30.667 -15.333 -58.667 -23 -84 -23c-23.333 0 -38.666 8.66699 -45.999 26c-6.66699 16 -10 47 -10 93c-20.667 -36.667 -48.334 -66.667 -83.001 -90
c-33.333 -22.667 -69.666 -34 -108.999 -34c-38 0 -69 10 -93 30s-36 48.667 -36 86c0 99.333 106.667 158.666 320 177.999v115c0 45.333 -7 77 -21 95s-37.333 27 -70 27c-29.333 0 -54.333 -7 -75 -21s-31 -33.333 -31 -58c0 -24 7.33301 -44.667 22 -62
c-14.667 -16.667 -35.667 -25 -63 -25c-17.333 0 -31.333 5 -42 15c-11.333 10 -17 24.667 -17 44c0 28 12 52 36 72s52 34 84 42s66 12 102 12c58.667 0 102.667 -12 132 -36s44 -69.667 44 -137v-262c0 -24 2 -40 6 -48s12 -12 24 -12c16 0 33.667 4.33301 53 13v1z
M218.999 63.002c53.333 0 99.666 26.001 138.999 78.001v130c-69.333 -7.33301 -122.333 -22.333 -159 -45s-55 -51.667 -55 -87c0 -22.667 6.66699 -41.334 20 -56.001c12.667 -14 31.334 -21 56.001 -21zM440.999 704.003c4.66699 -0.666992 7 -7 7 -19
c0 -18.667 -9 -38 -27 -58s-45 -30 -81 -30c-21.333 0 -48 7 -80 21s-56 21 -72 21c-43.333 0 -70 -14.333 -80 -43c-4.66699 2 -7 8 -7 18c0 22 9.66699 42.667 29 62s46.333 29 81 29c19.333 0 45 -7 77 -21s56 -21 72 -21c44.667 0 71.667 14 81 42v-1z" />
    <glyph glyph-name="_228" unicode="&#xe4;" horiz-adv-x="565" 
d="M542 65c1.33301 0 1.99902 -0.998047 1.99902 -2.99805c0 -10.667 -15 -23.334 -45 -38.001c-30.667 -15.333 -58.667 -23 -84 -23c-23.333 0 -38.666 8.66699 -45.999 26c-6.66699 16 -10 47 -10 93c-20.667 -36.667 -48.334 -66.667 -83.001 -90
c-33.333 -22.667 -69.666 -34 -108.999 -34c-38 0 -69 10 -93 30s-36 48.667 -36 86c0 99.333 106.667 158.666 320 177.999v115c0 45.333 -7 77 -21 95s-37.333 27 -70 27c-29.333 0 -54.333 -7 -75 -21s-31 -33.333 -31 -58c0 -24 7.33301 -44.667 22 -62
c-14.667 -16.667 -35.667 -25 -63 -25c-17.333 0 -31.333 5 -42 15c-11.333 10 -17 24.667 -17 44c0 28 12 52 36 72s52 34 84 42s66 12 102 12c58.667 0 102.667 -12 132 -36s44 -69.667 44 -137v-262c0 -24 2 -40 6 -48s12 -12 24 -12c16 0 33.667 4.33301 53 13v1z
M218.999 63.002c53.333 0 99.666 26.001 138.999 78.001v130c-69.333 -7.33301 -122.333 -22.333 -159 -45s-55 -51.667 -55 -87c0 -22.667 6.66699 -41.334 20 -56.001c12.667 -14 31.334 -21 56.001 -21zM196.999 688.003c31.333 0 47 -15 47 -45
c0 -17.333 -5 -31.333 -15 -42s-24 -16 -42 -16c-30.667 0 -46 15.333 -46 46c0 16 5 29.667 15 41s23.333 17 40 17zM351.999 687.003c31.333 0 47 -15 47 -45c0 -17.333 -5 -31.333 -15 -42s-24 -16 -42 -16c-30.667 0 -46 15.333 -46 46c0 16 5 29.667 15 41
s23.333 17 40 17z" />
    <glyph glyph-name="Atilde" unicode="&#xe8;" horiz-adv-x="532" 
d="M149 309c-0.666992 -3.33301 -1 -7.33594 -1 -12.0029v-15c0 -42.667 5.66699 -82.667 17 -120c10.667 -35.333 29.334 -65.333 56.001 -90c26 -24 58.333 -36 97 -36c37.333 0 72.333 9.33301 105 28s56 36 70 52c1.33301 0 2 -1.33301 2 -4c0 -10 -8 -23.333 -24 -40
c-15.333 -16.667 -40.333 -33 -75 -49c-34 -16 -71.333 -24 -112 -24c-76.667 0 -134.334 24 -173.001 72c-39.333 48.667 -59 115.334 -59 200.001c0 80.667 21.667 147.334 65 200.001c42.667 52 104.667 78 186 78c63.333 0 111.333 -15.333 144 -46
c33.333 -31.333 50 -69.333 50 -114c0 -16 -2.33301 -29 -7 -39c-4.66699 -10.667 -10.667 -19 -18 -25c-6.66699 -5.33301 -16 -9.66602 -28 -12.999s-22.333 -5.33301 -31 -6c-4.66699 -0.666992 -10 -1 -16 -1h-20zM404 395.997c0 40.667 -9.33301 73.333 -28 98
c-19.333 25.333 -47.333 38 -84 38c-45.333 0 -80 -19.333 -104 -58c-24 -39.333 -37 -87.333 -39 -144h98h90c25.333 0 43.333 4.66699 54 14c10 8.66699 15 25.667 15 51zM362 591.996c-2 -2.66699 -6.66699 -4 -14 -4c-30.667 0 -72 18 -124 54s-78 71 -78 105
c0 13.333 3.66699 23 11 29c6.66699 6 15.667 9 27 9c12 0 22.667 -3.66699 32 -11c18 -85.333 66.333 -146.333 145 -183z" />
    <glyph glyph-name="adieresis" unicode="&#xe9;" horiz-adv-x="532" 
d="M149 309c-0.666992 -3.33301 -1 -7.33594 -1 -12.0029v-15c0 -42.667 5.66699 -82.667 17 -120c10.667 -35.333 29.334 -65.333 56.001 -90c26 -24 58.333 -36 97 -36c37.333 0 72.333 9.33301 105 28s56 36 70 52c1.33301 0 2 -1.33301 2 -4c0 -10 -8 -23.333 -24 -40
c-15.333 -16.667 -40.333 -33 -75 -49c-34 -16 -71.333 -24 -112 -24c-76.667 0 -134.334 24 -173.001 72c-39.333 48.667 -59 115.334 -59 200.001c0 80.667 21.667 147.334 65 200.001c42.667 52 104.667 78 186 78c63.333 0 111.333 -15.333 144 -46
c33.333 -31.333 50 -69.333 50 -114c0 -16 -2.33301 -29 -7 -39c-4.66699 -10.667 -10.667 -19 -18 -25c-6.66699 -5.33301 -16 -9.66602 -28 -12.999s-22.333 -5.33301 -31 -6c-4.66699 -0.666992 -10 -1 -16 -1h-20zM404 395.997c0 40.667 -9.33301 73.333 -28 98
c-19.333 25.333 -47.333 38 -84 38c-45.333 0 -80 -19.333 -104 -58c-24 -39.333 -37 -87.333 -39 -144h98h90c25.333 0 43.333 4.66699 54 14c10 8.66699 15 25.667 15 51zM263 592.996c78.667 36.667 127 97.667 145 183c9.33301 7.33301 20 11 32 11
c10.667 0 19.667 -3 27 -9s11 -15.667 11 -29c0 -34 -26 -69 -78 -105s-93.333 -54 -124 -54c-7.33301 0 -12 1.33301 -14 4z" />
    <glyph glyph-name="trademark" unicode="&#xea;" horiz-adv-x="532" 
d="M149 309c-0.666992 -3.33301 -1 -7.33594 -1 -12.0029v-15c0 -42.667 5.66699 -82.667 17 -120c10.667 -35.333 29.334 -65.333 56.001 -90c26 -24 58.333 -36 97 -36c37.333 0 72.333 9.33301 105 28s56 36 70 52c1.33301 0 2 -1.33301 2 -4c0 -10 -8 -23.333 -24 -40
c-15.333 -16.667 -40.333 -33 -75 -49c-34 -16 -71.333 -24 -112 -24c-76.667 0 -134.334 24 -173.001 72c-39.333 48.667 -59 115.334 -59 200.001c0 80.667 21.667 147.334 65 200.001c42.667 52 104.667 78 186 78c63.333 0 111.333 -15.333 144 -46
c33.333 -31.333 50 -69.333 50 -114c0 -16 -2.33301 -29 -7 -39c-4.66699 -10.667 -10.667 -19 -18 -25c-6.66699 -5.33301 -16 -9.66602 -28 -12.999s-22.333 -5.33301 -31 -6c-4.66699 -0.666992 -10 -1 -16 -1h-20zM404 395.997c0 40.667 -9.33301 73.333 -28 98
c-19.333 25.333 -47.333 38 -84 38c-45.333 0 -80 -19.333 -104 -58c-24 -39.333 -37 -87.333 -39 -144h98h90c25.333 0 43.333 4.66699 54 14c10 8.66699 15 25.667 15 51zM290 693.996c-79.333 -70 -127.334 -105 -144.001 -105c-9.33301 0 -15.333 3 -18 9
c72.667 64.667 126.667 118.667 162 162c38.667 -47.333 93.667 -101.333 165 -162c-5.33301 -6 -11.666 -9 -18.999 -9c-17.333 0 -65.333 35 -144 105h-2z" />
    <glyph glyph-name="_235" unicode="&#xeb;" horiz-adv-x="532" 
d="M149 309c-0.666992 -3.33301 -1 -7.33594 -1 -12.0029v-15c0 -42.667 5.66699 -82.667 17 -120c10.667 -35.333 29.334 -65.333 56.001 -90c26 -24 58.333 -36 97 -36c37.333 0 72.333 9.33301 105 28s56 36 70 52c1.33301 0 2 -1.33301 2 -4c0 -10 -8 -23.333 -24 -40
c-15.333 -16.667 -40.333 -33 -75 -49c-34 -16 -71.333 -24 -112 -24c-76.667 0 -134.334 24 -173.001 72c-39.333 48.667 -59 115.334 -59 200.001c0 80.667 21.667 147.334 65 200.001c42.667 52 104.667 78 186 78c63.333 0 111.333 -15.333 144 -46
c33.333 -31.333 50 -69.333 50 -114c0 -16 -2.33301 -29 -7 -39c-4.66699 -10.667 -10.667 -19 -18 -25c-6.66699 -5.33301 -16 -9.66602 -28 -12.999s-22.333 -5.33301 -31 -6c-4.66699 -0.666992 -10 -1 -16 -1h-20zM404 395.997c0 40.667 -9.33301 73.333 -28 98
c-19.333 25.333 -47.333 38 -84 38c-45.333 0 -80 -19.333 -104 -58c-24 -39.333 -37 -87.333 -39 -144h98h90c25.333 0 43.333 4.66699 54 14c10 8.66699 15 25.667 15 51zM223 710.996c31.333 0 47 -15 47 -45c0 -17.333 -5 -31.333 -15 -42s-24 -16 -42 -16
c-30.667 0 -46 15.333 -46 46c0 16 5 29.667 15 41s23.333 17 40 17zM377 709.996c31.333 0 47 -15 47 -45c0 -17.333 -5 -31.333 -15 -42s-24 -16 -42 -16c-30.667 0 -46 15.333 -46 46c0 16 5 29.667 15 41s23.333 17 40 17z" />
    <glyph glyph-name="lozenge" unicode="&#xec;" horiz-adv-x="283" 
d="M178 593c-2 -2.66699 -6.66699 -4 -14 -4c-30.667 0 -72 18 -124 54s-78 71 -78 105c0 13.333 3.66699 23 11 29c6.66699 6 15.667 9 27 9c12 0 22.667 -3.66699 32 -11c18 -85.333 66.333 -146.333 145 -183zM191 450c0 -205.333 5.00098 -352.333 15.001 -441
c-26 -10 -53.333 -15 -82 -15c-12 0 -20.333 3.33301 -25 10s-7 19.667 -7 39v80c0 33.333 0.333008 73.333 1 120s1 85 1 115v65c0 32 -2.66699 54 -8 66c-4.66699 10.667 -15.667 16 -33 16c-14.667 0 -30.334 -1.66699 -47.001 -5c-0.666992 0.666992 -1 1.66699 -1 3
c0 6.66699 15 14.667 45 24c31.333 9.33301 62.333 14 93 14c21.333 0 35 -6 41 -18s9 -36 9 -72z" />
    <glyph glyph-name="guilsinglright" unicode="&#xed;" horiz-adv-x="279" 
d="M64 591c78.667 36.667 127 97.667 145 183c9.33301 7.33301 20 11 32 11c10.667 0 19.667 -3 27 -9s11 -15.667 11 -29c0 -34 -26 -69 -78 -105s-93.333 -54 -124 -54c-7.33301 0 -12 1.33301 -14 4zM192 448c0 -205.333 5.00098 -352.333 15.001 -441
c-26 -10 -53.333 -15 -82 -15c-12 0 -20.333 3.33301 -25 10s-7 19.667 -7 39v80c0 33.333 0.333008 73.333 1 120s1 85 1 115v65c0 32 -2.66699 54 -8 66c-4.66699 10.667 -15.667 16 -33 16c-14.667 0 -30.334 -1.66699 -47.001 -5c-0.666992 0.666992 -1 1.66699 -1 3
c0 6.66699 15 14.667 45 24c31.333 9.33301 62.333 14 93 14c21.333 0 35 -6 41 -18s9 -36 9 -72z" />
    <glyph glyph-name="_238" unicode="&#xee;" horiz-adv-x="278" 
d="M192 449c0 -205.333 5.00098 -352.333 15.001 -441c-26 -10 -53.333 -15 -82 -15c-12 0 -20.333 3.33301 -25 10s-7 19.667 -7 39v80c0 33.333 0.333008 73.333 1 120s1 85 1 115v65c0 32 -2.66699 54 -8 66c-4.66699 10.667 -15.667 16 -33 16
c-14.667 0 -30.334 -1.66699 -47.001 -5c-0.666992 0.666992 -1 1.66699 -1 3c0 6.66699 15 14.667 45 24c31.333 9.33301 62.333 14 93 14c21.333 0 35 -6 41 -18s9 -36 9 -72zM117.001 687c-79.333 -70 -127.334 -105 -144.001 -105c-9.33301 0 -15.333 3 -18 9
c72.667 64.667 126.667 118.667 162 162c38.667 -47.333 93.667 -101.333 165 -162c-5.33301 -6 -11.666 -9 -18.999 -9c-17.333 0 -65.333 35 -144 105h-2z" />
    <glyph glyph-name="fl" unicode="&#xf2;" horiz-adv-x="598" 
d="M288 -7c-71.333 1.33301 -129.334 23.667 -174.001 67c-44.667 44 -67 112 -67 204c0 84.667 22.667 152.667 68 204s108.333 77 189 77c72.667 0 131.667 -22 177 -66c44.667 -44 67 -111.667 67 -203c0 -85.333 -22.333 -153.333 -67 -204
c-45.333 -51.333 -108.666 -77 -189.999 -77zM294.999 12.001c46 0 82.666 22.668 109.999 68.001s41 106 41 182c0 79.333 -14 143 -42 191s-64.333 72 -109 72c-45.333 0 -81.666 -22.667 -108.999 -68c-26.667 -44.667 -40 -105.334 -40 -182.001
c0 -78.667 14 -142 42 -190s64 -72 108 -72zM353.998 586.002c-2 -2.66699 -6.66699 -4 -14 -4c-31.333 0 -72.333 18 -123 54c-51.333 36 -77 71 -77 105c0 13.333 3.66699 23 11 29c6.66699 6 15.667 9 27 9c12 0 22.667 -3.66699 32 -11
c18 -85.333 66.333 -146.333 145 -183z" />
    <glyph glyph-name="quotedblbase" unicode="&#xf3;" horiz-adv-x="598" 
d="M288 -7c-71.333 1.33301 -129.334 23.667 -174.001 67c-44.667 44 -67 112 -67 204c0 84.667 22.667 152.667 68 204s108.333 77 189 77c72.667 0 131.667 -22 177 -66c44.667 -44 67 -111.667 67 -203c0 -85.333 -22.333 -153.333 -67 -204
c-45.333 -51.333 -108.666 -77 -189.999 -77zM294.999 12.001c46 0 82.666 22.668 109.999 68.001s41 106 41 182c0 79.333 -14 143 -42 191s-64.333 72 -109 72c-45.333 0 -81.666 -22.667 -108.999 -68c-26.667 -44.667 -40 -105.334 -40 -182.001
c0 -78.667 14 -142 42 -190s64 -72 108 -72zM251.998 584.002c78.667 36.667 127 97.667 145 183c9.33301 7.33301 20 11 32 11c10.667 0 19.667 -3 27 -9s11 -15.667 11 -29c0 -34 -26 -69 -78 -105s-93.333 -54 -124 -54c-7.33301 0 -12 1.33301 -14 4z" />
    <glyph glyph-name="acute" unicode="&#xf4;" horiz-adv-x="598" 
d="M288 -7c-71.333 1.33301 -129.334 23.667 -174.001 67c-44.667 44 -67 112 -67 204c0 84.667 22.667 152.667 68 204s108.333 77 189 77c72.667 0 131.667 -22 177 -66c44.667 -44 67 -111.667 67 -203c0 -85.333 -22.333 -153.333 -67 -204
c-45.333 -51.333 -108.666 -77 -189.999 -77zM294.999 12.001c46 0 82.666 22.668 109.999 68.001s41 106 41 182c0 79.333 -14 143 -42 191s-64.333 72 -109 72c-45.333 0 -81.666 -22.667 -108.999 -68c-26.667 -44.667 -40 -105.334 -40 -182.001
c0 -78.667 14 -142 42 -190s64 -72 108 -72zM304.998 687.002c-79.333 -70 -127.334 -105 -144.001 -105c-9.33301 0 -15.333 3 -18 9c72.667 64.667 126.667 118.667 162 162c38.667 -47.333 93.667 -101.333 165 -162c-5.33301 -6 -11.666 -9 -18.999 -9
c-17.333 0 -65.333 35 -144 105h-2z" />
    <glyph glyph-name="quotesinglbase" unicode="&#xf5;" horiz-adv-x="598" 
d="M288 -7c-71.333 1.33301 -129.334 23.667 -174.001 67c-44.667 44 -67 112 -67 204c0 84.667 22.667 152.667 68 204s108.333 77 189 77c72.667 0 131.667 -22 177 -66c44.667 -44 67 -111.667 67 -203c0 -85.333 -22.333 -153.333 -67 -204
c-45.333 -51.333 -108.666 -77 -189.999 -77zM294.999 12.001c46 0 82.666 22.668 109.999 68.001s41 106 41 182c0 79.333 -14 143 -42 191s-64.333 72 -109 72c-45.333 0 -81.666 -22.667 -108.999 -68c-26.667 -44.667 -40 -105.334 -40 -182.001
c0 -78.667 14 -142 42 -190s64 -72 108 -72zM471.998 689.002c4.66699 -0.666992 7 -7 7 -19c0 -18.667 -9 -38 -27 -58s-45 -30 -81 -30c-21.333 0 -48 7 -80 21s-56 21 -72 21c-43.333 0 -70 -14.333 -80 -43c-4.66699 2 -7 8 -7 18c0 22 9.66699 42.667 29 62
s46.333 29 81 29c19.333 0 45 -7 77 -21s56 -21 72 -21c44.667 0 71.667 14 81 42v-1z" />
    <glyph glyph-name="_246" unicode="&#xf6;" horiz-adv-x="598" 
d="M288 -7c-71.333 1.33301 -129.334 23.667 -174.001 67c-44.667 44 -67 112 -67 204c0 84.667 22.667 152.667 68 204s108.333 77 189 77c72.667 0 131.667 -22 177 -66c44.667 -44 67 -111.667 67 -203c0 -85.333 -22.333 -153.333 -67 -204
c-45.333 -51.333 -108.666 -77 -189.999 -77zM294.999 12.001c46 0 82.666 22.668 109.999 68.001s41 106 41 182c0 79.333 -14 143 -42 191s-64.333 72 -109 72c-45.333 0 -81.666 -22.667 -108.999 -68c-26.667 -44.667 -40 -105.334 -40 -182.001
c0 -78.667 14 -142 42 -190s64 -72 108 -72zM229.998 716.002c31.333 0 47 -15 47 -45c0 -17.333 -5 -31.333 -15 -42s-24 -16 -42 -16c-30.667 0 -46 15.333 -46 46c0 16 5 29.667 15 41s23.333 17 40 17zM384.998 715.002c31.333 0 47 -15 47 -45
c0 -17.333 -5 -31.333 -15 -42s-24 -16 -42 -16c-30.667 0 -46 15.333 -46 46c0 16 5 29.667 15 41s23.333 17 40 17z" />
    <glyph glyph-name="zcaron" unicode="&#xf7;" horiz-adv-x="553" 
d="M522 250c-10.667 1.33301 -29.167 2.33301 -55.5 3s-60.833 1 -103.5 1h-65.5c-23 0 -47.167 -0.333008 -72.5 -1s-48.833 -1 -70.5 -1h-58.5h-57c-20 0 -30 7.66699 -30 23c0 10.667 4 18.667 12 24c15.333 -0.666992 32.833 -1.16699 52.5 -1.5s41.167 -0.5 64.5 -0.5
s51.833 0.166992 85.5 0.5s72.5 0.833008 116.5 1.5s79.5 1.16699 106.5 1.5s45.833 0.5 56.5 0.5c20 0 30 -7.66699 30 -23c0 -11.333 -4.33301 -19.333 -13 -24zM285 172c40 0 60 -18.999 60 -56.999c0 -22 -6 -40 -18 -54s-29.333 -21 -52 -21
c-38.667 0 -58 19.333 -58 58c0 21.333 6.33301 38.666 19 51.999c12.667 14 29.667 21 51 21zM283 509.001c40 0 60 -18.999 60 -56.999c0 -22 -6 -40 -18 -54s-29.333 -21 -52 -21c-38.667 0 -58 19.333 -58 58c0 21.333 6.33301 38.666 19 51.999
c12.667 14 29.667 21 51 21z" />
    <glyph glyph-name="Ocircumflex" unicode="&#xf9;" horiz-adv-x="609" 
d="M92 423c0 36.667 -2.33496 59.666 -7.00195 68.999c-5.33301 10 -17.333 15 -36 15c-15.333 0 -29.666 -1.66699 -42.999 -5c-0.666992 0.666992 -1 1.66699 -1 3c0 7.33301 14.333 15.333 43 24c30 9.33301 58 14 84 14c26.667 0 43.667 -6.66699 51 -20
c6.66699 -12.667 10 -43.334 10 -92.001l-3 -242c0 -47.333 5.66699 -80.666 17 -99.999c10.667 -18.667 31.667 -28 63 -28c24.667 0 49.667 7.66699 75 23c24.667 14.667 45.667 33.667 63 57c0 56.667 -0.333008 105.667 -1 147s-1.66699 75 -3 101s-3.5 51 -6.5 75
s-7.16699 46.667 -12.5 68c24 11.333 54 17 90 17c13.333 0 22.333 -3.33301 27 -10c5.33301 -7.33301 8 -20.333 8 -39c0 -38 -1 -101.333 -3 -190c-2 -89.333 -3 -151.666 -3 -186.999c0 -32 3 -54 9 -66s17 -18 33 -18c15.333 0 33 3.33301 53 10c0.666992 0 1 -1 1 -3
c0 -8 -15 -18 -45 -30s-60 -18 -90 -18c-23.333 0 -38.333 7.33301 -45 22c-6.66699 14 -10 46 -10 96c-19.333 -35.333 -45.333 -64.333 -78 -87s-70.667 -34 -114 -34c-49.333 0 -82.666 13.667 -99.999 41c-16.667 26.667 -25 69.667 -25 129zM349.998 590.999
c-2 -2.66699 -6.66699 -4 -14 -4c-30.667 0 -72 18 -124 54s-78 71 -78 105c0 13.333 3.66699 23 11 29c6.66699 6 15.667 9 27 9c12 0 22.667 -3.66699 32 -11c18 -85.333 66.333 -146.333 145 -183z" />
    <glyph glyph-name="Ucircumflex" unicode="&#xfa;" horiz-adv-x="609" 
d="M92 423c0 36.667 -2.33496 59.666 -7.00195 68.999c-5.33301 10 -17.333 15 -36 15c-15.333 0 -29.666 -1.66699 -42.999 -5c-0.666992 0.666992 -1 1.66699 -1 3c0 7.33301 14.333 15.333 43 24c30 9.33301 58 14 84 14c26.667 0 43.667 -6.66699 51 -20
c6.66699 -12.667 10 -43.334 10 -92.001l-3 -242c0 -47.333 5.66699 -80.666 17 -99.999c10.667 -18.667 31.667 -28 63 -28c24.667 0 49.667 7.66699 75 23c24.667 14.667 45.667 33.667 63 57c0 56.667 -0.333008 105.667 -1 147s-1.66699 75 -3 101s-3.5 51 -6.5 75
s-7.16699 46.667 -12.5 68c24 11.333 54 17 90 17c13.333 0 22.333 -3.33301 27 -10c5.33301 -7.33301 8 -20.333 8 -39c0 -38 -1 -101.333 -3 -190c-2 -89.333 -3 -151.666 -3 -186.999c0 -32 3 -54 9 -66s17 -18 33 -18c15.333 0 33 3.33301 53 10c0.666992 0 1 -1 1 -3
c0 -8 -15 -18 -45 -30s-60 -18 -90 -18c-23.333 0 -38.333 7.33301 -45 22c-6.66699 14 -10 46 -10 96c-19.333 -35.333 -45.333 -64.333 -78 -87s-70.667 -34 -114 -34c-49.333 0 -82.666 13.667 -99.999 41c-16.667 26.667 -25 69.667 -25 129zM251.998 592.999
c78.667 36.667 127 97.667 145 183c9.33301 7.33301 20 11 32 11c10.667 0 19.667 -3 27 -9s11 -15.667 11 -29c0 -34 -26 -69 -78 -105s-93.333 -54 -124 -54c-7.33301 0 -12 1.33301 -14 4z" />
    <glyph glyph-name="_252" unicode="&#xfc;" horiz-adv-x="609" 
d="M92 423c0 36.667 -2.33496 59.666 -7.00195 68.999c-5.33301 10 -17.333 15 -36 15c-15.333 0 -29.666 -1.66699 -42.999 -5c-0.666992 0.666992 -1 1.66699 -1 3c0 7.33301 14.333 15.333 43 24c30 9.33301 58 14 84 14c26.667 0 43.667 -6.66699 51 -20
c6.66699 -12.667 10 -43.334 10 -92.001l-3 -242c0 -47.333 5.66699 -80.666 17 -99.999c10.667 -18.667 31.667 -28 63 -28c24.667 0 49.667 7.66699 75 23c24.667 14.667 45.667 33.667 63 57c0 56.667 -0.333008 105.667 -1 147s-1.66699 75 -3 101s-3.5 51 -6.5 75
s-7.16699 46.667 -12.5 68c24 11.333 54 17 90 17c13.333 0 22.333 -3.33301 27 -10c5.33301 -7.33301 8 -20.333 8 -39c0 -38 -1 -101.333 -3 -190c-2 -89.333 -3 -151.666 -3 -186.999c0 -32 3 -54 9 -66s17 -18 33 -18c15.333 0 33 3.33301 53 10c0.666992 0 1 -1 1 -3
c0 -8 -15 -18 -45 -30s-60 -18 -90 -18c-23.333 0 -38.333 7.33301 -45 22c-6.66699 14 -10 46 -10 96c-19.333 -35.333 -45.333 -64.333 -78 -87s-70.667 -34 -114 -34c-49.333 0 -82.666 13.667 -99.999 41c-16.667 26.667 -25 69.667 -25 129zM211.998 707.999
c31.333 0 47 -15 47 -45c0 -17.333 -5 -31.333 -15 -42s-24 -16 -42 -16c-30.667 0 -46 15.333 -46 46c0 16 5 29.667 15 41s23.333 17 40 17zM366.998 706.999c31.333 0 47 -15 47 -45c0 -17.333 -5 -31.333 -15 -42s-24 -16 -42 -16c-30.667 0 -46 15.333 -46 46
c0 16 5 29.667 15 41s23.333 17 40 17z" />
    <glyph glyph-name="hungarumlaut" unicode="&#xfd;" horiz-adv-x="595" 
d="M52 499c-0.666992 0.666992 -1 1.66699 -1 3c-0.666992 4.66699 4 10 14 16s24 11 42 15s37.667 6 59 6c32.667 0 60.667 -14 84 -42c24 -28.667 46.667 -75 68 -139c22 -65.333 50 -165.333 84 -300c44 60 78.667 121 104 183c26 62.667 39 119 39 169
c0 28 -5 51.667 -15 71c-10 18.667 -22.667 31.667 -38 39c9.33301 17.333 27.333 26 54 26c31.333 0 47 -23.667 47 -71c0 -60.667 -16.333 -130 -49 -208s-73.667 -151.333 -123 -220c-48.667 -68 -104 -125.333 -166 -172c-61.333 -46.667 -118.333 -70 -171 -70
c-28 0 -48.667 5.33301 -62 16c-14 10.667 -21 23.667 -21 39c0 9.33301 2.66699 18.333 8 27c5.33301 8 11 13.667 17 17c28.667 -28.667 63.667 -43 105 -43c60.667 0 127 38.333 199 115c-57.333 208.667 -101.333 349.667 -132 423c-30.667 72.667 -64.667 109 -102 109
c-16 0 -30.667 -2.33301 -44 -7v-2zM323 587c78.667 36.667 127 97.667 145 183c9.33301 7.33301 20 11 32 11c10.667 0 19.667 -3 27 -9s11 -15.667 11 -29c0 -34 -26 -69 -78 -105s-93.333 -54 -124 -54c-7.33301 0 -12 1.33301 -14 4z" />
    <glyph glyph-name="degree" unicode="&#x102;" horiz-adv-x="647" 
d="M560 -7c-30.667 0 -58.001 19.332 -82.001 57.999s-48 96.667 -72 174h-309c-26 -67.333 -39 -110.666 -39 -129.999c0 -30.667 8 -59 24 -85c-13.333 -11.333 -28.333 -17 -45 -17c-25.333 0 -38 13.333 -38 40c0 25.333 13 69 39 131l41 94l44 95
c15.333 32 30 64.667 44 98s27.667 68 41 104c26 70.667 39 125.667 39 165c0 3.33301 -0.166992 6.5 -0.5 9.5s-0.833008 6.16699 -1.5 9.5c5.33301 4.66699 15 7 29 7c25.333 0 49 -16.667 71 -50c11.333 -16.667 22 -36.167 32 -58.5s19.667 -47.5 29 -75.5l28.5 -86
l29.5 -90c10 -30.667 21.5 -62.167 34.5 -94.5s27.167 -65.5 42.5 -99.5c30.667 -68 65.334 -124.667 104.001 -170c-22.667 -18.667 -50 -28 -82 -28zM264.999 655.999c-4 -26.667 -14.002 -61 -30.002 -103s-40 -100 -72 -174l-38 -89.5
c-9.33301 -22.333 -15.666 -37.166 -18.999 -44.499h294c-9.33301 26.667 -23.333 72.667 -42 138c-9.33301 32.667 -18.333 62.5 -27 89.5l-24 73.5c-15.333 45.333 -29.666 81.666 -42.999 108.999zM279.997 816.999c52.667 0 79 57.333 79 172
c48.667 0 73 -20.333 73 -61c0 -35.333 -14 -66 -42 -92s-64.667 -39 -110 -39c-48.667 0 -86.667 13.333 -114 40c-28 26.667 -42 57 -42 91c0 40.667 24.333 61 73 61c0 -114.667 27.333 -172 82 -172h1z" />
    <glyph glyph-name="registered" unicode="&#x103;" horiz-adv-x="565" 
d="M542 65c1.33301 0 1.99902 -0.998047 1.99902 -2.99805c0 -10.667 -15 -23.334 -45 -38.001c-30.667 -15.333 -58.667 -23 -84 -23c-23.333 0 -38.666 8.66699 -45.999 26c-6.66699 16 -10 47 -10 93c-20.667 -36.667 -48.334 -66.667 -83.001 -90
c-33.333 -22.667 -69.666 -34 -108.999 -34c-38 0 -69 10 -93 30s-36 48.667 -36 86c0 99.333 106.667 158.666 320 177.999v115c0 45.333 -7 77 -21 95s-37.333 27 -70 27c-29.333 0 -54.333 -7 -75 -21s-31 -33.333 -31 -58c0 -24 7.33301 -44.667 22 -62
c-14.667 -16.667 -35.667 -25 -63 -25c-17.333 0 -31.333 5 -42 15c-11.333 10 -17 24.667 -17 44c0 28 12 52 36 72s52 34 84 42s66 12 102 12c58.667 0 102.667 -12 132 -36s44 -69.667 44 -137v-262c0 -24 2 -40 6 -48s12 -12 24 -12c16 0 33.667 4.33301 53 13v1z
M218.999 63.002c53.333 0 99.666 26.001 138.999 78.001v130c-69.333 -7.33301 -122.333 -22.333 -159 -45s-55 -51.667 -55 -87c0 -22.667 6.66699 -41.334 20 -56.001c12.667 -14 31.334 -21 56.001 -21zM275.999 608.003c52.667 0 79 57.333 79 172
c48.667 0 73 -20.333 73 -61c0 -35.333 -14 -66 -42 -92s-64.667 -39 -110 -39c-48.667 0 -86.667 13.333 -114 40c-28 26.667 -42 57 -42 91c0 40.667 24.333 61 73 61c0 -114.667 27.333 -172 82 -172h1z" />
    <glyph glyph-name="Ccaron" unicode="&#x10c;" horiz-adv-x="659" 
d="M386 29c50.667 0 97.667 10.9971 141 32.9971s77 46.667 101 74c2 0 3 -2 3 -6s-3.66699 -11.333 -11 -22c-7.33301 -10 -18.333 -22 -33 -36c-14.667 -13.333 -32.334 -26.333 -53.001 -39c-20 -12 -44.333 -22 -73 -30c-29.333 -8 -59.333 -12 -90 -12
c-106.667 0 -188.334 31 -245.001 93c-57.333 62.667 -86 151.334 -86 266.001c0 65.333 9.66699 124.333 29 177c19.333 52 45 93.667 77 125c32.667 31.333 68.667 55 108 71c40 16 82 24 126 24c82.667 0 145.667 -16 189 -48s65 -67.667 65 -107
c0 -19.333 -5 -33.333 -15 -42c-9.33301 -8.66699 -21 -13 -35 -13c-19.333 0 -35.666 5.33301 -48.999 16c3.33301 16.667 5 31.334 5 44.001c0 38.667 -14 70 -42 94s-67.333 36 -118 36c-69.333 0 -126 -27.333 -170 -82c-44 -55.333 -66 -145.666 -66 -270.999
c0 -105.333 20.667 -188.333 62 -249c40.667 -60 102.334 -90 185.001 -90zM377 856.997c78.667 70 126.668 105 144.001 105c7.33301 0 13.666 -3 18.999 -9c-71.333 -61.333 -126.333 -115.333 -165 -162c-35.333 42.667 -89.333 96.667 -162 162
c2.66699 6 8.66699 9 18 9c16.667 0 64.667 -35 144 -105h2z" />
    <glyph glyph-name="ccaron" unicode="&#x10d;" horiz-adv-x="519" 
d="M293 541c51.333 0 96.667 -11 136 -33c38.667 -22 58 -51.333 58 -88c0 -20.667 -5.33301 -35.334 -16 -44.001c-11.333 -9.33301 -23.333 -14 -36 -14c-17.333 0 -30.333 4.33301 -39 13c3.33301 18.667 5 32.667 5 42c0 35.333 -11 62 -33 80s-49 27 -81 27
c-43.333 0 -78 -21.667 -104 -65s-39 -102 -39 -176c0 -85.333 15 -149 45 -191s71 -63 123 -63c37.333 0 72 9 104 27s54.667 35.667 68 53c2 0 3 -1.33301 3 -4c0 -9.33301 -8 -22.333 -24 -39s-40.333 -33 -73 -49c-33.333 -16 -69.333 -24 -108 -24
c-30.667 0 -59 4 -85 12c-25.333 8 -50.333 21.667 -75 41c-24 18.667 -43 46.667 -57 84c-14 36.667 -21 81.334 -21 134.001c0 87.333 22.667 156.333 68 207c44.667 50 104.667 75 180 75zM298.001 647c78.667 70 126.668 105 144.001 105c7.33301 0 13.666 -3 18.999 -9
c-71.333 -61.333 -126.333 -115.333 -165 -162c-35.333 42.667 -89.333 96.667 -162 162c2.66699 6 8.66699 9 18 9c16.667 0 64.667 -35 144 -105h2z" />
    <glyph glyph-name="germandbls" unicode="&#x110;" horiz-adv-x="782" 
d="M125 40c8.66699 14.667 13.001 110.667 13.001 288v21c-10.667 -0.666992 -21 -1 -31 -1h-30c-20.667 0 -31 7 -31 21c0 8 3.66699 15.667 11 23c13.333 -0.666992 26.833 -1.16699 40.5 -1.5s27.167 -0.5 40.5 -0.5c-1.33301 200.667 -9.33301 305.667 -24 315
c20.667 10.667 54.667 20.667 102 30c23.333 4.66699 47.166 8 71.499 10s49.166 3 74.499 3c240.667 0 361 -122.333 361 -367c0 -128 -33 -224.333 -99 -289c-65.333 -64.667 -155.666 -97 -270.999 -97c-48.667 0 -94 5 -136 15c-41.333 10 -71.333 20.667 -90 32z
M231.001 38c6.66699 -6 21.6689 -11.999 45.002 -17.999c22.667 -6 47.667 -9 75 -9c80 0 145 29 195 87s75 150 75 276c0 233.333 -92.333 350 -277 350c-46.667 0 -83.334 -4.33301 -110.001 -13c0 -20 -0.166992 -56.833 -0.5 -110.5s-0.833008 -124.834 -1.5 -213.501
h46.5c17.667 0 38.167 0.333008 61.5 1s42.666 1 57.999 1h34c20.667 0 31 -6.66699 31 -20c0 -9.33301 -3.33301 -17.333 -10 -24c-23.333 2 -67.333 3 -132 3h-52.5c-15 0 -27.167 -0.333008 -36.5 -1v-92v-84v-66v-47v-18z" />
    <glyph glyph-name="AE" unicode="&#x111;" horiz-adv-x="628" 
d="M436 110c-18.667 -34.667 -44.668 -63.999 -78.001 -87.999s-71.666 -36 -114.999 -36c-55.333 0 -101.333 20 -138 60c-36.667 39.333 -55 101.333 -55 186c0 88.667 22 161.667 66 219s108.667 86 194 86c52 0 94.667 -10.667 128 -32v81h-38.5
c-13 0 -26.167 -0.333008 -39.5 -1s-25.5 -1 -36.5 -1h-28.5h-30c-20 0 -30 7 -30 21c0 8 3.33301 15.667 10 23c15.333 -0.666992 30.5 -1.16699 45.5 -1.5s29.833 -0.5 44.5 -0.5h103v36c0 30.667 -3 50.667 -9 60s-17.333 14 -34 14c-20 0 -36 -1.66699 -48 -5
c-0.666992 0.666992 -1 1.66699 -1 3c0 4 6.33301 9 19 15c12 5.33301 29.333 10.666 52 15.999c23.333 5.33301 45.333 8 66 8c22.667 0 37.667 -4.66699 45 -14c6.66699 -8.66699 10 -28.667 10 -60v-69h47c21.333 0 32 -6.66699 32 -20
c0 -8.66699 -3.66699 -16.667 -11 -24c-9.33301 0.666992 -19.833 1.16699 -31.5 1.5s-24.167 0.5 -37.5 0.5l-1 -477c0 -25.333 2 -42.333 6 -51s12 -13 24 -13c14 0 32.333 4.66699 55 14c1.33301 -1.33301 2 -2.33301 2 -3c0 -9.33301 -16 -21.333 -48 -36
c-32.667 -15.333 -60.667 -23 -84 -23s-38.333 8.33301 -45 25c-6.66699 16 -10 46 -10 90v-4zM433.999 349.001c0 67.333 -10.334 112.333 -31.001 135c-21.333 23.333 -52.666 35 -93.999 35c-49.333 0 -88.333 -23 -117 -69c-28.667 -45.333 -43 -107.333 -43 -186
c0 -144.667 45.333 -217 136 -217c60.667 0 111 29.333 151 88z" />
    <glyph glyph-name="Ecaron" unicode="&#x11a;" horiz-adv-x="539" 
d="M454 740c38.667 0 57.999 -15.333 57.999 -46c0 -14.667 -3.66699 -25.667 -11 -33c-53.333 40 -158.333 60 -315 60v-334c122.667 0 209.667 6 261 18c2.66699 -4.66699 4 -10.667 4 -18c0 -16.667 -12 -25 -36 -25h-18c-8.66699 0 -20.334 0.333008 -35.001 1
s-30 1.16699 -46 1.5s-33 0.833008 -51 1.5s-33.5 1.16699 -46.5 1.5s-23.5 0.5 -31.5 0.5v-352c154.667 0 263.334 20.333 326.001 61c7.33301 -7.33301 11 -18.333 11 -33c0 -13.333 -4.33301 -24.333 -13 -33s-22.667 -13 -42 -13l-289 -1
c-49.333 0 -82.666 3.33301 -99.999 10c3.33301 42 5.83301 91 7.5 147s2.5 119.333 2.5 190c0 250.667 -8.66699 378 -26 382c12 12 47.333 18 106 18zM287.999 859c78.667 70 126.668 105 144.001 105c7.33301 0 13.666 -3 18.999 -9
c-71.333 -61.333 -126.333 -115.333 -165 -162c-35.333 42.667 -89.333 96.667 -162 162c2.66699 6 8.66699 9 18 9c16.667 0 64.667 -35 144 -105h2z" />
    <glyph glyph-name="ecaron" unicode="&#x11b;" horiz-adv-x="532" 
d="M149 309c-0.666992 -3.33301 -1 -7.33594 -1 -12.0029v-15c0 -42.667 5.66699 -82.667 17 -120c10.667 -35.333 29.334 -65.333 56.001 -90c26 -24 58.333 -36 97 -36c37.333 0 72.333 9.33301 105 28s56 36 70 52c1.33301 0 2 -1.33301 2 -4c0 -10 -8 -23.333 -24 -40
c-15.333 -16.667 -40.333 -33 -75 -49c-34 -16 -71.333 -24 -112 -24c-76.667 0 -134.334 24 -173.001 72c-39.333 48.667 -59 115.334 -59 200.001c0 80.667 21.667 147.334 65 200.001c42.667 52 104.667 78 186 78c63.333 0 111.333 -15.333 144 -46
c33.333 -31.333 50 -69.333 50 -114c0 -16 -2.33301 -29 -7 -39c-4.66699 -10.667 -10.667 -19 -18 -25c-6.66699 -5.33301 -16 -9.66602 -28 -12.999s-22.333 -5.33301 -31 -6c-4.66699 -0.666992 -10 -1 -16 -1h-20zM404 395.997c0 40.667 -9.33301 73.333 -28 98
c-19.333 25.333 -47.333 38 -84 38c-45.333 0 -80 -19.333 -104 -58c-24 -39.333 -37 -87.333 -39 -144h98h90c25.333 0 43.333 4.66699 54 14c10 8.66699 15 25.667 15 51zM297 655.996c78.667 70 126.668 105 144.001 105c7.33301 0 13.666 -3 18.999 -9
c-71.333 -61.333 -126.333 -115.333 -165 -162c-35.333 42.667 -89.333 96.667 -162 162c2.66699 6 8.66699 9 18 9c16.667 0 64.667 -35 144 -105h2z" />
    <glyph glyph-name="egrave" unicode="&#x128;" horiz-adv-x="275" 
d="M141 749c20 0 32.334 -5.33496 37.001 -16.002c4.66699 -10 7 -41 7 -93v-111v-102c0 -235.333 8 -373.333 24 -414c-20.667 -12.667 -48.667 -19 -84 -19c-16.667 0 -27.667 5.66699 -33 17c-4.66699 10 -7 29 -7 57v30c0 17.333 0.333008 42.333 1 75
s1 64.334 1 95.001v90c0 224.667 -7.33301 346.667 -22 366c5.33301 6.66699 15.666 12.334 30.999 17.001c17.333 5.33301 33 8 47 8h-2zM298.001 886.998c4.66699 -0.666992 7 -7 7 -19c0 -18.667 -9 -38 -27 -58s-45 -30 -81 -30c-21.333 0 -48 7 -80 21s-56 21 -72 21
c-43.333 0 -70 -14.333 -80 -43c-4.66699 2 -7 8 -7 18c0 22 9.66699 42.667 29 62s46.333 29 81 29c19.333 0 45 -7 77 -21s56 -21 72 -21c44.667 0 71.667 14 81 42v-1z" />
    <glyph glyph-name="guilsinglleft" unicode="&#x129;" horiz-adv-x="280" 
d="M192 449c0 -205.333 5.00098 -352.333 15.001 -441c-26 -10 -53.333 -15 -82 -15c-12 0 -20.333 3.33301 -25 10s-7 19.667 -7 39v80c0 33.333 0.333008 73.333 1 120s1 85 1 115v65c0 32 -2.66699 54 -8 66c-4.66699 10.667 -15.667 16 -33 16
c-14.667 0 -30.334 -1.66699 -47.001 -5c-0.666992 0.666992 -1 1.66699 -1 3c0 6.66699 15 14.667 45 24c31.333 9.33301 62.333 14 93 14c21.333 0 35 -6 41 -18s9 -36 9 -72zM291.001 688c4.66699 -0.666992 7 -7 7 -19c0 -18.667 -9 -38 -27 -58s-45 -30 -81 -30
c-21.333 0 -48 7 -80 21s-56 21 -72 21c-43.333 0 -70 -14.333 -80 -43c-4.66699 2 -7 8 -7 18c0 22 9.66699 42.667 29 62s46.333 29 81 29c19.333 0 45 -7 77 -21s56 -21 72 -21c44.667 0 71.667 14 81 42v-1z" />
    <glyph glyph-name="Sacute" unicode="&#x15a;" horiz-adv-x="628" 
d="M469 172c0 29.333 -7.33887 55.3311 -22.0059 77.998c-15.333 23.333 -34.666 42.333 -57.999 57c-24.667 15.333 -51 29.333 -79 42l-86 39c-28 12.667 -54.333 26.667 -79 42c-23.333 14.667 -42.666 33.667 -57.999 57c-14.667 22.667 -22 49.334 -22 80.001
c0 53.333 22.667 96.666 68 129.999c44.667 32.667 106.667 49 186 49c69.333 0 126 -15 170 -45s66 -66.333 66 -109c0 -20.667 -6 -36 -18 -46s-25 -15 -39 -15c-17.333 0 -32.666 5.66699 -45.999 17c2 60.667 -8 105.667 -30 135c-22 28.667 -58.333 43 -109 43
c-42 0 -75.333 -12 -100 -36s-37 -56.333 -37 -97c0 -26.667 10 -51 30 -73s45 -40 75 -54l47 -22l50 -24l50 -25.5l47 -25.5c30 -17.333 55 -40.333 75 -69c20 -29.333 30 -62.333 30 -99c0 -62.667 -26.333 -113 -79 -151c-53.333 -38 -119.666 -57 -198.999 -57
c-80.667 0 -144 17 -190 51s-69 72.333 -69 115c0 30.667 6.66699 53.667 20 69c12.667 14.667 28.334 22 47.001 22c20.667 0 37.667 -6.66699 51 -20c-8.66699 -25.333 -13 -48.666 -13 -69.999c0 -43.333 14 -78.333 42 -105c28.667 -27.333 66.334 -41 113.001 -41
c44.667 0 83.667 14.667 117 44c32.667 28.667 49 67.334 49 116.001v-2zM299.994 796.998c78.667 36.667 127 97.667 145 183c9.33301 7.33301 20 11 32 11c10.667 0 19.667 -3 27 -9s11 -15.667 11 -29c0 -34 -26 -69 -78 -105s-93.333 -54 -124 -54
c-7.33301 0 -12 1.33301 -14 4z" />
    <glyph glyph-name="sacute" unicode="&#x15b;" horiz-adv-x="483" 
d="M233 -11c-51.333 0 -95.3311 11.666 -131.998 34.999c-36 22.667 -54 53.667 -54 93c0 20.667 5.33301 36.334 16 47.001c11.333 11.333 23.666 17 36.999 17c16.667 0 30 -5.66699 40 -17c-7.33301 -18 -11 -36 -11 -54c0 -30 10 -54.333 30 -73
c19.333 -18.667 45.333 -28 78 -28c33.333 0 59.666 9.33301 78.999 28c20 18.667 30 44.667 30 78c0 26 -10 49 -30 69c-20.667 20.667 -44.667 37.334 -72 50.001l-42 20l-42 21c-28 14 -52 32 -72 54s-30 48.667 -30 80c0 45.333 18.667 79 56 101
c36.667 22 83.667 33 141 33c48.667 0 89 -10 121 -30s48 -44.333 48 -73c0 -18 -5 -32 -15 -42s-23 -15 -39 -15s-28.333 4.33301 -37 13c6.66699 17.333 10 34.333 10 51c0 24 -9 42.667 -27 56c-18.667 13.333 -42 20 -70 20s-51.333 -7.66699 -70 -23
c-18 -15.333 -27 -37.333 -27 -66c0 -26.667 10 -49.334 30 -68.001c20.667 -19.333 44.667 -35 72 -47l42.5 -18.5l43.5 -19.5c28.667 -12.667 53 -30.667 73 -54s30 -50.333 30 -81c0 -47.333 -20 -84.333 -60 -111c-39.333 -26.667 -89 -40 -149 -40zM222.002 581.999
c78.667 36.667 127 97.667 145 183c9.33301 7.33301 20 11 32 11c10.667 0 19.667 -3 27 -9s11 -15.667 11 -29c0 -34 -26 -69 -78 -105s-93.333 -54 -124 -54c-7.33301 0 -12 1.33301 -14 4z" />
    <glyph glyph-name="Scedilla" unicode="&#x15e;" horiz-adv-x="628" 
d="M277 -7c-73.333 4 -130.338 21.998 -171.005 53.998s-61 68.667 -61 110c0 30.667 6.66699 53.667 20 69c12.667 14.667 28.334 22 47.001 22c20.667 0 37.667 -6.66699 51 -20c-8.66699 -25.333 -13 -48.666 -13 -69.999c0 -43.333 14 -78.333 42 -105
c28.667 -27.333 66.334 -41 113.001 -41c44.667 0 83.667 14.667 117 44c32.667 28.667 49 67.334 49 116.001c0 29.333 -7.33301 55.333 -22 78c-15.333 23.333 -34.666 42.333 -57.999 57c-24.667 15.333 -51 29.333 -79 42l-86 39c-28 12.667 -54.333 26.667 -79 42
c-23.333 14.667 -42.666 33.667 -57.999 57c-14.667 22.667 -22 49.334 -22 80.001c0 53.333 22.667 96.666 68 129.999c44.667 32.667 106.667 49 186 49c69.333 0 126 -15 170 -45s66 -66.333 66 -109c0 -20.667 -6 -36 -18 -46s-25 -15 -39 -15
c-17.333 0 -32.666 5.66699 -45.999 17c2 60.667 -8 105.667 -30 135c-22 28.667 -58.333 43 -109 43c-42 0 -75.333 -12 -100 -36s-37 -56.333 -37 -97c0 -26.667 10 -51 30 -73s45 -40 75 -54l47 -22l50 -24l50 -25.5l47 -25.5c30 -17.333 55 -40.333 75 -69
c20 -29.333 30 -62.333 30 -99c0 -63.333 -26.333 -113.333 -79 -150c-53.333 -37.333 -119.333 -56.333 -198 -57l-28 -50c36.667 -1.33301 63.667 -9.66602 81 -24.999c18 -16 27 -35.667 27 -59c0 -31.333 -14.333 -60.333 -43 -87s-65.667 -40 -111 -40
c-26 0 -47 4 -63 12s-24 18.667 -24 32c0 8 3 14.667 9 20c6.66699 5.33301 13.667 8 21 8c8.66699 -34 29.667 -51 63 -51c22.667 0 41.667 6.66699 57 20c14.667 12.667 22 27.667 22 45c0 21.333 -8.66699 38.666 -26 51.999c-17.333 12.667 -37.333 19.667 -60 21z" />
    <glyph glyph-name="Scaron" unicode="&#x160;" horiz-adv-x="628" 
d="M469 172c0 29.333 -7.33887 55.3311 -22.0059 77.998c-15.333 23.333 -34.666 42.333 -57.999 57c-24.667 15.333 -51 29.333 -79 42l-86 39c-28 12.667 -54.333 26.667 -79 42c-23.333 14.667 -42.666 33.667 -57.999 57c-14.667 22.667 -22 49.334 -22 80.001
c0 53.333 22.667 96.666 68 129.999c44.667 32.667 106.667 49 186 49c69.333 0 126 -15 170 -45s66 -66.333 66 -109c0 -20.667 -6 -36 -18 -46s-25 -15 -39 -15c-17.333 0 -32.666 5.66699 -45.999 17c2 60.667 -8 105.667 -30 135c-22 28.667 -58.333 43 -109 43
c-42 0 -75.333 -12 -100 -36s-37 -56.333 -37 -97c0 -26.667 10 -51 30 -73s45 -40 75 -54l47 -22l50 -24l50 -25.5l47 -25.5c30 -17.333 55 -40.333 75 -69c20 -29.333 30 -62.333 30 -99c0 -62.667 -26.333 -113 -79 -151c-53.333 -38 -119.666 -57 -198.999 -57
c-80.667 0 -144 17 -190 51s-69 72.333 -69 115c0 30.667 6.66699 53.667 20 69c12.667 14.667 28.334 22 47.001 22c20.667 0 37.667 -6.66699 51 -20c-8.66699 -25.333 -13 -48.666 -13 -69.999c0 -43.333 14 -78.333 42 -105c28.667 -27.333 66.334 -41 113.001 -41
c44.667 0 83.667 14.667 117 44c32.667 28.667 49 67.334 49 116.001v-2zM326.994 860.998c78.667 70 126.668 105 144.001 105c7.33301 0 13.666 -3 18.999 -9c-71.333 -61.333 -126.333 -115.333 -165 -162c-35.333 42.667 -89.333 96.667 -162 162
c2.66699 6 8.66699 9 18 9c16.667 0 64.667 -35 144 -105h2z" />
    <glyph glyph-name="_154" unicode="&#x161;" horiz-adv-x="480" 
d="M233 -11c-51.333 0 -95.3311 11.666 -131.998 34.999c-36 22.667 -54 53.667 -54 93c0 20.667 5.33301 36.334 16 47.001c11.333 11.333 23.666 17 36.999 17c16.667 0 30 -5.66699 40 -17c-7.33301 -18 -11 -36 -11 -54c0 -30 10 -54.333 30 -73
c19.333 -18.667 45.333 -28 78 -28c33.333 0 59.666 9.33301 78.999 28c20 18.667 30 44.667 30 78c0 26 -10 49 -30 69c-20.667 20.667 -44.667 37.334 -72 50.001l-42 20l-42 21c-28 14 -52 32 -72 54s-30 48.667 -30 80c0 45.333 18.667 79 56 101
c36.667 22 83.667 33 141 33c48.667 0 89 -10 121 -30s48 -44.333 48 -73c0 -18 -5 -32 -15 -42s-23 -15 -39 -15s-28.333 4.33301 -37 13c6.66699 17.333 10 34.333 10 51c0 24 -9 42.667 -27 56c-18.667 13.333 -42 20 -70 20s-51.333 -7.66699 -70 -23
c-18 -15.333 -27 -37.333 -27 -66c0 -26.667 10 -49.334 30 -68.001c20.667 -19.333 44.667 -35 72 -47l42.5 -18.5l43.5 -19.5c28.667 -12.667 53 -30.667 73 -54s30 -50.333 30 -81c0 -47.333 -20 -84.333 -60 -111c-39.333 -26.667 -89 -40 -149 -40zM252.002 645.999
c78.667 70 126.668 105 144.001 105c7.33301 0 13.666 -3 18.999 -9c-71.333 -61.333 -126.333 -115.333 -165 -162c-35.333 42.667 -89.333 96.667 -162 162c2.66699 6 8.66699 9 18 9c16.667 0 64.667 -35 144 -105h2z" />
    <glyph glyph-name="Tcaron" unicode="&#x164;" horiz-adv-x="506" 
d="M192 63c0 5.33301 0.166016 17.4971 0.499023 36.4971s0.833008 45.167 1.5 78.5s1.16699 64.833 1.5 94.5s0.5 58.167 0.5 85.5c0 210 -2 331.667 -6 365c-46.667 -0.666992 -83 -4.66699 -109 -12s-48.667 -22 -68 -44c-10 6.66699 -15 18 -15 34
c0 12.667 3.33301 23.334 10 32.001c7.33301 9.33301 16.666 14 27.999 14l78 -3c26.667 -1.33301 51.167 -2.33301 73.5 -3s42.833 -1 61.5 -1c36.667 0 81.667 1 135 3c52.667 2 81.334 3 86.001 3c20.667 0 31 -9.33301 31 -28c0 -21.333 -8.66699 -39.666 -26 -54.999
c-20.667 21.333 -42.667 36 -66 44c-25.333 8.66699 -62.666 13.334 -111.999 14.001v-84v-107v-104c1.33301 -219.333 9.33301 -357 24 -413c-20.667 -12.667 -48.667 -19 -84 -19c-14.667 0 -25 5 -31 15s-9 28.667 -9 56zM246.999 859.997
c78.667 70 126.668 105 144.001 105c7.33301 0 13.666 -3 18.999 -9c-71.333 -61.333 -126.333 -115.333 -165 -162c-35.333 42.667 -89.333 96.667 -162 162c2.66699 6 8.66699 9 18 9c16.667 0 64.667 -35 144 -105h2z" />
    <glyph glyph-name="tcaron" unicode="&#x165;" horiz-adv-x="456" 
d="M170 114c0 -30.667 1.66406 -50.333 4.99707 -59c2.66699 -8 11.334 -12 26.001 -12c36.667 0 69.334 7.33301 98.001 22c1.33301 0 2 -1.33301 2 -4c0 -11.333 -20.333 -25.333 -61 -42c-40 -16.667 -75 -25 -105 -25c-27.333 0 -45.333 7.33301 -54 22s-13 39 -13 73
v415c-24 0 -42.667 -1.66699 -56 -5c-2.66699 2.66699 -4 6 -4 10c0 4.66699 3 8 9 10l10.5 4c3.66699 1.33301 8.16699 2.66602 13.5 3.99902c8.66699 2.66699 19 8.33398 31 17.001c10.667 8 21.667 23.667 33 47c11.333 24.667 21 53.667 29 87
c10.667 0 18.667 -3.66699 24 -11c4.66699 -6.66699 8.66699 -21.334 12 -44.001c1.33301 -11.333 2.33301 -25.166 3 -41.499s1 -35.5 1 -57.5c17.333 0 38.666 2 63.999 6c24.667 4 41.667 8 51 12c2.66699 -5.33301 4 -11.333 4 -18c0 -15.333 -11.667 -23 -35 -23
c-3.33301 0 -8.33301 0.166992 -15 0.5s-14.667 0.833008 -24 1.5s-17.666 1.16699 -24.999 1.5s-13.666 0.5 -18.999 0.5zM402.997 655.001c-35.333 -7.33301 -60 -4.00098 -74 9.99902s-21 31 -21 51s6 36.667 18 50s27.333 20 46 20c20 0 35.667 -5.33301 47 -16
c12 -11.333 18 -27.333 18 -48c0 -38 -13 -76 -39 -114s-51.667 -57 -77 -57c-12 0 -21 3 -27 9s-9 13 -9 21c33.333 0 61.333 8.66699 84 26c22 16.667 33 33.334 33 50.001z" />
    <glyph glyph-name="udieresis" unicode="&#x168;" horiz-adv-x="660" 
d="M193 634v-186v-169c0 -96.667 13 -165.334 39 -206.001c26 -41.333 71.667 -62 137 -62c64 0 112.667 24.667 146 74s50 119.333 50 210c0 37.333 -3 97 -9 179s-9 139.667 -9 173s3 58 9 74s17.333 24 34 24c9.33301 0 18 -2 26 -6
c-15.333 -40.667 -23 -111.667 -23 -213v-32.5c0 -13 0.333008 -28.167 1 -45.5s1 -32.833 1 -46.5v-34.5c0 -52.667 -2 -97 -6 -133c-4 -37.333 -11.333 -71.666 -22 -102.999c-11.333 -33.333 -26.333 -59.333 -45 -78c-19.333 -19.333 -44.333 -34.333 -75 -45
c-30 -10.667 -67.333 -16 -112 -16c-41.333 0 -76.333 5 -105 15c-29.333 10 -52.333 23.333 -69 40s-30 39 -40 67c-9.33301 26.667 -15.666 54.667 -18.999 84c-1.33301 14 -2.33301 29.5 -3 46.5s-1 35.833 -1 56.5c0 276.667 -11.667 417.667 -35 423
c5.33301 6 16 11.667 32 17c17.333 5.33301 34.666 8 51.999 8c21.333 0 35 -6.33301 41 -19c6 -13.333 9 -44.333 9 -93zM533 900c4.66699 -0.666992 7 -7 7 -19c0 -18.667 -9 -38 -27 -58s-45 -30 -81 -30c-21.333 0 -48 7 -80 21s-56 21 -72 21
c-43.333 0 -70 -14.333 -80 -43c-4.66699 2 -7 8 -7 18c0 22 9.66699 42.667 29 62s46.333 29 81 29c19.333 0 45 -7 77 -21s56 -21 72 -21c44.667 0 71.667 14 81 42v-1z" />
    <glyph glyph-name="Uacute" unicode="&#x169;" horiz-adv-x="609" 
d="M92 423c0 36.667 -2.33496 59.666 -7.00195 68.999c-5.33301 10 -17.333 15 -36 15c-15.333 0 -29.666 -1.66699 -42.999 -5c-0.666992 0.666992 -1 1.66699 -1 3c0 7.33301 14.333 15.333 43 24c30 9.33301 58 14 84 14c26.667 0 43.667 -6.66699 51 -20
c6.66699 -12.667 10 -43.334 10 -92.001l-3 -242c0 -47.333 5.66699 -80.666 17 -99.999c10.667 -18.667 31.667 -28 63 -28c24.667 0 49.667 7.66699 75 23c24.667 14.667 45.667 33.667 63 57c0 56.667 -0.333008 105.667 -1 147s-1.66699 75 -3 101s-3.5 51 -6.5 75
s-7.16699 46.667 -12.5 68c24 11.333 54 17 90 17c13.333 0 22.333 -3.33301 27 -10c5.33301 -7.33301 8 -20.333 8 -39c0 -38 -1 -101.333 -3 -190c-2 -89.333 -3 -151.666 -3 -186.999c0 -32 3 -54 9 -66s17 -18 33 -18c15.333 0 33 3.33301 53 10c0.666992 0 1 -1 1 -3
c0 -8 -15 -18 -45 -30s-60 -18 -90 -18c-23.333 0 -38.333 7.33301 -45 22c-6.66699 14 -10 46 -10 96c-19.333 -35.333 -45.333 -64.333 -78 -87s-70.667 -34 -114 -34c-49.333 0 -82.666 13.667 -99.999 41c-16.667 26.667 -25 69.667 -25 129zM462.998 693.999
c4.66699 -0.666992 7 -7 7 -19c0 -18.667 -9 -38 -27 -58s-45 -30 -81 -30c-21.333 0 -48 7 -80 21s-56 21 -72 21c-43.333 0 -70 -14.333 -80 -43c-4.66699 2 -7 8 -7 18c0 22 9.66699 42.667 29 62s46.333 29 81 29c19.333 0 45 -7 77 -21s56 -21 72 -21
c44.667 0 71.667 14 81 42v-1z" />
    <glyph glyph-name="Uring" unicode="&#x16e;" horiz-adv-x="660" 
d="M193 634v-186v-169c0 -96.667 13 -165.334 39 -206.001c26 -41.333 71.667 -62 137 -62c64 0 112.667 24.667 146 74s50 119.333 50 210c0 37.333 -3 97 -9 179s-9 139.667 -9 173s3 58 9 74s17.333 24 34 24c9.33301 0 18 -2 26 -6
c-15.333 -40.667 -23 -111.667 -23 -213v-32.5c0 -13 0.333008 -28.167 1 -45.5s1 -32.833 1 -46.5v-34.5c0 -52.667 -2 -97 -6 -133c-4 -37.333 -11.333 -71.666 -22 -102.999c-11.333 -33.333 -26.333 -59.333 -45 -78c-19.333 -19.333 -44.333 -34.333 -75 -45
c-30 -10.667 -67.333 -16 -112 -16c-41.333 0 -76.333 5 -105 15c-29.333 10 -52.333 23.333 -69 40s-30 39 -40 67c-9.33301 26.667 -15.666 54.667 -18.999 84c-1.33301 14 -2.33301 29.5 -3 46.5s-1 35.833 -1 56.5c0 276.667 -11.667 417.667 -35 423
c5.33301 6 16 11.667 32 17c17.333 5.33301 34.666 8 51.999 8c21.333 0 35 -6.33301 41 -19c6 -13.333 9 -44.333 9 -93zM233 891c0 32 11.999 57.665 35.999 76.998c24.667 19.333 53 29 85 29c33.333 0 61.333 -9.33301 84 -28c23.333 -19.333 35 -44.666 35 -75.999
c0 -32 -12 -58 -36 -78s-52.667 -30 -86 -30c-31.333 0 -58.666 9.66699 -81.999 29c-22.667 18.667 -34 44.334 -34 77.001h-2zM360.999 803.998c16 0 29 7 39 21s15 33 15 57c0 28 -6.33301 50.667 -19 68c-13.333 18 -29.333 27 -48 27c-16.667 0 -30 -7 -40 -21
s-15 -33 -15 -57c0 -28.667 6.66699 -51.667 20 -69c12.667 -16.667 28.667 -25 48 -25v-1z" />
    <glyph glyph-name="uring" unicode="&#x16f;" horiz-adv-x="609" 
d="M92 423c0 36.667 -2.33496 59.666 -7.00195 68.999c-5.33301 10 -17.333 15 -36 15c-15.333 0 -29.666 -1.66699 -42.999 -5c-0.666992 0.666992 -1 1.66699 -1 3c0 7.33301 14.333 15.333 43 24c30 9.33301 58 14 84 14c26.667 0 43.667 -6.66699 51 -20
c6.66699 -12.667 10 -43.334 10 -92.001l-3 -242c0 -47.333 5.66699 -80.666 17 -99.999c10.667 -18.667 31.667 -28 63 -28c24.667 0 49.667 7.66699 75 23c24.667 14.667 45.667 33.667 63 57c0 56.667 -0.333008 105.667 -1 147s-1.66699 75 -3 101s-3.5 51 -6.5 75
s-7.16699 46.667 -12.5 68c24 11.333 54 17 90 17c13.333 0 22.333 -3.33301 27 -10c5.33301 -7.33301 8 -20.333 8 -39c0 -38 -1 -101.333 -3 -190c-2 -89.333 -3 -151.666 -3 -186.999c0 -32 3 -54 9 -66s17 -18 33 -18c15.333 0 33 3.33301 53 10c0.666992 0 1 -1 1 -3
c0 -8 -15 -18 -45 -30s-60 -18 -90 -18c-23.333 0 -38.333 7.33301 -45 22c-6.66699 14 -10 46 -10 96c-19.333 -35.333 -45.333 -64.333 -78 -87s-70.667 -34 -114 -34c-49.333 0 -82.666 13.667 -99.999 41c-16.667 26.667 -25 69.667 -25 129zM158.998 683.999
c0 32 11.999 57.665 35.999 76.998c24.667 19.333 53 29 85 29c33.333 0 61.333 -9.33301 84 -28c23.333 -19.333 35 -44.666 35 -75.999c0 -32 -12 -58 -36 -78s-52.667 -30 -86 -30c-31.333 0 -58.666 9.66699 -81.999 29c-22.667 18.667 -34 44.334 -34 77.001h-2z
M286.997 596.997c16 0 29 7 39 21s15 33 15 57c0 28 -6.33301 50.667 -19 68c-13.333 18 -29.333 27 -48 27c-16.667 0 -30 -7 -40 -21s-15 -33 -15 -57c0 -28.667 6.66699 -51.667 20 -69c12.667 -16.667 28.667 -25 48 -25v-1z" />
    <glyph glyph-name="Zacute" unicode="&#x179;" horiz-adv-x="587" 
d="M560 78c7.33301 -11.333 11.3311 -22.667 11.998 -34c0.666992 -12 -4 -23 -14 -33s-25.333 -15 -46 -15h-482c-12.667 0 -19 5.33301 -19 16c0 19.333 20.667 61.333 62 126l65.5 97.5l72.5 101.5l75.5 105.5c25 35.667 49.5 72.5 73.5 110.5
c48.667 76 78.334 132.667 89.001 170c-62.667 0 -116 -0.833008 -160 -2.5s-78.667 -4.16699 -104 -7.5c-51.333 -7.33301 -97.333 -24.333 -138 -51c-16 18 -19.333 36 -10 54c8.66699 18 28.334 27 59.001 27h442c20.667 0 31 -7.66699 31 -23
c0 -24 -30.333 -80.333 -91 -169l-204 -294c-75.333 -107.333 -124.333 -187.333 -147 -240c65.333 0 121.333 1 168 3s85 4.66699 115 8c58.667 6.66699 108.667 23.667 150 51v-1zM300.998 798.999c78.667 36.667 127 97.667 145 183c9.33301 7.33301 20 11 32 11
c10.667 0 19.667 -3 27 -9s11 -15.667 11 -29c0 -34 -26 -69 -78 -105s-93.333 -54 -124 -54c-7.33301 0 -12 1.33301 -14 4z" />
    <glyph glyph-name="zacute" unicode="&#x17a;" horiz-adv-x="516" 
d="M428 128c7.33301 0 13.332 -4.33691 17.999 -13.0039s7 -20.667 7 -36c0 -24 -8 -45 -24 -63s-40.333 -27 -73 -27c-31.333 0 -68.333 4 -111 12c-43.333 8 -78.333 12 -105 12c-38.667 0 -75.667 -4.33301 -111 -13c-10 0.666992 -15 9.33398 -15 26.001
c0 28 12 60 36 96c24.667 37.333 53.667 73 87 107l51 51.5l51 51.5c33.333 33.333 62.333 67 87 101c24 32.667 36 61.334 36 86.001c-61.333 0 -111 -2 -149 -6c-38.667 -4 -67.667 -11.333 -87 -22c-20.667 -11.333 -34.667 -21.666 -42 -30.999
c-8 -10 -16 -25.333 -24 -46c-9.33301 1.33301 -14 10.333 -14 27c0 22.667 8.33301 44.667 25 66c16.667 22 35 33 55 33h278c17.333 0 29.666 -2.33301 36.999 -7c8 -5.33301 12 -15.333 12 -30c0 -26 -11.333 -57.333 -34 -94
c-23.333 -37.333 -50.666 -73.666 -81.999 -108.999l-48 -53l-49 -52c-33.333 -34 -61.333 -66 -84 -96c-22.667 -29.333 -34 -52.333 -34 -69l6 1c4.66699 0.666992 10.667 1.66699 18 3c3.33301 0.666992 6.5 1 9.5 1h9.5c15.333 0 38 -2 68 -6s53 -6 69 -6
c35.333 0 64.333 7.66699 87 23s37.334 42.333 44.001 81zM222.999 589.996c78.667 36.667 127 97.667 145 183c9.33301 7.33301 20 11 32 11c10.667 0 19.667 -3 27 -9s11 -15.667 11 -29c0 -34 -26 -69 -78 -105s-93.333 -54 -124 -54c-7.33301 0 -12 1.33301 -14 4z" />
    <glyph glyph-name="Zdotaccent" unicode="&#x17b;" horiz-adv-x="587" 
d="M560 78c7.33301 -11.333 11.3311 -22.667 11.998 -34c0.666992 -12 -4 -23 -14 -33s-25.333 -15 -46 -15h-482c-12.667 0 -19 5.33301 -19 16c0 19.333 20.667 61.333 62 126l65.5 97.5l72.5 101.5l75.5 105.5c25 35.667 49.5 72.5 73.5 110.5
c48.667 76 78.334 132.667 89.001 170c-62.667 0 -116 -0.833008 -160 -2.5s-78.667 -4.16699 -104 -7.5c-51.333 -7.33301 -97.333 -24.333 -138 -51c-16 18 -19.333 36 -10 54c8.66699 18 28.334 27 59.001 27h442c20.667 0 31 -7.66699 31 -23
c0 -24 -30.333 -80.333 -91 -169l-204 -294c-75.333 -107.333 -124.333 -187.333 -147 -240c65.333 0 121.333 1 168 3s85 4.66699 115 8c58.667 6.66699 108.667 23.667 150 51v-1zM315.998 932.999c40 0 60 -18.999 60 -56.999c0 -22 -6 -40 -18 -54s-29.333 -21 -52 -21
c-38.667 0 -58 19.333 -58 58c0 21.333 6.33301 38.666 19 51.999c12.667 14 29.667 21 51 21z" />
    <glyph glyph-name="zdotaccent" unicode="&#x17c;" horiz-adv-x="504" 
d="M428 128c7.33301 0 13.332 -4.33691 17.999 -13.0039s7 -20.667 7 -36c0 -24 -8 -45 -24 -63s-40.333 -27 -73 -27c-31.333 0 -68.333 4 -111 12c-43.333 8 -78.333 12 -105 12c-38.667 0 -75.667 -4.33301 -111 -13c-10 0.666992 -15 9.33398 -15 26.001
c0 28 12 60 36 96c24.667 37.333 53.667 73 87 107l51 51.5l51 51.5c33.333 33.333 62.333 67 87 101c24 32.667 36 61.334 36 86.001c-61.333 0 -111 -2 -149 -6c-38.667 -4 -67.667 -11.333 -87 -22c-20.667 -11.333 -34.667 -21.666 -42 -30.999
c-8 -10 -16 -25.333 -24 -46c-9.33301 1.33301 -14 10.333 -14 27c0 22.667 8.33301 44.667 25 66c16.667 22 35 33 55 33h278c17.333 0 29.666 -2.33301 36.999 -7c8 -5.33301 12 -15.333 12 -30c0 -26 -11.333 -57.333 -34 -94
c-23.333 -37.333 -50.666 -73.666 -81.999 -108.999l-48 -53l-49 -52c-33.333 -34 -61.333 -66 -84 -96c-22.667 -29.333 -34 -52.333 -34 -69l6 1c4.66699 0.666992 10.667 1.66699 18 3c3.33301 0.666992 6.5 1 9.5 1h9.5c15.333 0 38 -2 68 -6s53 -6 69 -6
c35.333 0 64.333 7.66699 87 23s37.334 42.333 44.001 81zM265.999 718.996c40 0 60 -18.999 60 -56.999c0 -22 -6 -40 -18 -54s-29.333 -21 -52 -21c-38.667 0 -58 19.333 -58 58c0 21.333 6.33301 38.666 19 51.999c12.667 14 29.667 21 51 21z" />
    <glyph glyph-name="Zcaron" unicode="&#x17d;" horiz-adv-x="587" 
d="M560 78c7.33301 -11.333 11.3311 -22.667 11.998 -34c0.666992 -12 -4 -23 -14 -33s-25.333 -15 -46 -15h-482c-12.667 0 -19 5.33301 -19 16c0 19.333 20.667 61.333 62 126l65.5 97.5l72.5 101.5l75.5 105.5c25 35.667 49.5 72.5 73.5 110.5
c48.667 76 78.334 132.667 89.001 170c-62.667 0 -116 -0.833008 -160 -2.5s-78.667 -4.16699 -104 -7.5c-51.333 -7.33301 -97.333 -24.333 -138 -51c-16 18 -19.333 36 -10 54c8.66699 18 28.334 27 59.001 27h442c20.667 0 31 -7.66699 31 -23
c0 -24 -30.333 -80.333 -91 -169l-204 -294c-75.333 -107.333 -124.333 -187.333 -147 -240c65.333 0 121.333 1 168 3s85 4.66699 115 8c58.667 6.66699 108.667 23.667 150 51v-1zM312.998 861.999c78.667 70 126.668 105 144.001 105c7.33301 0 13.666 -3 18.999 -9
c-71.333 -61.333 -126.333 -115.333 -165 -162c-35.333 42.667 -89.333 96.667 -162 162c2.66699 6 8.66699 9 18 9c16.667 0 64.667 -35 144 -105h2z" />
    <glyph glyph-name="_158" unicode="&#x17e;" horiz-adv-x="504" 
d="M428 128c7.33301 0 13.332 -4.33691 17.999 -13.0039s7 -20.667 7 -36c0 -24 -8 -45 -24 -63s-40.333 -27 -73 -27c-31.333 0 -68.333 4 -111 12c-43.333 8 -78.333 12 -105 12c-38.667 0 -75.667 -4.33301 -111 -13c-10 0.666992 -15 9.33398 -15 26.001
c0 28 12 60 36 96c24.667 37.333 53.667 73 87 107l51 51.5l51 51.5c33.333 33.333 62.333 67 87 101c24 32.667 36 61.334 36 86.001c-61.333 0 -111 -2 -149 -6c-38.667 -4 -67.667 -11.333 -87 -22c-20.667 -11.333 -34.667 -21.666 -42 -30.999
c-8 -10 -16 -25.333 -24 -46c-9.33301 1.33301 -14 10.333 -14 27c0 22.667 8.33301 44.667 25 66c16.667 22 35 33 55 33h278c17.333 0 29.666 -2.33301 36.999 -7c8 -5.33301 12 -15.333 12 -30c0 -26 -11.333 -57.333 -34 -94
c-23.333 -37.333 -50.666 -73.666 -81.999 -108.999l-48 -53l-49 -52c-33.333 -34 -61.333 -66 -84 -96c-22.667 -29.333 -34 -52.333 -34 -69l6 1c4.66699 0.666992 10.667 1.66699 18 3c3.33301 0.666992 6.5 1 9.5 1h9.5c15.333 0 38 -2 68 -6s53 -6 69 -6
c35.333 0 64.333 7.66699 87 23s37.334 42.333 44.001 81zM257.999 652.996c78.667 70 126.668 105 144.001 105c7.33301 0 13.666 -3 18.999 -9c-71.333 -61.333 -126.333 -115.333 -165 -162c-35.333 42.667 -89.333 96.667 -162 162c2.66699 6 8.66699 9 18 9
c16.667 0 64.667 -35 144 -105h2z" />
    <glyph glyph-name="bullet" unicode="&#x1a0;" 
d="M710 666c-30.667 -7.33301 -51.999 -5.66699 -63.999 5c-12.667 12.667 -19 27 -19 43c0 16.667 5 30.667 15 42c9.33301 11.333 22.666 17 39.999 17s30.666 -4.33301 39.999 -13c10 -9.33301 15 -23 15 -41c0 -32 -12.333 -67.667 -37 -107l-9.5 -15
c-3 -4.66699 -6.16699 -8.66699 -9.5 -12c28 -54 42 -119.667 42 -197c0 -118.667 -31 -214 -93 -286s-145.333 -108 -250 -108l-1 -1c-104 0 -186.333 30 -247 90s-91 147.667 -91 263c0 116.667 30.667 212.667 92 288s143.333 113 246 113c106.667 0 190.667 -31 252 -93
c14.667 -15.333 27.667 -32.333 39 -51l10 9c20.667 20.667 31.334 38.667 32.001 54h-2zM379.001 727.999c-81.333 0 -141.001 -33 -179.001 -99s-57 -153.667 -57 -263c0 -108.667 21.667 -194.667 65 -258c42.667 -62.667 101.667 -94 177 -94
c158.667 0 238 118.667 238 356c0 108 -20.333 194.667 -61 260c-41.333 66 -101.666 99 -180.999 99z" />
    <glyph glyph-name="dieresis" unicode="&#x1a1;" horiz-adv-x="598" 
d="M552 489c-30.667 -7.33301 -52.002 -5.66699 -64.002 5c-12.667 12.667 -19 27 -19 43c0 16.667 5 30.667 15 42c9.33301 11.333 22.666 17 39.999 17s30.666 -4.33301 39.999 -13c10 -9.33301 15 -23 15 -41c0 -32 -12.333 -67.667 -37 -107
c-3.33301 -4.66699 -6.16602 -9 -8.49902 -13s-5.16602 -7.66699 -8.49902 -11c15.333 -38 23 -83 23 -135c0 -85.333 -22.333 -153.333 -67 -204c-45.333 -51.333 -108.666 -77 -189.999 -77l-3 -2c-71.333 1.33301 -129.333 23.666 -174 66.999
c-44.667 44 -67 112 -67 204c0 84.667 22.667 152.667 68 204s108.333 77 189 77c72.667 0 131.667 -22 177 -66c13.333 -13.333 25.333 -29.666 36 -48.999l5 5c20.667 20.667 31.334 38.667 32.001 54h-2zM294.998 11.999c46 0 82.666 22.668 109.999 68.001
s41 106 41 182c0 79.333 -14 143 -42 191s-64.333 72 -109 72c-45.333 0 -81.666 -22.667 -108.999 -68c-26.667 -44.667 -40 -105.334 -40 -182.001c0 -78.667 14 -142 42 -190s64 -72 108 -72z" />
    <glyph glyph-name="paragraph" unicode="&#x1af;" horiz-adv-x="660" 
d="M655 758c-30.667 -7.33301 -51.998 -5.66602 -63.998 5.00098c-12.667 12.667 -19 27 -19 43c0 16.667 5 30.667 15 42c9.33301 11.333 22.666 17 39.999 17s30.666 -4.33301 39.999 -13c10 -9.33301 15 -23 15 -41c0 -32 -12.333 -67.667 -37 -107
c-16.667 -26.667 -32.334 -44.667 -47.001 -54c-1.33301 -17.333 -2.5 -36.333 -3.5 -57s-1.5 -43 -1.5 -67v-32.5c0 -13 0.333008 -28.167 1 -45.5s1 -32.833 1 -46.5v-34.5c0 -52.667 -2 -97 -6 -133c-4 -37.333 -11.333 -71.666 -22 -102.999
c-11.333 -33.333 -26.333 -59.333 -45 -78c-19.333 -19.333 -44.333 -34.333 -75 -45c-30 -10.667 -67.333 -16 -112 -16c-41.333 0 -76.333 5 -105 15c-29.333 10 -52.333 23.333 -69 40s-30 39 -40 67c-9.33301 26.667 -15.666 54.667 -18.999 84
c-1.33301 14 -2.33301 29.5 -3 46.5s-1 35.833 -1 56.5c0 276.667 -11.667 417.667 -35 423c5.33301 6 16 11.667 32 17c17.333 5.33301 34.666 8 51.999 8c21.333 0 35 -6.33301 41 -19c6 -13.333 9 -44.333 9 -93l-4 -3v-355c0 -96.667 13 -165.334 39 -206.001
c26 -41.333 71.667 -62 137 -62c64 0 112.667 24.667 146 74s50 119.333 50 210c0 37.333 -3 97 -9 179s-9 139.667 -9 173s3 58 9 74s17.333 24 34 24c9.33301 0 18 -2 26 -6c-2.66699 -7.33301 -5.16699 -15.333 -7.5 -24s-4.16602 -18.334 -5.49902 -29.001
c7.33301 4.66699 14.666 10.667 21.999 18c20.667 20.667 31.334 38.667 32.001 54h-2z" />
    <glyph glyph-name="notequal" unicode="&#x1b0;" horiz-adv-x="609" 
d="M540 565c-30.667 -7.33301 -52.001 -5.66895 -64.001 4.99805c-12.667 12.667 -19 27 -19 43c0 16.667 5 30.667 15 42c9.33301 11.333 22.666 17 39.999 17s30.666 -4.33301 39.999 -13c10 -9.33301 15 -23 15 -41c0 -32 -12.333 -67.667 -37 -107l-20 -29
c0 -19.333 -0.333008 -43.166 -1 -71.499s-1.33398 -61.833 -2.00098 -100.5c-2 -89.333 -3 -151.666 -3 -186.999c0 -32 3 -54 9 -66s17 -18 33 -18c15.333 0 33 3.33301 53 10c0.666992 0 1 -1 1 -3c0 -8 -15 -18 -45 -30s-60 -18 -90 -18
c-23.333 0 -38.333 7.33301 -45 22c-6.66699 14 -10 46 -10 96c-19.333 -35.333 -45.333 -64.333 -78 -87s-70.667 -34 -114 -34c-49.333 0 -82.666 13.667 -99.999 41c-16.667 26.667 -25 69.667 -25 129l-1 258c0 36.667 -2.33301 59.667 -7 69
c-5.33301 10 -17.333 15 -36 15c-15.333 0 -29.666 -1.66699 -42.999 -5c-0.666992 0.666992 -1 1.66699 -1 3c0 7.33301 14.333 15.333 43 24c30 9.33301 58 14 84 14c26.667 0 43.667 -6.66699 51 -20c6.66699 -12.667 10 -43.334 10 -92.001l-3 -242
c0 -47.333 5.66699 -80.666 17 -99.999c10.667 -18.667 31.667 -28 63 -28c24.667 0 49.667 7.66699 75 23c24.667 14.667 45.667 33.667 63 57c0 56.667 -0.333008 105.667 -1 147s-1.66699 75 -3 101s-3.5 51 -6.5 75s-7.16699 46.667 -12.5 68c24 11.333 54 17 90 17
c13.333 0 22.333 -3.33301 27 -10s7.33398 -16 8.00098 -28c20.667 20.667 31.334 38.667 32.001 54h-2z" />
    <glyph glyph-name="Ntilde" unicode="&#x1ea0;" horiz-adv-x="647" 
d="M560 -6c-30.667 0 -58.001 19.332 -82.001 57.999s-48 96.667 -72 174h-309c-26 -67.333 -39 -110.666 -39 -129.999c0 -30.667 8 -59 24 -85c-13.333 -11.333 -28.333 -17 -45 -17c-25.333 0 -38 13.333 -38 40c0 25.333 13 69 39 131l41 94l44 95
c15.333 32 30 64.667 44 98s27.667 68 41 104c26 70.667 39 125.667 39 165c0 3.33301 -0.166992 6.5 -0.5 9.5s-0.833008 6.16699 -1.5 9.5c5.33301 4.66699 15 7 29 7c25.333 0 49 -16.667 71 -50c11.333 -16.667 22 -36.167 32 -58.5s19.667 -47.5 29 -75.5l28.5 -86
l29.5 -90c10 -30.667 21.5 -62.167 34.5 -94.5s27.167 -65.5 42.5 -99.5c30.667 -68 65.334 -124.667 104.001 -170c-22.667 -18.667 -50 -28 -82 -28zM264.999 656.999c-4 -26.667 -14.002 -61 -30.002 -103s-40 -100 -72 -174l-38 -89.5
c-9.33301 -22.333 -15.666 -37.166 -18.999 -44.499h294c-9.33301 26.667 -23.333 72.667 -42 138c-9.33301 32.667 -18.333 62.5 -27 89.5l-24 73.5c-15.333 45.333 -29.666 81.666 -42.999 108.999zM283.997 -65.001c38.667 0 58.001 -18.334 58.001 -55.001
c0 -21.333 -5.66699 -38.666 -17 -51.999c-10.667 -12.667 -27.334 -19 -50.001 -19c-19.333 0 -33.333 5 -42 15c-8.66699 9.33301 -13 23 -13 41c0 20 6 36.667 18 50s27.667 20 47 20h-1z" />
    <glyph glyph-name="pi" unicode="&#x1ea1;" horiz-adv-x="565" 
d="M542 65c1.33301 0 1.99902 -0.998047 1.99902 -2.99805c0 -10.667 -15 -23.334 -45 -38.001c-30.667 -15.333 -58.667 -23 -84 -23c-23.333 0 -38.666 8.66699 -45.999 26c-6.66699 16 -10 47 -10 93c-20.667 -36.667 -48.334 -66.667 -83.001 -90
c-33.333 -22.667 -69.666 -34 -108.999 -34c-38 0 -69 10 -93 30s-36 48.667 -36 86c0 99.333 106.667 158.666 320 177.999v115c0 45.333 -7 77 -21 95s-37.333 27 -70 27c-29.333 0 -54.333 -7 -75 -21s-31 -33.333 -31 -58c0 -24 7.33301 -44.667 22 -62
c-14.667 -16.667 -35.667 -25 -63 -25c-17.333 0 -31.333 5 -42 15c-11.333 10 -17 24.667 -17 44c0 28 12 52 36 72s52 34 84 42s66 12 102 12c58.667 0 102.667 -12 132 -36s44 -69.667 44 -137v-262c0 -24 2 -40 6 -48s12 -12 24 -12c16 0 33.667 4.33301 53 13v1z
M218.999 63.002c53.333 0 99.666 26.001 138.999 78.001v130c-69.333 -7.33301 -122.333 -22.333 -159 -45s-55 -51.667 -55 -87c0 -22.667 6.66699 -41.334 20 -56.001c12.667 -14 31.334 -21 56.001 -21zM283.999 -64.9971c38.667 0 58.001 -18.334 58.001 -55.001
c0 -21.333 -5.66699 -38.666 -17 -51.999c-10.667 -12.667 -27.334 -19 -50.001 -19c-19.333 0 -33.333 5 -42 15c-8.66699 9.33301 -13 23 -13 41c0 20 6 36.667 18 50s27.667 20 47 20h-1z" />
    <glyph glyph-name="Aring" unicode="&#x1ea2;" horiz-adv-x="647" 
d="M560 -6c-30.667 0 -58.001 19.332 -82.001 57.999s-48 96.667 -72 174h-309c-26 -67.333 -39 -110.666 -39 -129.999c0 -30.667 8 -59 24 -85c-13.333 -11.333 -28.333 -17 -45 -17c-25.333 0 -38 13.333 -38 40c0 25.333 13 69 39 131l41 94l44 95
c15.333 32 30 64.667 44 98s27.667 68 41 104c26 70.667 39 125.667 39 165c0 3.33301 -0.166992 6.5 -0.5 9.5s-0.833008 6.16699 -1.5 9.5c5.33301 4.66699 15 7 29 7c25.333 0 49 -16.667 71 -50c11.333 -16.667 22 -36.167 32 -58.5s19.667 -47.5 29 -75.5l28.5 -86
l29.5 -90c10 -30.667 21.5 -62.167 34.5 -94.5s27.167 -65.5 42.5 -99.5c30.667 -68 65.334 -124.667 104.001 -170c-22.667 -18.667 -50 -28 -82 -28zM264.999 656.999c-4 -26.667 -14.002 -61 -30.002 -103s-40 -100 -72 -174l-38 -89.5
c-9.33301 -22.333 -15.666 -37.166 -18.999 -44.499h294c-9.33301 26.667 -23.333 72.667 -42 138c-9.33301 32.667 -18.333 62.5 -27 89.5l-24 73.5c-15.333 45.333 -29.666 81.666 -42.999 108.999zM308.997 837.999c4.66699 0 7.3291 0.331055 7.99609 0.998047l10 2
l1 -5v-6c0 -8 -3.33301 -15.333 -10 -22c-6 -4.66699 -13 -7 -21 -7c-10.667 0 -20 4.33301 -28 13c-7.33301 7.33301 -11 18 -11 32c0 10.667 4.66699 23.334 14 38.001c2.66699 3.33301 5.33398 6.5 8.00098 9.5s5.33398 5.83301 8.00098 8.5v-1l12 10l12 9
c3.33301 2.66699 6.33301 5.83398 9 9.50098s5.66699 7.5 9 11.5l-1 -1c4 8 6 16.667 6 26c0 12.667 -4.66699 23.334 -14 32.001c-3.33301 3.33301 -10.333 5 -21 5c-5.33301 0 -10.166 -0.5 -14.499 -1.5s-8.16602 -3.16699 -11.499 -6.5v1
c-6.66699 -6.66699 -10 -14.667 -10 -24c0 -8 3.66699 -16.667 11 -26c-10.667 -10.667 -20.667 -16 -30 -16s-17.666 3.66699 -24.999 11c-5.33301 6 -8 14.333 -8 25c0 20.667 10 36.667 30 48v-1c18.667 11.333 39.667 17 63 17c22 0 41 -5 57 -15
c16.667 -10.667 25 -26.667 25 -48c0 -14.667 -2.66699 -26.334 -8 -35.001c-6 -11.333 -13.333 -19.333 -22 -24v1l-24 -16l-24 -13c-6.66699 -3.33301 -11.334 -7.33301 -14.001 -12c-4 -4 -6 -8.66699 -6 -14c0 -4.66699 2 -9 6 -13c0.666992 -2 4 -3 10 -3h3h1z" />
    <glyph glyph-name="partialdiff" unicode="&#x1ea3;" horiz-adv-x="565" 
d="M542 65c1.33301 0 1.99902 -0.998047 1.99902 -2.99805c0 -10.667 -15 -23.334 -45 -38.001c-30.667 -15.333 -58.667 -23 -84 -23c-23.333 0 -38.666 8.66699 -45.999 26c-6.66699 16 -10 47 -10 93c-20.667 -36.667 -48.334 -66.667 -83.001 -90
c-33.333 -22.667 -69.666 -34 -108.999 -34c-38 0 -69 10 -93 30s-36 48.667 -36 86c0 99.333 106.667 158.666 320 177.999v115c0 45.333 -7 77 -21 95s-37.333 27 -70 27c-29.333 0 -54.333 -7 -75 -21s-31 -33.333 -31 -58c0 -24 7.33301 -44.667 22 -62
c-14.667 -16.667 -35.667 -25 -63 -25c-17.333 0 -31.333 5 -42 15c-11.333 10 -17 24.667 -17 44c0 28 12 52 36 72s52 34 84 42s66 12 102 12c58.667 0 102.667 -12 132 -36s44 -69.667 44 -137v-262c0 -24 2 -40 6 -48s12 -12 24 -12c16 0 33.667 4.33301 53 13v1z
M218.999 63.002c53.333 0 99.666 26.001 138.999 78.001v130c-69.333 -7.33301 -122.333 -22.333 -159 -45s-55 -51.667 -55 -87c0 -22.667 6.66699 -41.334 20 -56.001c12.667 -14 31.334 -21 56.001 -21zM308.999 626.003c4.66699 0 7.3291 0.331055 7.99609 0.998047
l10 2l1 -5v-6c0 -8 -3.33301 -15.333 -10 -22c-6 -4.66699 -13 -7 -21 -7c-10.667 0 -20 4.33301 -28 13c-7.33301 7.33301 -11 18 -11 32c0 10.667 4.66699 23.334 14 38.001c2.66699 3.33301 5.33398 6.5 8.00098 9.5s5.33398 5.83301 8.00098 8.5v-1l12 10l12 9
c3.33301 2.66699 6.33301 5.83398 9 9.50098s5.66699 7.5 9 11.5l-1 -1c4 8 6 16.667 6 26c0 12.667 -4.66699 23.334 -14 32.001c-3.33301 3.33301 -10.333 5 -21 5c-5.33301 0 -10.166 -0.5 -14.499 -1.5s-8.16602 -3.16699 -11.499 -6.5v1
c-6.66699 -6.66699 -10 -14.667 -10 -24c0 -8 3.66699 -16.667 11 -26c-10.667 -10.667 -20.667 -16 -30 -16s-17.666 3.66699 -24.999 11c-5.33301 6 -8 14.333 -8 25c0 20.667 10 36.667 30 48v-1c18.667 11.333 39.667 17 63 17c22 0 41 -5 57 -15
c16.667 -10.667 25 -26.667 25 -48c0 -14.667 -2.66699 -26.334 -8 -35.001c-6 -11.333 -13.333 -19.333 -22 -24v1l-24 -16l-24 -13c-6.66699 -3.33301 -11.334 -7.33301 -14.001 -12c-4 -4 -6 -8.66699 -6 -14c0 -4.66699 2 -9 6 -13c0.666992 -2 4 -3 10 -3h3h1z" />
    <glyph glyph-name="florin" unicode="&#x1ea4;" horiz-adv-x="647" 
d="M560 -6c-30.667 0 -58.001 19.332 -82.001 57.999s-48 96.667 -72 174h-309c-26 -67.333 -39 -110.666 -39 -129.999c0 -30.667 8 -59 24 -85c-13.333 -11.333 -28.333 -17 -45 -17c-25.333 0 -38 13.333 -38 40c0 25.333 13 69 39 131l41 94l44 95
c15.333 32 30 64.667 44 98s27.667 68 41 104c26 70.667 39 125.667 39 165c0 3.33301 -0.166992 6.5 -0.5 9.5s-0.833008 6.16699 -1.5 9.5c5.33301 4.66699 15 7 29 7c25.333 0 49 -16.667 71 -50c11.333 -16.667 22 -36.167 32 -58.5s19.667 -47.5 29 -75.5l28.5 -86
l29.5 -90c10 -30.667 21.5 -62.167 34.5 -94.5s27.167 -65.5 42.5 -99.5c30.667 -68 65.334 -124.667 104.001 -170c-22.667 -18.667 -50 -28 -82 -28zM264.999 656.999c-4 -26.667 -14.002 -61 -30.002 -103s-40 -100 -72 -174l-38 -89.5
c-9.33301 -22.333 -15.666 -37.166 -18.999 -44.499h294c-9.33301 26.667 -23.333 72.667 -42 138c-9.33301 32.667 -18.333 62.5 -27 89.5l-24 73.5c-15.333 45.333 -29.666 81.666 -42.999 108.999zM283.997 901.999c-79.333 -70 -127.334 -105 -144.001 -105
c-9.33301 0 -15.333 3 -18 9c72.667 64.667 126.667 118.667 162 162c38.667 -47.333 93.667 -101.333 165 -162c-5.33301 -6 -11.666 -9 -18.999 -9c-17.333 0 -65.333 35 -144 105h-2zM398.996 870.999c78.667 36.667 127 97.667 145 183c9.33301 7.33301 20 11 32 11
c10.667 0 19.667 -3 27 -9s11 -15.667 11 -29c0 -34 -26 -69 -78 -105s-93.333 -54 -124 -54c-7.33301 0 -12 1.33301 -14 4z" />
    <glyph glyph-name="dagger" unicode="&#x1ea5;" horiz-adv-x="565" 
d="M542 65c1.33301 0 1.99902 -0.998047 1.99902 -2.99805c0 -10.667 -15 -23.334 -45 -38.001c-30.667 -15.333 -58.667 -23 -84 -23c-23.333 0 -38.666 8.66699 -45.999 26c-6.66699 16 -10 47 -10 93c-20.667 -36.667 -48.334 -66.667 -83.001 -90
c-33.333 -22.667 -69.666 -34 -108.999 -34c-38 0 -69 10 -93 30s-36 48.667 -36 86c0 99.333 106.667 158.666 320 177.999v115c0 45.333 -7 77 -21 95s-37.333 27 -70 27c-29.333 0 -54.333 -7 -75 -21s-31 -33.333 -31 -58c0 -24 7.33301 -44.667 22 -62
c-14.667 -16.667 -35.667 -25 -63 -25c-17.333 0 -31.333 5 -42 15c-11.333 10 -17 24.667 -17 44c0 28 12 52 36 72s52 34 84 42s66 12 102 12c58.667 0 102.667 -12 132 -36s44 -69.667 44 -137v-262c0 -24 2 -40 6 -48s12 -12 24 -12c16 0 33.667 4.33301 53 13v1z
M218.999 63.002c53.333 0 99.666 26.001 138.999 78.001v130c-69.333 -7.33301 -122.333 -22.333 -159 -45s-55 -51.667 -55 -87c0 -22.667 6.66699 -41.334 20 -56.001c12.667 -14 31.334 -21 56.001 -21zM267.999 693.003c-79.333 -70 -127.334 -105 -144.001 -105
c-9.33301 0 -15.333 3 -18 9c72.667 64.667 126.667 118.667 162 162c38.667 -47.333 93.667 -101.333 165 -162c-5.33301 -6 -11.666 -9 -18.999 -9c-17.333 0 -65.333 35 -144 105h-2zM397.998 659.003c78.667 36.667 127 97.667 145 183c9.33301 7.33301 20 11 32 11
c10.667 0 19.667 -3 27 -9s11 -15.667 11 -29c0 -34 -26 -69 -78 -105s-93.333 -54 -124 -54c-7.33301 0 -12 1.33301 -14 4z" />
    <glyph glyph-name="exclamdown" unicode="&#x1ea6;" horiz-adv-x="647" 
d="M560 -6c-30.667 0 -58.001 19.332 -82.001 57.999s-48 96.667 -72 174h-309c-26 -67.333 -39 -110.666 -39 -129.999c0 -30.667 8 -59 24 -85c-13.333 -11.333 -28.333 -17 -45 -17c-25.333 0 -38 13.333 -38 40c0 25.333 13 69 39 131l41 94l44 95
c15.333 32 30 64.667 44 98s27.667 68 41 104c26 70.667 39 125.667 39 165c0 3.33301 -0.166992 6.5 -0.5 9.5s-0.833008 6.16699 -1.5 9.5c5.33301 4.66699 15 7 29 7c25.333 0 49 -16.667 71 -50c11.333 -16.667 22 -36.167 32 -58.5s19.667 -47.5 29 -75.5l28.5 -86
l29.5 -90c10 -30.667 21.5 -62.167 34.5 -94.5s27.167 -65.5 42.5 -99.5c30.667 -68 65.334 -124.667 104.001 -170c-22.667 -18.667 -50 -28 -82 -28zM264.999 656.999c-4 -26.667 -14.002 -61 -30.002 -103s-40 -100 -72 -174l-38 -89.5
c-9.33301 -22.333 -15.666 -37.166 -18.999 -44.499h294c-9.33301 26.667 -23.333 72.667 -42 138c-9.33301 32.667 -18.333 62.5 -27 89.5l-24 73.5c-15.333 45.333 -29.666 81.666 -42.999 108.999zM283.997 901.999c-79.333 -70 -127.334 -105 -144.001 -105
c-9.33301 0 -15.333 3 -18 9c72.667 64.667 126.667 118.667 162 162c38.667 -47.333 93.667 -101.333 165 -162c-5.33301 -6 -11.666 -9 -18.999 -9c-17.333 0 -65.333 35 -144 105h-2zM500.996 871.999c-2 -2.66699 -6.66699 -4 -14 -4c-30.667 0 -72 18 -124 54
s-78 71 -78 105c0 13.333 3.66699 23 11 29c6.66699 6 15.667 9 27 9c12 0 22.667 -3.66699 32 -11c18 -85.333 66.333 -146.333 145 -183z" />
    <glyph glyph-name="guillemotleft" unicode="&#x1ea7;" horiz-adv-x="565" 
d="M542 65c1.33301 0 1.99902 -0.998047 1.99902 -2.99805c0 -10.667 -15 -23.334 -45 -38.001c-30.667 -15.333 -58.667 -23 -84 -23c-23.333 0 -38.666 8.66699 -45.999 26c-6.66699 16 -10 47 -10 93c-20.667 -36.667 -48.334 -66.667 -83.001 -90
c-33.333 -22.667 -69.666 -34 -108.999 -34c-38 0 -69 10 -93 30s-36 48.667 -36 86c0 99.333 106.667 158.666 320 177.999v115c0 45.333 -7 77 -21 95s-37.333 27 -70 27c-29.333 0 -54.333 -7 -75 -21s-31 -33.333 -31 -58c0 -24 7.33301 -44.667 22 -62
c-14.667 -16.667 -35.667 -25 -63 -25c-17.333 0 -31.333 5 -42 15c-11.333 10 -17 24.667 -17 44c0 28 12 52 36 72s52 34 84 42s66 12 102 12c58.667 0 102.667 -12 132 -36s44 -69.667 44 -137v-262c0 -24 2 -40 6 -48s12 -12 24 -12c16 0 33.667 4.33301 53 13v1z
M218.999 63.002c53.333 0 99.666 26.001 138.999 78.001v130c-69.333 -7.33301 -122.333 -22.333 -159 -45s-55 -51.667 -55 -87c0 -22.667 6.66699 -41.334 20 -56.001c12.667 -14 31.334 -21 56.001 -21zM267.999 693.003c-79.333 -70 -127.334 -105 -144.001 -105
c-9.33301 0 -15.333 3 -18 9c72.667 64.667 126.667 118.667 162 162c38.667 -47.333 93.667 -101.333 165 -162c-5.33301 -6 -11.666 -9 -18.999 -9c-17.333 0 -65.333 35 -144 105h-2zM487.998 660.003c-2 -2.66699 -6.66699 -4 -14 -4c-30.667 0 -72 18 -124 54
s-78 71 -78 105c0 13.333 3.66699 23 11 29c6.66699 6 15.667 9 27 9c12 0 22.667 -3.66699 32 -11c18 -85.333 66.333 -146.333 145 -183z" />
    <glyph glyph-name="logicalnot" unicode="&#x1ea8;" horiz-adv-x="647" 
d="M560 -6c-30.667 0 -58.001 19.332 -82.001 57.999s-48 96.667 -72 174h-309c-26 -67.333 -39 -110.666 -39 -129.999c0 -30.667 8 -59 24 -85c-13.333 -11.333 -28.333 -17 -45 -17c-25.333 0 -38 13.333 -38 40c0 25.333 13 69 39 131l41 94l44 95
c15.333 32 30 64.667 44 98s27.667 68 41 104c26 70.667 39 125.667 39 165c0 3.33301 -0.166992 6.5 -0.5 9.5s-0.833008 6.16699 -1.5 9.5c5.33301 4.66699 15 7 29 7c25.333 0 49 -16.667 71 -50c11.333 -16.667 22 -36.167 32 -58.5s19.667 -47.5 29 -75.5l28.5 -86
l29.5 -90c10 -30.667 21.5 -62.167 34.5 -94.5s27.167 -65.5 42.5 -99.5c30.667 -68 65.334 -124.667 104.001 -170c-22.667 -18.667 -50 -28 -82 -28zM264.999 656.999c-4 -26.667 -14.002 -61 -30.002 -103s-40 -100 -72 -174l-38 -89.5
c-9.33301 -22.333 -15.666 -37.166 -18.999 -44.499h294c-9.33301 26.667 -23.333 72.667 -42 138c-9.33301 32.667 -18.333 62.5 -27 89.5l-24 73.5c-15.333 45.333 -29.666 81.666 -42.999 108.999zM283.997 901.999c-79.333 -70 -127.334 -105 -144.001 -105
c-9.33301 0 -15.333 3 -18 9c72.667 64.667 126.667 118.667 162 162c38.667 -47.333 93.667 -101.333 165 -162c-5.33301 -6 -11.666 -9 -18.999 -9c-17.333 0 -65.333 35 -144 105h-2zM445.996 894.999c4.66699 0 7.3291 0.331055 7.99609 0.998047l10 2l1 -5v-6
c0 -8 -3.33301 -15.333 -10 -22c-6 -4.66699 -13 -7 -21 -7c-10.667 0 -20 4.33301 -28 13c-7.33301 7.33301 -11 18 -11 32c0 10.667 4.66699 23.334 14 38.001c2.66699 3.33301 5.33398 6.5 8.00098 9.5s5.33398 5.83301 8.00098 8.5v-1l12 10l12 9
c3.33301 2.66699 6.33301 5.83398 9 9.50098s5.66699 7.5 9 11.5l-1 -1c4 8 6 16.667 6 26c0 12.667 -4.66699 23.334 -14 32.001c-3.33301 3.33301 -10.333 5 -21 5c-5.33301 0 -10.166 -0.5 -14.499 -1.5s-8.16602 -3.16699 -11.499 -6.5v1
c-6.66699 -6.66699 -10 -14.667 -10 -24c0 -8 3.66699 -16.667 11 -26c-10.667 -10.667 -20.667 -16 -30 -16s-17.666 3.66699 -24.999 11c-5.33301 6 -8 14.333 -8 25c0 20.667 10 36.667 30 48v-1c18.667 11.333 39.667 17 63 17c22 0 41 -5 57 -15
c16.667 -10.667 25 -26.667 25 -48c0 -14.667 -2.66699 -26.334 -8 -35.001c-6 -11.333 -13.333 -19.333 -22 -24v1l-24 -16l-24 -13c-6.66699 -3.33301 -11.334 -7.33301 -14.001 -12c-4 -4 -6 -8.66699 -6 -14c0 -4.66699 2 -9 6 -13c0.666992 -2 4 -3 10 -3h3h1z" />
    <glyph glyph-name="guillemotright" unicode="&#x1ea9;" horiz-adv-x="565" 
d="M542 65c1.33301 0 1.99902 -0.998047 1.99902 -2.99805c0 -10.667 -15 -23.334 -45 -38.001c-30.667 -15.333 -58.667 -23 -84 -23c-23.333 0 -38.666 8.66699 -45.999 26c-6.66699 16 -10 47 -10 93c-20.667 -36.667 -48.334 -66.667 -83.001 -90
c-33.333 -22.667 -69.666 -34 -108.999 -34c-38 0 -69 10 -93 30s-36 48.667 -36 86c0 99.333 106.667 158.666 320 177.999v115c0 45.333 -7 77 -21 95s-37.333 27 -70 27c-29.333 0 -54.333 -7 -75 -21s-31 -33.333 -31 -58c0 -24 7.33301 -44.667 22 -62
c-14.667 -16.667 -35.667 -25 -63 -25c-17.333 0 -31.333 5 -42 15c-11.333 10 -17 24.667 -17 44c0 28 12 52 36 72s52 34 84 42s66 12 102 12c58.667 0 102.667 -12 132 -36s44 -69.667 44 -137v-262c0 -24 2 -40 6 -48s12 -12 24 -12c16 0 33.667 4.33301 53 13v1z
M218.999 63.002c53.333 0 99.666 26.001 138.999 78.001v130c-69.333 -7.33301 -122.333 -22.333 -159 -45s-55 -51.667 -55 -87c0 -22.667 6.66699 -41.334 20 -56.001c12.667 -14 31.334 -21 56.001 -21zM267.999 693.003c-79.333 -70 -127.334 -105 -144.001 -105
c-9.33301 0 -15.333 3 -18 9c72.667 64.667 126.667 118.667 162 162c38.667 -47.333 93.667 -101.333 165 -162c-5.33301 -6 -11.666 -9 -18.999 -9c-17.333 0 -65.333 35 -144 105h-2zM448.998 680.003c4.66699 0 7.3291 0.331055 7.99609 0.998047l10 2l1 -5v-6
c0 -8 -3.33301 -15.333 -10 -22c-6 -4.66699 -13 -7 -21 -7c-10.667 0 -20 4.33301 -28 13c-7.33301 7.33301 -11 18 -11 32c0 10.667 4.66699 23.334 14 38.001c2.66699 3.33301 5.33398 6.5 8.00098 9.5s5.33398 5.83301 8.00098 8.5v-1l12 10l12 9
c3.33301 2.66699 6.33301 5.83398 9 9.50098s5.66699 7.5 9 11.5l-1 -1c4 8 6 16.667 6 26c0 12.667 -4.66699 23.334 -14 32.001c-3.33301 3.33301 -10.333 5 -21 5c-5.33301 0 -10.166 -0.5 -14.499 -1.5s-8.16602 -3.16699 -11.499 -6.5v1
c-6.66699 -6.66699 -10 -14.667 -10 -24c0 -8 3.66699 -16.667 11 -26c-10.667 -10.667 -20.667 -16 -30 -16s-17.666 3.66699 -24.999 11c-5.33301 6 -8 14.333 -8 25c0 20.667 10 36.667 30 48v-1c18.667 11.333 39.667 17 63 17c22 0 41 -5 57 -15
c16.667 -10.667 25 -26.667 25 -48c0 -14.667 -2.66699 -26.334 -8 -35.001c-6 -11.333 -13.333 -19.333 -22 -24v1l-24 -16l-24 -13c-6.66699 -3.33301 -11.334 -7.33301 -14.001 -12c-4 -4 -6 -8.66699 -6 -14c0 -4.66699 2 -9 6 -13c0.666992 -2 4 -3 10 -3h3h1z" />
    <glyph glyph-name="radical" unicode="&#x1eaa;" horiz-adv-x="647" 
d="M560 -6c-30.667 0 -58.001 19.332 -82.001 57.999s-48 96.667 -72 174h-309c-26 -67.333 -39 -110.666 -39 -129.999c0 -30.667 8 -59 24 -85c-13.333 -11.333 -28.333 -17 -45 -17c-25.333 0 -38 13.333 -38 40c0 25.333 13 69 39 131l41 94l44 95
c15.333 32 30 64.667 44 98s27.667 68 41 104c26 70.667 39 125.667 39 165c0 3.33301 -0.166992 6.5 -0.5 9.5s-0.833008 6.16699 -1.5 9.5c5.33301 4.66699 15 7 29 7c25.333 0 49 -16.667 71 -50c11.333 -16.667 22 -36.167 32 -58.5s19.667 -47.5 29 -75.5l28.5 -86
l29.5 -90c10 -30.667 21.5 -62.167 34.5 -94.5s27.167 -65.5 42.5 -99.5c30.667 -68 65.334 -124.667 104.001 -170c-22.667 -18.667 -50 -28 -82 -28zM264.999 656.999c-4 -26.667 -14.002 -61 -30.002 -103s-40 -100 -72 -174l-38 -89.5
c-9.33301 -22.333 -15.666 -37.166 -18.999 -44.499h294c-9.33301 26.667 -23.333 72.667 -42 138c-9.33301 32.667 -18.333 62.5 -27 89.5l-24 73.5c-15.333 45.333 -29.666 81.666 -42.999 108.999zM283.997 901.999c-79.333 -70 -127.334 -105 -144.001 -105
c-9.33301 0 -15.333 3 -18 9c72.667 64.667 126.667 118.667 162 162c38.667 -47.333 93.667 -101.333 165 -162c-5.33301 -6 -11.666 -9 -18.999 -9c-17.333 0 -65.333 35 -144 105h-2zM471.996 1090c4.66699 -0.666992 7 -7 7 -19c0 -18.667 -9 -38 -27 -58
s-45 -30 -81 -30c-21.333 0 -48 7 -80 21s-56 21 -72 21c-43.333 0 -70 -14.333 -80 -43c-4.66699 2 -7 8 -7 18c0 22 9.66699 42.667 29 62s46.333 29 81 29c19.333 0 45 -7 77 -21s56 -21 72 -21c44.667 0 71.667 14 81 42v-1z" />
    <glyph glyph-name="ellipsis" unicode="&#x1eab;" horiz-adv-x="565" 
d="M542 65c1.33301 0 1.99902 -0.998047 1.99902 -2.99805c0 -10.667 -15 -23.334 -45 -38.001c-30.667 -15.333 -58.667 -23 -84 -23c-23.333 0 -38.666 8.66699 -45.999 26c-6.66699 16 -10 47 -10 93c-20.667 -36.667 -48.334 -66.667 -83.001 -90
c-33.333 -22.667 -69.666 -34 -108.999 -34c-38 0 -69 10 -93 30s-36 48.667 -36 86c0 99.333 106.667 158.666 320 177.999v115c0 45.333 -7 77 -21 95s-37.333 27 -70 27c-29.333 0 -54.333 -7 -75 -21s-31 -33.333 -31 -58c0 -24 7.33301 -44.667 22 -62
c-14.667 -16.667 -35.667 -25 -63 -25c-17.333 0 -31.333 5 -42 15c-11.333 10 -17 24.667 -17 44c0 28 12 52 36 72s52 34 84 42s66 12 102 12c58.667 0 102.667 -12 132 -36s44 -69.667 44 -137v-262c0 -24 2 -40 6 -48s12 -12 24 -12c16 0 33.667 4.33301 53 13v1z
M218.999 63.002c53.333 0 99.666 26.001 138.999 78.001v130c-69.333 -7.33301 -122.333 -22.333 -159 -45s-55 -51.667 -55 -87c0 -22.667 6.66699 -41.334 20 -56.001c12.667 -14 31.334 -21 56.001 -21zM267.999 693.003c-79.333 -70 -127.334 -105 -144.001 -105
c-9.33301 0 -15.333 3 -18 9c72.667 64.667 126.667 118.667 162 162c38.667 -47.333 93.667 -101.333 165 -162c-5.33301 -6 -11.666 -9 -18.999 -9c-17.333 0 -65.333 35 -144 105h-2zM432.998 883.003c4.66699 -0.666992 7 -7 7 -19c0 -18.667 -9 -38 -27 -58
s-45 -30 -81 -30c-21.333 0 -48 7 -80 21s-56 21 -72 21c-43.333 0 -70 -14.333 -80 -43c-4.66699 2 -7 8 -7 18c0 22 9.66699 42.667 29 62s46.333 29 81 29c19.333 0 45 -7 77 -21s56 -21 72 -21c44.667 0 71.667 14 81 42v-1z" />
    <glyph glyph-name="Udieresis" unicode="&#x1eac;" horiz-adv-x="647" 
d="M560 -6c-30.667 0 -58.001 19.332 -82.001 57.999s-48 96.667 -72 174h-309c-26 -67.333 -39 -110.666 -39 -129.999c0 -30.667 8 -59 24 -85c-13.333 -11.333 -28.333 -17 -45 -17c-25.333 0 -38 13.333 -38 40c0 25.333 13 69 39 131l41 94l44 95
c15.333 32 30 64.667 44 98s27.667 68 41 104c26 70.667 39 125.667 39 165c0 3.33301 -0.166992 6.5 -0.5 9.5s-0.833008 6.16699 -1.5 9.5c5.33301 4.66699 15 7 29 7c25.333 0 49 -16.667 71 -50c11.333 -16.667 22 -36.167 32 -58.5s19.667 -47.5 29 -75.5l28.5 -86
l29.5 -90c10 -30.667 21.5 -62.167 34.5 -94.5s27.167 -65.5 42.5 -99.5c30.667 -68 65.334 -124.667 104.001 -170c-22.667 -18.667 -50 -28 -82 -28zM264.999 656.999c-4 -26.667 -14.002 -61 -30.002 -103s-40 -100 -72 -174l-38 -89.5
c-9.33301 -22.333 -15.666 -37.166 -18.999 -44.499h294c-9.33301 26.667 -23.333 72.667 -42 138c-9.33301 32.667 -18.333 62.5 -27 89.5l-24 73.5c-15.333 45.333 -29.666 81.666 -42.999 108.999zM283.997 901.999c-79.333 -70 -127.334 -105 -144.001 -105
c-9.33301 0 -15.333 3 -18 9c72.667 64.667 126.667 118.667 162 162c38.667 -47.333 93.667 -101.333 165 -162c-5.33301 -6 -11.666 -9 -18.999 -9c-17.333 0 -65.333 35 -144 105h-2zM283.996 -65.001c38.667 0 58.001 -18.334 58.001 -55.001
c0 -21.333 -5.66699 -38.666 -17 -51.999c-10.667 -12.667 -27.334 -19 -50.001 -19c-19.333 0 -33.333 5 -42 15c-8.66699 9.33301 -13 23 -13 41c0 20 6 36.667 18 50s27.667 20 47 20h-1z" />
    <glyph glyph-name="Agrave" unicode="&#x1ead;" horiz-adv-x="565" 
d="M542 65c1.33301 0 1.99902 -0.998047 1.99902 -2.99805c0 -10.667 -15 -23.334 -45 -38.001c-30.667 -15.333 -58.667 -23 -84 -23c-23.333 0 -38.666 8.66699 -45.999 26c-6.66699 16 -10 47 -10 93c-20.667 -36.667 -48.334 -66.667 -83.001 -90
c-33.333 -22.667 -69.666 -34 -108.999 -34c-38 0 -69 10 -93 30s-36 48.667 -36 86c0 99.333 106.667 158.666 320 177.999v115c0 45.333 -7 77 -21 95s-37.333 27 -70 27c-29.333 0 -54.333 -7 -75 -21s-31 -33.333 -31 -58c0 -24 7.33301 -44.667 22 -62
c-14.667 -16.667 -35.667 -25 -63 -25c-17.333 0 -31.333 5 -42 15c-11.333 10 -17 24.667 -17 44c0 28 12 52 36 72s52 34 84 42s66 12 102 12c58.667 0 102.667 -12 132 -36s44 -69.667 44 -137v-262c0 -24 2 -40 6 -48s12 -12 24 -12c16 0 33.667 4.33301 53 13v1z
M218.999 63.002c53.333 0 99.666 26.001 138.999 78.001v130c-69.333 -7.33301 -122.333 -22.333 -159 -45s-55 -51.667 -55 -87c0 -22.667 6.66699 -41.334 20 -56.001c12.667 -14 31.334 -21 56.001 -21zM267.999 693.003c-79.333 -70 -127.334 -105 -144.001 -105
c-9.33301 0 -15.333 3 -18 9c72.667 64.667 126.667 118.667 162 162c38.667 -47.333 93.667 -101.333 165 -162c-5.33301 -6 -11.666 -9 -18.999 -9c-17.333 0 -65.333 35 -144 105h-2zM283.998 -64.9971c38.667 0 58.001 -18.334 58.001 -55.001
c0 -21.333 -5.66699 -38.666 -17 -51.999c-10.667 -12.667 -27.334 -19 -50.001 -19c-19.333 0 -33.333 5 -42 15c-8.66699 9.33301 -13 23 -13 41c0 20 6 36.667 18 50s27.667 20 47 20h-1z" />
    <glyph glyph-name="questiondown" unicode="&#x1eae;" horiz-adv-x="647" 
d="M560 -7c-30.667 0 -58.001 19.332 -82.001 57.999s-48 96.667 -72 174h-309c-26 -67.333 -39 -110.666 -39 -129.999c0 -30.667 8 -59 24 -85c-13.333 -11.333 -28.333 -17 -45 -17c-25.333 0 -38 13.333 -38 40c0 25.333 13 69 39 131l41 94l44 95
c15.333 32 30 64.667 44 98s27.667 68 41 104c26 70.667 39 125.667 39 165c0 3.33301 -0.166992 6.5 -0.5 9.5s-0.833008 6.16699 -1.5 9.5c5.33301 4.66699 15 7 29 7c25.333 0 49 -16.667 71 -50c11.333 -16.667 22 -36.167 32 -58.5s19.667 -47.5 29 -75.5l28.5 -86
l29.5 -90c10 -30.667 21.5 -62.167 34.5 -94.5s27.167 -65.5 42.5 -99.5c30.667 -68 65.334 -124.667 104.001 -170c-22.667 -18.667 -50 -28 -82 -28zM264.999 655.999c-4 -26.667 -14.002 -61 -30.002 -103s-40 -100 -72 -174l-38 -89.5
c-9.33301 -22.333 -15.666 -37.166 -18.999 -44.499h294c-9.33301 26.667 -23.333 72.667 -42 138c-9.33301 32.667 -18.333 62.5 -27 89.5l-24 73.5c-15.333 45.333 -29.666 81.666 -42.999 108.999zM279.997 816.999c52.667 0 79 57.333 79 172
c48.667 0 73 -20.333 73 -61c0 -35.333 -14 -66 -42 -92s-64.667 -39 -110 -39c-48.667 0 -86.667 13.333 -114 40c-28 26.667 -42 57 -42 91c0 40.667 24.333 61 73 61c0 -114.667 27.333 -172 82 -172h1zM245.997 1014c78.667 36.667 127 97.667 145 183
c9.33301 7.33301 20 11 32 11c10.667 0 19.667 -3 27 -9s11 -15.667 11 -29c0 -34 -26 -69 -78 -105s-93.333 -54 -124 -54c-7.33301 0 -12 1.33301 -14 4z" />
    <glyph glyph-name="ae" unicode="&#x1eaf;" horiz-adv-x="565" 
d="M542 65c1.33301 0 1.99902 -0.998047 1.99902 -2.99805c0 -10.667 -15 -23.334 -45 -38.001c-30.667 -15.333 -58.667 -23 -84 -23c-23.333 0 -38.666 8.66699 -45.999 26c-6.66699 16 -10 47 -10 93c-20.667 -36.667 -48.334 -66.667 -83.001 -90
c-33.333 -22.667 -69.666 -34 -108.999 -34c-38 0 -69 10 -93 30s-36 48.667 -36 86c0 99.333 106.667 158.666 320 177.999v115c0 45.333 -7 77 -21 95s-37.333 27 -70 27c-29.333 0 -54.333 -7 -75 -21s-31 -33.333 -31 -58c0 -24 7.33301 -44.667 22 -62
c-14.667 -16.667 -35.667 -25 -63 -25c-17.333 0 -31.333 5 -42 15c-11.333 10 -17 24.667 -17 44c0 28 12 52 36 72s52 34 84 42s66 12 102 12c58.667 0 102.667 -12 132 -36s44 -69.667 44 -137v-262c0 -24 2 -40 6 -48s12 -12 24 -12c16 0 33.667 4.33301 53 13v1z
M218.999 63.002c53.333 0 99.666 26.001 138.999 78.001v130c-69.333 -7.33301 -122.333 -22.333 -159 -45s-55 -51.667 -55 -87c0 -22.667 6.66699 -41.334 20 -56.001c12.667 -14 31.334 -21 56.001 -21zM275.999 608.003c52.667 0 79 57.333 79 172
c48.667 0 73 -20.333 73 -61c0 -35.333 -14 -66 -42 -92s-64.667 -39 -110 -39c-48.667 0 -86.667 13.333 -114 40c-28 26.667 -42 57 -42 91c0 40.667 24.333 61 73 61c0 -114.667 27.333 -172 82 -172h1zM245.999 801.003c78.667 36.667 127 97.667 145 183
c9.33301 7.33301 20 11 32 11c10.667 0 19.667 -3 27 -9s11 -15.667 11 -29c0 -34 -26 -69 -78 -105s-93.333 -54 -124 -54c-7.33301 0 -12 1.33301 -14 4z" />
    <glyph glyph-name="Oslash" unicode="&#x1eb0;" horiz-adv-x="647" 
d="M560 -7c-30.667 0 -58.001 19.332 -82.001 57.999s-48 96.667 -72 174h-309c-26 -67.333 -39 -110.666 -39 -129.999c0 -30.667 8 -59 24 -85c-13.333 -11.333 -28.333 -17 -45 -17c-25.333 0 -38 13.333 -38 40c0 25.333 13 69 39 131l41 94l44 95
c15.333 32 30 64.667 44 98s27.667 68 41 104c26 70.667 39 125.667 39 165c0 3.33301 -0.166992 6.5 -0.5 9.5s-0.833008 6.16699 -1.5 9.5c5.33301 4.66699 15 7 29 7c25.333 0 49 -16.667 71 -50c11.333 -16.667 22 -36.167 32 -58.5s19.667 -47.5 29 -75.5l28.5 -86
l29.5 -90c10 -30.667 21.5 -62.167 34.5 -94.5s27.167 -65.5 42.5 -99.5c30.667 -68 65.334 -124.667 104.001 -170c-22.667 -18.667 -50 -28 -82 -28zM264.999 655.999c-4 -26.667 -14.002 -61 -30.002 -103s-40 -100 -72 -174l-38 -89.5
c-9.33301 -22.333 -15.666 -37.166 -18.999 -44.499h294c-9.33301 26.667 -23.333 72.667 -42 138c-9.33301 32.667 -18.333 62.5 -27 89.5l-24 73.5c-15.333 45.333 -29.666 81.666 -42.999 108.999zM279.997 816.999c52.667 0 79 57.333 79 172
c48.667 0 73 -20.333 73 -61c0 -35.333 -14 -66 -42 -92s-64.667 -39 -110 -39c-48.667 0 -86.667 13.333 -114 40c-28 26.667 -42 57 -42 91c0 40.667 24.333 61 73 61c0 -114.667 27.333 -172 82 -172h1zM327.997 1013c-2 -2.66699 -6.66699 -4 -14 -4
c-30.667 0 -72 18 -124 54s-78 71 -78 105c0 13.333 3.66699 23 11 29c6.66699 6 15.667 9 27 9c12 0 22.667 -3.66699 32 -11c18 -85.333 66.333 -146.333 145 -183z" />
    <glyph glyph-name="ordfeminine" unicode="&#x1eb1;" horiz-adv-x="565" 
d="M542 65c1.33301 0 1.99902 -0.998047 1.99902 -2.99805c0 -10.667 -15 -23.334 -45 -38.001c-30.667 -15.333 -58.667 -23 -84 -23c-23.333 0 -38.666 8.66699 -45.999 26c-6.66699 16 -10 47 -10 93c-20.667 -36.667 -48.334 -66.667 -83.001 -90
c-33.333 -22.667 -69.666 -34 -108.999 -34c-38 0 -69 10 -93 30s-36 48.667 -36 86c0 99.333 106.667 158.666 320 177.999v115c0 45.333 -7 77 -21 95s-37.333 27 -70 27c-29.333 0 -54.333 -7 -75 -21s-31 -33.333 -31 -58c0 -24 7.33301 -44.667 22 -62
c-14.667 -16.667 -35.667 -25 -63 -25c-17.333 0 -31.333 5 -42 15c-11.333 10 -17 24.667 -17 44c0 28 12 52 36 72s52 34 84 42s66 12 102 12c58.667 0 102.667 -12 132 -36s44 -69.667 44 -137v-262c0 -24 2 -40 6 -48s12 -12 24 -12c16 0 33.667 4.33301 53 13v1z
M218.999 63.002c53.333 0 99.666 26.001 138.999 78.001v130c-69.333 -7.33301 -122.333 -22.333 -159 -45s-55 -51.667 -55 -87c0 -22.667 6.66699 -41.334 20 -56.001c12.667 -14 31.334 -21 56.001 -21zM275.999 608.003c52.667 0 79 57.333 79 172
c48.667 0 73 -20.333 73 -61c0 -35.333 -14 -66 -42 -92s-64.667 -39 -110 -39c-48.667 0 -86.667 13.333 -114 40c-28 26.667 -42 57 -42 91c0 40.667 24.333 61 73 61c0 -114.667 27.333 -172 82 -172h1zM318.999 805.003c-2 -2.66699 -6.66699 -4 -14 -4
c-30.667 0 -72 18 -124 54s-78 71 -78 105c0 13.333 3.66699 23 11 29c6.66699 6 15.667 9 27 9c12 0 22.667 -3.66699 32 -11c18 -85.333 66.333 -146.333 145 -183z" />
    </font>
</defs>
</svg>
